<svg width="65" height="64" viewBox="0 0 65 64" fill="none" xmlns="http://www.w3.org/2000/svg">
<rect x="0.333984" width="64" height="64" rx="16" fill="url(#paint0_linear_108_2692)"/>
<path fill-rule="evenodd" clip-rule="evenodd" d="M43.334 31.998C43.334 32.6827 39.6666 34.664 32.6673 34.664C25.668 34.664 22.0007 32.6827 22.0007 31.998V30.6647V27.3687C24.5993 28.7027 28.7247 29.3327 32.6673 29.3327C36.61 29.3327 40.7353 28.7027 43.334 27.3687V30.6647V31.998ZM43.334 39.998C43.334 40.6834 39.6666 42.666 32.6673 42.666C25.668 42.666 22.0007 40.6834 22.0007 39.998V38.6647V35.3667C24.5993 36.7007 28.7247 37.3307 32.6673 37.3307C36.61 37.3307 40.7353 36.7007 43.334 35.3667V38.6647V39.998ZM32.6673 21.3327C39.6666 21.3327 43.334 23.314 43.334 23.9993C43.334 24.6847 39.6666 26.666 32.6673 26.666C25.668 26.666 22.0007 24.6847 22.0007 23.9993C22.0007 23.314 25.668 21.3327 32.6673 21.3327ZM46.0007 23.9993C46.0007 20.3353 39.0893 18.666 32.6673 18.666C26.2453 18.666 19.334 20.3353 19.334 23.9993V30.6647V31.998V38.6647V39.998C19.334 43.6633 26.2453 45.3327 32.6673 45.3327C39.0847 45.3327 45.99 43.666 46 40.006H46.0007V39.998V38.6647V31.998V30.6647V24.0067H46C46 24.004 46.0007 24.002 46.0007 23.9993Z" fill="#BCA5FC"/>
<path fill-rule="evenodd" clip-rule="evenodd" d="M43.334 31.998C43.334 32.6827 39.6666 34.664 32.6673 34.664C25.668 34.664 22.0007 32.6827 22.0007 31.998V30.6647V27.3687C24.5993 28.7027 28.7247 29.3327 32.6673 29.3327C36.61 29.3327 40.7353 28.7027 43.334 27.3687V30.6647V31.998ZM43.334 39.998C43.334 40.6834 39.6666 42.666 32.6673 42.666C25.668 42.666 22.0007 40.6834 22.0007 39.998V38.6647V35.3667C24.5993 36.7007 28.7247 37.3307 32.6673 37.3307C36.61 37.3307 40.7353 36.7007 43.334 35.3667V38.6647V39.998ZM32.6673 21.3327C39.6666 21.3327 43.334 23.314 43.334 23.9993C43.334 24.6847 39.6666 26.666 32.6673 26.666C25.668 26.666 22.0007 24.6847 22.0007 23.9993C22.0007 23.314 25.668 21.3327 32.6673 21.3327ZM46.0007 23.9993C46.0007 20.3353 39.0893 18.666 32.6673 18.666C26.2453 18.666 19.334 20.3353 19.334 23.9993V30.6647V31.998V38.6647V39.998C19.334 43.6633 26.2453 45.3327 32.6673 45.3327C39.0847 45.3327 45.99 43.666 46 40.006H46.0007V39.998V38.6647V31.998V30.6647V24.0067H46C46 24.004 46.0007 24.002 46.0007 23.9993Z" fill="url(#paint1_linear_108_2692)"/>
<defs>
<linearGradient id="paint0_linear_108_2692" x1="32.4639" y1="14" x2="-35.833" y2="102.5" gradientUnits="userSpaceOnUse">
<stop stop-color="#E9F4FF"/>
<stop offset="1" stop-color="#7ABFFE"/>
</linearGradient>
<linearGradient id="paint1_linear_108_2692" x1="32.6673" y1="18.666" x2="11.834" y2="56.166" gradientUnits="userSpaceOnUse">
<stop stop-color="#BCA5FC"/>
<stop offset="1" stop-color="#35B6FF"/>
</linearGradient>
</defs>
</svg>
