<svg width="64" height="64" viewBox="0 0 64 64" fill="none" xmlns="http://www.w3.org/2000/svg">
<rect width="64" height="64" rx="16" fill="url(#paint0_linear_108_2675)"/>
<path fill-rule="evenodd" clip-rule="evenodd" d="M43.9707 28.0402C43.2439 27.9418 42.564 28.4544 42.4649 29.1872C42.3157 30.2928 41.9383 31.3729 41.3707 32.3139C39.713 35.0818 37.5588 37.4623 34.9648 39.3917L32.5803 41.1752C32.1507 41.4931 31.5564 41.4944 31.1328 41.1779L28.7369 39.391C26.1383 37.4516 23.9834 35.0705 22.333 32.3146C21.5614 31.0249 21.1572 29.5493 21.1639 28.0294V28.0094V28.0067V28.004V27.998V27.9973V27.996V27.9933V27.9926V27.9866V27.9846V27.9826V27.9819V27.9799V27.9779V27.9759C21.1639 27.9752 21.1639 27.9746 21.1632 27.9739V27.9732V27.9712V27.9699V27.9692V27.9679V27.9659C21.1625 27.9645 21.1625 27.9639 21.1632 27.9632V27.9612V27.9605V27.9592V27.9585V27.9565V27.9545C21.1632 27.9538 21.1639 27.9525 21.1625 27.9518V27.9498V27.9478C21.1619 27.9465 21.1619 27.9458 21.1625 27.9458C21.1619 27.9444 21.1619 27.9438 21.1625 27.9431V27.9418V27.9391C21.1625 27.9384 21.1625 27.9378 21.1619 27.9371V27.9351C21.1605 27.9043 21.1578 27.8735 21.1545 27.8441C20.9557 25.4803 22.845 23.0463 25.1385 22.7231C27.3951 22.4065 29.4965 23.67 30.2481 25.7982C30.4368 26.3336 30.9427 26.691 31.5102 26.691H32.1929C32.7604 26.691 33.2663 26.3336 33.455 25.7982C34.05 24.1131 35.5812 22.8978 37.3553 22.7023C38.0908 22.6214 38.6209 21.9602 38.5399 21.2253C38.4582 20.4905 37.7937 19.9618 37.0629 20.0415C34.9474 20.2744 33.0522 21.4295 31.8522 23.128C30.2869 20.9155 27.5584 19.6794 24.765 20.0722C21.0909 20.5902 18.1737 24.3152 18.4869 28.0656C18.4836 30.0465 19.019 31.9893 20.0355 33.6898C21.8672 36.7469 24.2557 39.387 27.1361 41.5366L29.5306 43.3228C30.2119 43.8321 31.0297 44.0877 31.8502 44.0877C32.6694 44.0877 33.4912 43.8328 34.1791 43.3228L36.5656 41.5373C39.4393 39.4004 41.8285 36.7596 43.6655 33.6925C44.4178 32.4444 44.9197 31.0102 45.1185 29.5459C45.2168 28.8131 44.7035 28.1392 43.9707 28.0402Z" fill="#BCA5FC"/>
<path fill-rule="evenodd" clip-rule="evenodd" d="M43.9707 28.0402C43.2439 27.9418 42.564 28.4544 42.4649 29.1872C42.3157 30.2928 41.9383 31.3729 41.3707 32.3139C39.713 35.0818 37.5588 37.4623 34.9648 39.3917L32.5803 41.1752C32.1507 41.4931 31.5564 41.4944 31.1328 41.1779L28.7369 39.391C26.1383 37.4516 23.9834 35.0705 22.333 32.3146C21.5614 31.0249 21.1572 29.5493 21.1639 28.0294V28.0094V28.0067V28.004V27.998V27.9973V27.996V27.9933V27.9926V27.9866V27.9846V27.9826V27.9819V27.9799V27.9779V27.9759C21.1639 27.9752 21.1639 27.9746 21.1632 27.9739V27.9732V27.9712V27.9699V27.9692V27.9679V27.9659C21.1625 27.9645 21.1625 27.9639 21.1632 27.9632V27.9612V27.9605V27.9592V27.9585V27.9565V27.9545C21.1632 27.9538 21.1639 27.9525 21.1625 27.9518V27.9498V27.9478C21.1619 27.9465 21.1619 27.9458 21.1625 27.9458C21.1619 27.9444 21.1619 27.9438 21.1625 27.9431V27.9418V27.9391C21.1625 27.9384 21.1625 27.9378 21.1619 27.9371V27.9351C21.1605 27.9043 21.1578 27.8735 21.1545 27.8441C20.9557 25.4803 22.845 23.0463 25.1385 22.7231C27.3951 22.4065 29.4965 23.67 30.2481 25.7982C30.4368 26.3336 30.9427 26.691 31.5102 26.691H32.1929C32.7604 26.691 33.2663 26.3336 33.455 25.7982C34.05 24.1131 35.5812 22.8978 37.3553 22.7023C38.0908 22.6214 38.6209 21.9602 38.5399 21.2253C38.4582 20.4905 37.7937 19.9618 37.0629 20.0415C34.9474 20.2744 33.0522 21.4295 31.8522 23.128C30.2869 20.9155 27.5584 19.6794 24.765 20.0722C21.0909 20.5902 18.1737 24.3152 18.4869 28.0656C18.4836 30.0465 19.019 31.9893 20.0355 33.6898C21.8672 36.7469 24.2557 39.387 27.1361 41.5366L29.5306 43.3228C30.2119 43.8321 31.0297 44.0877 31.8502 44.0877C32.6694 44.0877 33.4912 43.8328 34.1791 43.3228L36.5656 41.5373C39.4393 39.4004 41.8285 36.7596 43.6655 33.6925C44.4178 32.4444 44.9197 31.0102 45.1185 29.5459C45.2168 28.8131 44.7035 28.1392 43.9707 28.0402Z" fill="url(#paint1_linear_108_2675)"/>
<path fill-rule="evenodd" clip-rule="evenodd" d="M28.7866 29.7582C28.2639 29.2362 27.4153 29.2355 26.894 29.7582C26.3713 30.2815 26.3713 31.1288 26.894 31.6514L30.9107 35.6669C31.1717 35.9279 31.5144 36.059 31.857 36.059C32.1996 36.059 32.5416 35.9279 32.8033 35.6669L43.5097 24.9591C44.0324 24.4358 44.0324 23.5885 43.5097 23.0658C42.987 22.5432 42.1398 22.5432 41.6171 23.0658L31.857 32.8273L28.7866 29.7582Z" fill="url(#paint2_linear_108_2675)"/>
<defs>
<linearGradient id="paint0_linear_108_2675" x1="32" y1="47" x2="123" y2="-57" gradientUnits="userSpaceOnUse">
<stop stop-color="#DEEEFF"/>
<stop offset="1" stop-color="#7ABFFE"/>
</linearGradient>
<linearGradient id="paint1_linear_108_2675" x1="31.7972" y1="20" x2="14.0272" y2="55.4106" gradientUnits="userSpaceOnUse">
<stop stop-color="#BCA5FC"/>
<stop offset="1" stop-color="#35B6FF"/>
</linearGradient>
<linearGradient id="paint2_linear_108_2675" x1="39.5" y1="13.5" x2="35" y2="33" gradientUnits="userSpaceOnUse">
<stop stop-color="#2377DB"/>
<stop offset="1" stop-color="#51D5FF"/>
</linearGradient>
</defs>
</svg>
