<svg width="65" height="64" viewBox="0 0 65 64" fill="none" xmlns="http://www.w3.org/2000/svg">
<rect x="0.666992" width="64" height="64" rx="16" fill="url(#paint0_linear_108_2701)"/>
<path fill-rule="evenodd" clip-rule="evenodd" d="M26.1305 23.9977C28.3365 23.9977 30.1305 25.7897 30.1305 27.9932C30.1305 30.1968 28.3365 31.9888 26.1305 31.9888C23.9245 31.9888 22.1305 30.1968 22.1305 27.9932C22.1305 25.7897 23.9245 23.9977 26.1305 23.9977ZM26.1305 34.6525C29.8065 34.6525 32.7972 31.6652 32.7972 27.9932C32.7972 24.3213 29.8065 21.334 26.1305 21.334C22.4545 21.334 19.4638 24.3213 19.4638 27.9932C19.4638 31.6652 22.4545 34.6525 26.1305 34.6525ZM38.1305 29.3251C38.1305 27.8561 39.3265 26.6614 40.7972 26.6614C42.2678 26.6614 43.4638 27.8561 43.4638 29.3251C43.4638 30.7941 42.2678 31.9888 40.7972 31.9888C39.3265 31.9888 38.1305 30.7941 38.1305 29.3251ZM46.1305 29.3251C46.1305 26.3877 43.7378 23.9977 40.7972 23.9977C37.8565 23.9977 35.4638 26.3877 35.4638 29.3251C35.4638 32.2625 37.8565 34.6525 40.7972 34.6525C43.7378 34.6525 46.1305 32.2625 46.1305 29.3251ZM34.416 39.9237L34.8726 40.2287C35.4846 40.6382 35.648 41.4653 35.238 42.0766C34.9806 42.4602 34.5586 42.6673 34.1293 42.6673C33.874 42.6673 33.616 42.5941 33.388 42.4416L32.9326 42.1366C28.6086 39.2451 23.6493 39.2451 19.326 42.1332L18.872 42.4362C18.258 42.8458 17.4313 42.6806 17.0226 42.0706C16.6126 41.4593 16.7766 40.6316 17.3886 40.2227L17.8433 39.919C23.034 36.4529 29.2293 36.4549 34.416 39.9237Z" fill="#BCA5FC"/>
<path fill-rule="evenodd" clip-rule="evenodd" d="M26.1305 23.9977C28.3365 23.9977 30.1305 25.7897 30.1305 27.9932C30.1305 30.1968 28.3365 31.9888 26.1305 31.9888C23.9245 31.9888 22.1305 30.1968 22.1305 27.9932C22.1305 25.7897 23.9245 23.9977 26.1305 23.9977ZM26.1305 34.6525C29.8065 34.6525 32.7972 31.6652 32.7972 27.9932C32.7972 24.3213 29.8065 21.334 26.1305 21.334C22.4545 21.334 19.4638 24.3213 19.4638 27.9932C19.4638 31.6652 22.4545 34.6525 26.1305 34.6525ZM38.1305 29.3251C38.1305 27.8561 39.3265 26.6614 40.7972 26.6614C42.2678 26.6614 43.4638 27.8561 43.4638 29.3251C43.4638 30.7941 42.2678 31.9888 40.7972 31.9888C39.3265 31.9888 38.1305 30.7941 38.1305 29.3251ZM46.1305 29.3251C46.1305 26.3877 43.7378 23.9977 40.7972 23.9977C37.8565 23.9977 35.4638 26.3877 35.4638 29.3251C35.4638 32.2625 37.8565 34.6525 40.7972 34.6525C43.7378 34.6525 46.1305 32.2625 46.1305 29.3251ZM34.416 39.9237L34.8726 40.2287C35.4846 40.6382 35.648 41.4653 35.238 42.0766C34.9806 42.4602 34.5586 42.6673 34.1293 42.6673C33.874 42.6673 33.616 42.5941 33.388 42.4416L32.9326 42.1366C28.6086 39.2451 23.6493 39.2451 19.326 42.1332L18.872 42.4362C18.258 42.8458 17.4313 42.6806 17.0226 42.0706C16.6126 41.4593 16.7766 40.6316 17.3886 40.2227L17.8433 39.919C23.034 36.4529 29.2293 36.4549 34.416 39.9237Z" fill="url(#paint1_linear_108_2701)"/>
<path fill-rule="evenodd" clip-rule="evenodd" d="M48.3 40.298L47.92 39.9923C45.0593 37.6969 41.712 36.8399 38.4986 37.579C37.7806 37.7442 37.3333 38.4587 37.498 39.1753C37.6633 39.8925 38.3806 40.3406 39.096 40.1748C41.536 39.6134 44.008 40.27 46.2486 42.068L46.628 42.373C46.8746 42.5715 47.17 42.6674 47.4633 42.6674C47.8533 42.6674 48.2393 42.4976 48.5033 42.1706C48.9646 41.5972 48.8733 40.7588 48.3 40.298Z" fill="#BCA5FC"/>
<path fill-rule="evenodd" clip-rule="evenodd" d="M48.3 40.298L47.92 39.9923C45.0593 37.6969 41.712 36.8399 38.4986 37.579C37.7806 37.7442 37.3333 38.4587 37.498 39.1753C37.6633 39.8925 38.3806 40.3406 39.096 40.1748C41.536 39.6134 44.008 40.27 46.2486 42.068L46.628 42.373C46.8746 42.5715 47.17 42.6674 47.4633 42.6674C47.8533 42.6674 48.2393 42.4976 48.5033 42.1706C48.9646 41.5972 48.8733 40.7588 48.3 40.298Z" fill="url(#paint2_linear_108_2701)"/>
<defs>
<linearGradient id="paint0_linear_108_2701" x1="33" y1="32" x2="78.5" y2="-36.5" gradientUnits="userSpaceOnUse">
<stop stop-color="#DEEEFF"/>
<stop offset="1" stop-color="#7ABFFE"/>
</linearGradient>
<linearGradient id="paint1_linear_108_2701" x1="31.4637" y1="21.334" x2="17.8275" y2="55.0837" gradientUnits="userSpaceOnUse">
<stop stop-color="#BCA5FC"/>
<stop offset="1" stop-color="#35B6FF"/>
</linearGradient>
<linearGradient id="paint2_linear_108_2701" x1="43.1307" y1="37.3203" x2="40.7173" y2="46.5278" gradientUnits="userSpaceOnUse">
<stop stop-color="#BCA5FC"/>
<stop offset="1" stop-color="#35B6FF"/>
</linearGradient>
</defs>
</svg>
