<svg width="675" height="315" viewBox="0 0 675 315" fill="none" xmlns="http://www.w3.org/2000/svg">
<path fill-rule="evenodd" clip-rule="evenodd" d="M535.973 45.6525C534.139 44.5901 533.51 42.2371 534.569 40.3969C535.628 38.5568 537.974 37.9263 539.808 38.9887C541.43 39.9278 542.109 41.8754 541.513 43.5858L601.415 78.2792C602.594 76.9065 604.615 76.5229 606.236 77.462C608.071 78.5244 608.699 80.8774 607.64 82.7176C606.581 84.5577 604.235 85.1882 602.401 84.1258C600.78 83.1866 600.1 81.2391 600.696 79.5287L540.794 44.8352C539.615 46.2079 537.594 46.5916 535.973 45.6525Z" fill="black" fill-opacity="0.09"/>
<path fill-rule="evenodd" clip-rule="evenodd" d="M539.808 276.011C537.974 277.074 535.628 276.443 534.569 274.603C533.51 272.763 534.139 270.41 535.973 269.348C537.594 268.408 539.615 268.792 540.794 270.165L600.696 235.471C600.1 233.761 600.78 231.813 602.401 230.874C604.235 229.812 606.581 230.442 607.64 232.282C608.699 234.123 608.071 236.476 606.236 237.538C604.615 238.477 602.594 238.093 601.415 236.721L541.513 271.414C542.109 273.125 541.43 275.072 539.808 276.011Z" fill="black" fill-opacity="0.09"/>
<path fill-rule="evenodd" clip-rule="evenodd" d="M7.67045 195.733C7.67045 197.858 5.95336 199.58 3.83523 199.58C1.71709 199.58 0 197.858 0 195.733C0 193.855 1.34171 192.291 3.11612 191.953V122.566C1.34171 122.228 0 120.665 0 118.786C0 116.661 1.71709 114.939 3.83523 114.939C5.95336 114.939 7.67045 116.661 7.67045 118.786C7.67045 120.665 6.32874 122.228 4.55433 122.566V191.953C6.32874 192.291 7.67045 193.855 7.67045 195.733Z" fill="black" fill-opacity="0.09"/>
<path fill-rule="evenodd" clip-rule="evenodd" d="M667.33 196.214C667.33 198.339 669.047 200.061 671.165 200.061C673.283 200.061 675 198.339 675 196.214C675 194.335 673.658 192.772 671.884 192.434V123.047C673.658 122.709 675 121.145 675 119.267C675 117.142 673.283 115.42 671.165 115.42C669.047 115.42 667.33 117.142 667.33 119.267C667.33 121.145 668.671 122.709 670.446 123.047V192.434C668.671 192.772 667.33 194.335 667.33 196.214Z" fill="black" fill-opacity="0.09"/>
<path fill-rule="evenodd" clip-rule="evenodd" d="M466.942 235.471C466.805 235.075 466.73 234.649 466.73 234.206C466.73 232.081 468.447 230.359 470.565 230.359C470.6 230.359 470.635 230.359 470.67 230.36C470.704 230.359 470.739 230.359 470.774 230.359C472.892 230.359 474.609 232.081 474.609 234.206C474.609 234.649 474.535 235.075 474.397 235.471L538.64 272.679L474.397 309.887C474.535 310.284 474.609 310.709 474.609 311.153C474.609 313.277 472.892 315 470.774 315C470.739 315 470.704 315 470.67 314.999C470.635 315 470.6 315 470.565 315C468.447 315 466.73 313.277 466.73 311.153C466.73 310.709 466.805 310.284 466.942 309.887L402.699 272.679L466.942 235.471ZM467.662 236.72L405.575 272.679L467.662 308.638C468.365 307.822 469.405 307.305 470.565 307.305C470.6 307.305 470.635 307.306 470.67 307.307C470.704 307.306 470.739 307.305 470.774 307.305C471.934 307.305 472.974 307.822 473.677 308.638L535.764 272.679L473.677 236.72C472.974 237.537 471.934 238.053 470.774 238.053C470.739 238.053 470.704 238.053 470.67 238.052C470.635 238.053 470.6 238.053 470.565 238.053C469.405 238.053 468.365 237.537 467.662 236.72Z" fill="black" fill-opacity="0.09"/>
<path d="M541.246 272.679C541.246 274.804 539.529 276.527 537.411 276.527C535.293 276.527 533.576 274.804 533.576 272.679C533.576 270.555 535.293 268.832 537.411 268.832C539.529 268.832 541.246 270.555 541.246 272.679Z" fill="black" fill-opacity="0.09"/>
<path d="M474.609 311.153C474.609 313.277 472.892 315 470.774 315C468.656 315 466.939 313.277 466.939 311.153C466.939 309.028 468.656 307.305 470.774 307.305C472.892 307.305 474.609 309.028 474.609 311.153Z" fill="black" fill-opacity="0.09"/>
<path d="M407.972 272.679C407.972 274.804 406.255 276.527 404.137 276.527C402.019 276.527 400.302 274.804 400.302 272.679C400.302 270.555 402.019 268.832 404.137 268.832C406.255 268.832 407.972 270.555 407.972 272.679Z" fill="black" fill-opacity="0.09"/>
<path d="M474.609 234.206C474.609 236.331 472.892 238.053 470.774 238.053C468.656 238.053 466.939 236.331 466.939 234.206C466.939 232.081 468.656 230.359 470.774 230.359C472.892 230.359 474.609 232.081 474.609 234.206Z" fill="black" fill-opacity="0.09"/>
<path fill-rule="evenodd" clip-rule="evenodd" d="M466.942 82.0592C466.805 81.663 466.73 81.2372 466.73 80.7939C466.73 78.6691 468.447 76.9466 470.565 76.9466C470.6 76.9466 470.635 76.947 470.67 76.948C470.704 76.947 470.739 76.9466 470.774 76.9466C472.892 76.9466 474.609 78.6691 474.609 80.7939C474.609 81.2372 474.535 81.663 474.397 82.0592L538.64 119.267L474.397 156.475C474.535 156.871 474.609 157.297 474.609 157.74C474.609 159.865 472.892 161.588 470.774 161.588C470.739 161.588 470.704 161.587 470.67 161.586C470.635 161.587 470.6 161.588 470.565 161.588C468.447 161.588 466.73 159.865 466.73 157.74C466.73 157.297 466.805 156.871 466.942 156.475L402.699 119.267L466.942 82.0592ZM467.662 83.3082L405.575 119.267L467.662 155.226C468.365 154.41 469.405 153.893 470.565 153.893C470.6 153.893 470.635 153.894 470.67 153.895C470.704 153.894 470.739 153.893 470.774 153.893C471.934 153.893 472.974 154.41 473.677 155.226L535.764 119.267L473.677 83.3082C472.974 84.1246 471.934 84.6412 470.774 84.6412C470.739 84.6412 470.704 84.6407 470.67 84.6398C470.635 84.6407 470.6 84.6412 470.565 84.6412C469.405 84.6412 468.365 84.1246 467.662 83.3082Z" fill="black" fill-opacity="0.09"/>
<path d="M541.246 119.267C541.246 121.392 539.529 123.115 537.411 123.115C535.293 123.115 533.576 121.392 533.576 119.267C533.576 117.142 535.293 115.42 537.411 115.42C539.529 115.42 541.246 117.142 541.246 119.267Z" fill="black" fill-opacity="0.09"/>
<path d="M474.609 157.74C474.609 159.865 472.892 161.588 470.774 161.588C468.656 161.588 466.939 159.865 466.939 157.74C466.939 155.616 468.656 153.893 470.774 153.893C472.892 153.893 474.609 155.616 474.609 157.74Z" fill="black" fill-opacity="0.09"/>
<path d="M407.972 119.267C407.972 121.392 406.255 123.115 404.137 123.115C402.019 123.115 400.302 121.392 400.302 119.267C400.302 117.142 402.019 115.42 404.137 115.42C406.255 115.42 407.972 117.142 407.972 119.267Z" fill="black" fill-opacity="0.09"/>
<path d="M474.609 80.7939C474.609 82.9187 472.892 84.6412 470.774 84.6412C468.656 84.6412 466.939 82.9187 466.939 80.7939C466.939 78.6691 468.656 76.9466 470.774 76.9466C472.892 76.9466 474.609 78.6691 474.609 80.7939Z" fill="black" fill-opacity="0.09"/>
<path fill-rule="evenodd" clip-rule="evenodd" d="M466.942 158.525C466.805 158.129 466.73 157.703 466.73 157.26C466.73 155.135 468.447 153.412 470.565 153.412C470.6 153.412 470.635 153.413 470.67 153.414C470.704 153.413 470.739 153.412 470.774 153.412C472.892 153.412 474.609 155.135 474.609 157.26C474.609 157.703 474.535 158.129 474.397 158.525L538.64 195.733L474.397 232.941C474.535 233.337 474.609 233.763 474.609 234.206C474.609 236.331 472.892 238.053 470.774 238.053C470.739 238.053 470.704 238.053 470.67 238.052C470.635 238.053 470.6 238.053 470.565 238.053C468.447 238.053 466.73 236.331 466.73 234.206C466.73 233.763 466.805 233.337 466.942 232.941L402.699 195.733L466.942 158.525ZM467.662 159.774L405.575 195.733L467.662 231.692C468.365 230.875 469.405 230.359 470.565 230.359C470.6 230.359 470.635 230.359 470.67 230.36C470.704 230.359 470.739 230.359 470.774 230.359C471.934 230.359 472.974 230.875 473.677 231.692L535.764 195.733L473.677 159.774C472.974 160.59 471.934 161.107 470.774 161.107C470.739 161.107 470.704 161.106 470.67 161.105C470.635 161.106 470.6 161.107 470.565 161.107C469.405 161.107 468.365 160.59 467.662 159.774Z" fill="black" fill-opacity="0.09"/>
<path d="M541.246 195.733C541.246 197.858 539.529 199.58 537.411 199.58C535.293 199.58 533.576 197.858 533.576 195.733C533.576 193.608 535.293 191.885 537.411 191.885C539.529 191.885 541.246 193.608 541.246 195.733Z" fill="black" fill-opacity="0.09"/>
<path d="M474.609 234.206C474.609 236.331 472.892 238.053 470.774 238.053C468.656 238.053 466.939 236.331 466.939 234.206C466.939 232.081 468.656 230.359 470.774 230.359C472.892 230.359 474.609 232.081 474.609 234.206Z" fill="black" fill-opacity="0.09"/>
<path d="M407.972 195.733C407.972 197.858 406.255 199.58 404.137 199.58C402.019 199.58 400.302 197.858 400.302 195.733C400.302 193.608 402.019 191.885 404.137 191.885C406.255 191.885 407.972 193.608 407.972 195.733Z" fill="black" fill-opacity="0.09"/>
<path d="M474.609 157.26C474.609 159.384 472.892 161.107 470.774 161.107C468.656 161.107 466.939 159.384 466.939 157.26C466.939 155.135 468.656 153.412 470.774 153.412C472.892 153.412 474.609 155.135 474.609 157.26Z" fill="black" fill-opacity="0.09"/>
<path fill-rule="evenodd" clip-rule="evenodd" d="M466.942 5.11268C466.805 4.7164 466.73 4.29062 466.73 3.84733C466.73 1.72251 468.447 0 470.565 0C470.6 0 470.635 0.000468957 470.67 0.00140068C470.704 0.000468957 470.739 0 470.774 0C472.892 0 474.609 1.72251 474.609 3.84733C474.609 4.29062 474.535 4.7164 474.397 5.11268L538.64 42.3206L474.397 79.5285C474.535 79.9248 474.609 80.3506 474.609 80.7939C474.609 82.9187 472.892 84.6412 470.774 84.6412C470.739 84.6412 470.704 84.6407 470.67 84.6398C470.635 84.6407 470.6 84.6412 470.565 84.6412C468.447 84.6412 466.73 82.9187 466.73 80.7939C466.73 80.3506 466.805 79.9248 466.942 79.5285L402.699 42.3206L466.942 5.11268ZM467.662 6.36164L405.575 42.3206L467.662 78.2796C468.365 77.4632 469.405 76.9466 470.565 76.9466C470.6 76.9466 470.635 76.947 470.67 76.948C470.704 76.947 470.739 76.9466 470.774 76.9466C471.934 76.9466 472.974 77.4632 473.677 78.2796L535.764 42.3206L473.677 6.36164C472.974 7.17803 471.934 7.69466 470.774 7.69466C470.739 7.69466 470.704 7.69419 470.67 7.69326C470.635 7.69419 470.6 7.69466 470.565 7.69466C469.405 7.69466 468.365 7.17803 467.662 6.36164Z" fill="black" fill-opacity="0.09"/>
<path d="M541.246 42.3206C541.246 44.4454 539.529 46.1679 537.411 46.1679C535.293 46.1679 533.576 44.4454 533.576 42.3206C533.576 40.1958 535.293 38.4733 537.411 38.4733C539.529 38.4733 541.246 40.1958 541.246 42.3206Z" fill="black" fill-opacity="0.09"/>
<path d="M474.609 80.7939C474.609 82.9187 472.892 84.6412 470.774 84.6412C468.656 84.6412 466.939 82.9187 466.939 80.7939C466.939 78.6691 468.656 76.9466 470.774 76.9466C472.892 76.9466 474.609 78.6691 474.609 80.7939Z" fill="black" fill-opacity="0.09"/>
<path d="M407.972 42.3206C407.972 44.4454 406.255 46.1679 404.137 46.1679C402.019 46.1679 400.302 44.4454 400.302 42.3206C400.302 40.1958 402.019 38.4733 404.137 38.4733C406.255 38.4733 407.972 40.1958 407.972 42.3206Z" fill="black" fill-opacity="0.09"/>
<path d="M474.609 3.84733C474.609 5.97215 472.892 7.69466 470.774 7.69466C468.656 7.69466 466.939 5.97215 466.939 3.84733C466.939 1.72251 468.656 0 470.774 0C472.892 0 474.609 1.72251 474.609 3.84733Z" fill="black" fill-opacity="0.09"/>
<path fill-rule="evenodd" clip-rule="evenodd" d="M199.914 235.471C199.777 235.075 199.702 234.649 199.702 234.206C199.702 232.081 201.419 230.359 203.537 230.359C203.572 230.359 203.607 230.359 203.642 230.36C203.677 230.359 203.712 230.359 203.746 230.359C205.865 230.359 207.582 232.081 207.582 234.206C207.582 234.649 207.507 235.075 207.369 235.471L271.613 272.679L207.369 309.887C207.507 310.284 207.582 310.709 207.582 311.153C207.582 313.277 205.865 315 203.746 315C203.712 315 203.677 315 203.642 314.999C203.607 315 203.572 315 203.537 315C201.419 315 199.702 313.277 199.702 311.153C199.702 310.709 199.777 310.284 199.914 309.887L135.671 272.679L199.914 235.471ZM200.634 236.72L138.548 272.679L200.634 308.638C201.338 307.822 202.377 307.305 203.537 307.305C203.572 307.305 203.607 307.306 203.642 307.307C203.677 307.306 203.712 307.305 203.746 307.305C204.906 307.305 205.946 307.822 206.649 308.638L268.736 272.679L206.649 236.72C205.946 237.537 204.906 238.053 203.746 238.053C203.712 238.053 203.677 238.053 203.642 238.052C203.607 238.053 203.572 238.053 203.537 238.053C202.377 238.053 201.338 237.537 200.634 236.72Z" fill="black" fill-opacity="0.09"/>
<path d="M274.219 272.679C274.219 274.804 272.502 276.527 270.384 276.527C268.265 276.527 266.548 274.804 266.548 272.679C266.548 270.555 268.265 268.832 270.384 268.832C272.502 268.832 274.219 270.555 274.219 272.679Z" fill="black" fill-opacity="0.09"/>
<path d="M207.582 311.153C207.582 313.277 205.865 315 203.746 315C201.628 315 199.911 313.277 199.911 311.153C199.911 309.028 201.628 307.305 203.746 307.305C205.865 307.305 207.582 309.028 207.582 311.153Z" fill="black" fill-opacity="0.09"/>
<path d="M140.945 272.679C140.945 274.804 139.228 276.527 137.109 276.527C134.991 276.527 133.274 274.804 133.274 272.679C133.274 270.555 134.991 268.832 137.109 268.832C139.228 268.832 140.945 270.555 140.945 272.679Z" fill="black" fill-opacity="0.09"/>
<path d="M207.582 234.206C207.582 236.331 205.865 238.053 203.746 238.053C201.628 238.053 199.911 236.331 199.911 234.206C199.911 232.081 201.628 230.359 203.746 230.359C205.865 230.359 207.582 232.081 207.582 234.206Z" fill="black" fill-opacity="0.09"/>
<path fill-rule="evenodd" clip-rule="evenodd" d="M199.914 82.0592C199.777 81.663 199.702 81.2372 199.702 80.7939C199.702 78.6691 201.419 76.9466 203.537 76.9466C203.572 76.9466 203.607 76.947 203.642 76.948C203.677 76.947 203.712 76.9466 203.746 76.9466C205.865 76.9466 207.582 78.6691 207.582 80.7939C207.582 81.2372 207.507 81.663 207.369 82.0592L271.613 119.267L207.369 156.475C207.507 156.871 207.582 157.297 207.582 157.74C207.582 159.865 205.865 161.588 203.746 161.588C203.712 161.588 203.677 161.587 203.642 161.586C203.607 161.587 203.572 161.588 203.537 161.588C201.419 161.588 199.702 159.865 199.702 157.74C199.702 157.297 199.777 156.871 199.914 156.475L135.671 119.267L199.914 82.0592ZM200.634 83.3082L138.548 119.267L200.634 155.226C201.338 154.41 202.377 153.893 203.537 153.893C203.572 153.893 203.607 153.894 203.642 153.895C203.677 153.894 203.712 153.893 203.746 153.893C204.906 153.893 205.946 154.41 206.649 155.226L268.736 119.267L206.649 83.3082C205.946 84.1246 204.906 84.6412 203.746 84.6412C203.712 84.6412 203.677 84.6407 203.642 84.6398C203.607 84.6407 203.572 84.6412 203.537 84.6412C202.377 84.6412 201.338 84.1246 200.634 83.3082Z" fill="black" fill-opacity="0.09"/>
<path d="M274.219 119.267C274.219 121.392 272.502 123.115 270.384 123.115C268.265 123.115 266.548 121.392 266.548 119.267C266.548 117.142 268.265 115.42 270.384 115.42C272.502 115.42 274.219 117.142 274.219 119.267Z" fill="black" fill-opacity="0.09"/>
<path d="M207.582 157.74C207.582 159.865 205.865 161.588 203.746 161.588C201.628 161.588 199.911 159.865 199.911 157.74C199.911 155.616 201.628 153.893 203.746 153.893C205.865 153.893 207.582 155.616 207.582 157.74Z" fill="black" fill-opacity="0.09"/>
<path d="M140.945 119.267C140.945 121.392 139.228 123.115 137.109 123.115C134.991 123.115 133.274 121.392 133.274 119.267C133.274 117.142 134.991 115.42 137.109 115.42C139.228 115.42 140.945 117.142 140.945 119.267Z" fill="black" fill-opacity="0.09"/>
<path d="M207.582 80.7939C207.582 82.9187 205.865 84.6412 203.746 84.6412C201.628 84.6412 199.911 82.9187 199.911 80.7939C199.911 78.6691 201.628 76.9466 203.746 76.9466C205.865 76.9466 207.582 78.6691 207.582 80.7939Z" fill="black" fill-opacity="0.09"/>
<path fill-rule="evenodd" clip-rule="evenodd" d="M133.277 43.586C133.14 43.1897 133.065 42.7639 133.065 42.3206C133.065 40.1958 134.782 38.4733 136.9 38.4733C136.935 38.4733 136.97 38.4738 137.005 38.4747C137.04 38.4738 137.074 38.4733 137.109 38.4733C139.228 38.4733 140.945 40.1958 140.945 42.3206C140.945 42.7639 140.87 43.1897 140.732 43.586L204.976 80.7939L140.732 118.002C140.87 118.398 140.945 118.824 140.945 119.267C140.945 121.392 139.228 123.115 137.109 123.115C137.074 123.115 137.04 123.114 137.005 123.113C136.97 123.114 136.935 123.115 136.9 123.115C134.782 123.115 133.065 121.392 133.065 119.267C133.065 118.824 133.14 118.398 133.277 118.002L69.0341 80.7939L133.277 43.586ZM133.997 44.8349L71.9105 80.7939L133.997 116.753C134.701 115.936 135.74 115.42 136.9 115.42C136.935 115.42 136.97 115.42 137.005 115.421C137.04 115.42 137.074 115.42 137.109 115.42C138.269 115.42 139.309 115.936 140.012 116.753L202.099 80.7939L140.012 44.8349C139.309 45.6513 138.269 46.1679 137.109 46.1679C137.074 46.1679 137.04 46.1675 137.005 46.1665C136.97 46.1675 136.935 46.1679 136.9 46.1679C135.74 46.1679 134.701 45.6513 133.997 44.8349Z" fill="black" fill-opacity="0.09"/>
<path d="M207.582 80.7939C207.582 82.9187 205.865 84.6412 203.746 84.6412C201.628 84.6412 199.911 82.9187 199.911 80.7939C199.911 78.6691 201.628 76.9466 203.746 76.9466C205.865 76.9466 207.582 78.6691 207.582 80.7939Z" fill="black" fill-opacity="0.09"/>
<path d="M140.945 119.267C140.945 121.392 139.228 123.115 137.109 123.115C134.991 123.115 133.274 121.392 133.274 119.267C133.274 117.142 134.991 115.42 137.109 115.42C139.228 115.42 140.945 117.142 140.945 119.267Z" fill="black" fill-opacity="0.09"/>
<path d="M74.3075 80.7939C74.3075 82.9187 72.5904 84.6412 70.4723 84.6412C68.3542 84.6412 66.6371 82.9187 66.6371 80.7939C66.6371 78.6691 68.3542 76.9466 70.4723 76.9466C72.5904 76.9466 74.3075 78.6691 74.3075 80.7939Z" fill="black" fill-opacity="0.09"/>
<path d="M140.945 42.3206C140.945 44.4454 139.228 46.1679 137.109 46.1679C134.991 46.1679 133.274 44.4454 133.274 42.3206C133.274 40.1958 134.991 38.4733 137.109 38.4733C139.228 38.4733 140.945 40.1958 140.945 42.3206Z" fill="black" fill-opacity="0.09"/>
<path fill-rule="evenodd" clip-rule="evenodd" d="M66.6403 81.5783C66.5028 81.182 66.4281 80.7563 66.4281 80.313C66.4281 78.1882 68.1452 76.4656 70.2633 76.4656C70.2983 76.4656 70.3331 76.4661 70.3678 76.467C70.4025 76.4661 70.4374 76.4656 70.4723 76.4656C72.5904 76.4656 74.3075 78.1882 74.3075 80.313C74.3075 80.7563 74.2328 81.182 74.0953 81.5783L138.339 118.786L74.0953 155.994C74.2328 156.39 74.3075 156.816 74.3075 157.26C74.3075 159.384 72.5904 161.107 70.4723 161.107C70.4374 161.107 70.4025 161.106 70.3678 161.105C70.3331 161.106 70.2983 161.107 70.2633 161.107C68.1452 161.107 66.4281 159.384 66.4281 157.26C66.4281 156.816 66.5028 156.39 66.6403 155.994L2.39702 118.786L66.6403 81.5783ZM67.3603 82.8273L5.27344 118.786L67.3603 154.745C68.0636 153.929 69.1033 153.412 70.2633 153.412C70.2983 153.412 70.3331 153.413 70.3678 153.414C70.4025 153.413 70.4374 153.412 70.4723 153.412C71.6323 153.412 72.672 153.929 73.3753 154.745L135.462 118.786L73.3753 82.8273C72.672 83.6437 71.6323 84.1603 70.4723 84.1603C70.4374 84.1603 70.4025 84.1598 70.3678 84.1589C70.3331 84.1598 70.2983 84.1603 70.2633 84.1603C69.1033 84.1603 68.0636 83.6437 67.3603 82.8273Z" fill="black" fill-opacity="0.09"/>
<path d="M140.945 118.786C140.945 120.911 139.228 122.634 137.109 122.634C134.991 122.634 133.274 120.911 133.274 118.786C133.274 116.661 134.991 114.939 137.109 114.939C139.228 114.939 140.945 116.661 140.945 118.786Z" fill="black" fill-opacity="0.09"/>
<path d="M74.3075 157.26C74.3075 159.384 72.5904 161.107 70.4723 161.107C68.3542 161.107 66.6371 159.384 66.6371 157.26C66.6371 155.135 68.3542 153.412 70.4723 153.412C72.5904 153.412 74.3075 155.135 74.3075 157.26Z" fill="black" fill-opacity="0.09"/>
<path d="M7.67045 118.786C7.67045 120.911 5.95336 122.634 3.83523 122.634C1.71709 122.634 0 120.911 0 118.786C0 116.661 1.71709 114.939 3.83523 114.939C5.95336 114.939 7.67045 116.661 7.67045 118.786Z" fill="black" fill-opacity="0.09"/>
<path d="M74.3075 80.313C74.3075 82.4378 72.5904 84.1603 70.4723 84.1603C68.3542 84.1603 66.6371 82.4378 66.6371 80.313C66.6371 78.1882 68.3542 76.4656 70.4723 76.4656C72.5904 76.4656 74.3075 78.1882 74.3075 80.313Z" fill="black" fill-opacity="0.09"/>
<path fill-rule="evenodd" clip-rule="evenodd" d="M608.36 82.0592C608.497 81.663 608.572 81.2372 608.572 80.7939C608.572 78.6691 606.855 76.9466 604.737 76.9466C604.702 76.9466 604.667 76.947 604.632 76.948C604.597 76.947 604.563 76.9466 604.528 76.9466C602.41 76.9466 600.692 78.6691 600.692 80.7939C600.692 81.2372 600.767 81.663 600.905 82.0592L536.661 119.267L600.905 156.475C600.767 156.871 600.692 157.297 600.692 157.74C600.692 159.865 602.41 161.588 604.528 161.588C604.563 161.588 604.597 161.587 604.632 161.586C604.667 161.587 604.702 161.588 604.737 161.588C606.855 161.588 608.572 159.865 608.572 157.74C608.572 157.297 608.497 156.871 608.36 156.475L672.603 119.267L608.36 82.0592ZM607.64 83.3082L669.727 119.267L607.64 155.226C606.936 154.41 605.897 153.893 604.737 153.893C604.702 153.893 604.667 153.894 604.632 153.895C604.597 153.894 604.563 153.893 604.528 153.893C603.368 153.893 602.328 154.41 601.625 155.226L539.538 119.267L601.625 83.3082C602.328 84.1246 603.368 84.6412 604.528 84.6412C604.563 84.6412 604.597 84.6407 604.632 84.6398C604.667 84.6407 604.702 84.6412 604.737 84.6412C605.897 84.6412 606.936 84.1246 607.64 83.3082Z" fill="black" fill-opacity="0.09"/>
<path d="M534.055 119.267C534.055 121.392 535.772 123.115 537.891 123.115C540.009 123.115 541.726 121.392 541.726 119.267C541.726 117.142 540.009 115.42 537.891 115.42C535.772 115.42 534.055 117.142 534.055 119.267Z" fill="black" fill-opacity="0.09"/>
<path d="M600.692 157.74C600.692 159.865 602.41 161.588 604.528 161.588C606.646 161.588 608.363 159.865 608.363 157.74C608.363 155.616 606.646 153.893 604.528 153.893C602.41 153.893 600.692 155.616 600.692 157.74Z" fill="black" fill-opacity="0.09"/>
<path d="M667.33 119.267C667.33 121.392 669.047 123.115 671.165 123.115C673.283 123.115 675 121.392 675 119.267C675 117.142 673.283 115.42 671.165 115.42C669.047 115.42 667.33 117.142 667.33 119.267Z" fill="black" fill-opacity="0.09"/>
<path d="M600.692 80.7939C600.692 82.9187 602.41 84.6412 604.528 84.6412C606.646 84.6412 608.363 82.9187 608.363 80.7939C608.363 78.6691 606.646 76.9466 604.528 76.9466C602.41 76.9466 600.692 78.6691 600.692 80.7939Z" fill="black" fill-opacity="0.09"/>
<path fill-rule="evenodd" clip-rule="evenodd" d="M66.6403 158.525C66.5028 158.129 66.4281 157.703 66.4281 157.26C66.4281 155.135 68.1452 153.412 70.2633 153.412C70.2983 153.412 70.3331 153.413 70.3678 153.414C70.4025 153.413 70.4374 153.412 70.4723 153.412C72.5904 153.412 74.3075 155.135 74.3075 157.26C74.3075 157.703 74.2328 158.129 74.0953 158.525L138.339 195.733L74.0953 232.941C74.2328 233.337 74.3075 233.763 74.3075 234.206C74.3075 236.331 72.5904 238.053 70.4723 238.053C70.4374 238.053 70.4025 238.053 70.3678 238.052C70.3331 238.053 70.2983 238.053 70.2633 238.053C68.1452 238.053 66.4281 236.331 66.4281 234.206C66.4281 233.763 66.5028 233.337 66.6403 232.941L2.39702 195.733L66.6403 158.525ZM67.3603 159.774L5.27344 195.733L67.3603 231.692C68.0636 230.875 69.1033 230.359 70.2633 230.359C70.2983 230.359 70.3331 230.359 70.3678 230.36C70.4025 230.359 70.4374 230.359 70.4723 230.359C71.6323 230.359 72.672 230.875 73.3753 231.692L135.462 195.733L73.3753 159.774C72.672 160.59 71.6323 161.107 70.4723 161.107C70.4374 161.107 70.4025 161.106 70.3678 161.105C70.3331 161.106 70.2983 161.107 70.2633 161.107C69.1033 161.107 68.0636 160.59 67.3603 159.774Z" fill="black" fill-opacity="0.09"/>
<path d="M140.945 195.733C140.945 197.858 139.228 199.58 137.109 199.58C134.991 199.58 133.274 197.858 133.274 195.733C133.274 193.608 134.991 191.885 137.109 191.885C139.228 191.885 140.945 193.608 140.945 195.733Z" fill="black" fill-opacity="0.09"/>
<path d="M74.3075 234.206C74.3075 236.331 72.5904 238.053 70.4723 238.053C68.3542 238.053 66.6371 236.331 66.6371 234.206C66.6371 232.081 68.3542 230.359 70.4723 230.359C72.5904 230.359 74.3075 232.081 74.3075 234.206Z" fill="black" fill-opacity="0.09"/>
<path d="M7.67045 195.733C7.67045 197.858 5.95336 199.58 3.83523 199.58C1.71709 199.58 0 197.858 0 195.733C0 193.608 1.71709 191.885 3.83523 191.885C5.95336 191.885 7.67045 193.608 7.67045 195.733Z" fill="black" fill-opacity="0.09"/>
<path d="M74.3075 157.26C74.3075 159.384 72.5904 161.107 70.4723 161.107C68.3542 161.107 66.6371 159.384 66.6371 157.26C66.6371 155.135 68.3542 153.412 70.4723 153.412C72.5904 153.412 74.3075 155.135 74.3075 157.26Z" fill="black" fill-opacity="0.09"/>
<path fill-rule="evenodd" clip-rule="evenodd" d="M608.36 159.006C608.497 158.61 608.572 158.184 608.572 157.74C608.572 155.616 606.855 153.893 604.737 153.893C604.702 153.893 604.667 153.894 604.632 153.895C604.597 153.894 604.563 153.893 604.528 153.893C602.41 153.893 600.692 155.616 600.692 157.74C600.692 158.184 600.767 158.61 600.905 159.006L536.661 196.214L600.905 233.422C600.767 233.818 600.692 234.244 600.692 234.687C600.692 236.812 602.41 238.534 604.528 238.534C604.563 238.534 604.597 238.534 604.632 238.533C604.667 238.534 604.702 238.534 604.737 238.534C606.855 238.534 608.572 236.812 608.572 234.687C608.572 234.244 608.497 233.818 608.36 233.422L672.603 196.214L608.36 159.006ZM607.64 160.255L669.727 196.214L607.64 232.173C606.936 231.356 605.897 230.84 604.737 230.84C604.702 230.84 604.667 230.84 604.632 230.841C604.597 230.84 604.563 230.84 604.528 230.84C603.368 230.84 602.328 231.356 601.625 232.173L539.538 196.214L601.625 160.255C602.328 161.071 603.368 161.588 604.528 161.588C604.563 161.588 604.597 161.587 604.632 161.586C604.667 161.587 604.702 161.588 604.737 161.588C605.897 161.588 606.936 161.071 607.64 160.255Z" fill="black" fill-opacity="0.09"/>
<path d="M534.055 196.214C534.055 198.339 535.772 200.061 537.891 200.061C540.009 200.061 541.726 198.339 541.726 196.214C541.726 194.089 540.009 192.366 537.891 192.366C535.772 192.366 534.055 194.089 534.055 196.214Z" fill="black" fill-opacity="0.09"/>
<path d="M600.692 234.687C600.692 236.812 602.41 238.534 604.528 238.534C606.646 238.534 608.363 236.812 608.363 234.687C608.363 232.562 606.646 230.84 604.528 230.84C602.41 230.84 600.692 232.562 600.692 234.687Z" fill="black" fill-opacity="0.09"/>
<path d="M667.33 196.214C667.33 198.339 669.047 200.061 671.165 200.061C673.283 200.061 675 198.339 675 196.214C675 194.089 673.283 192.366 671.165 192.366C669.047 192.366 667.33 194.089 667.33 196.214Z" fill="black" fill-opacity="0.09"/>
<path d="M600.692 157.74C600.692 159.865 602.41 161.588 604.528 161.588C606.646 161.588 608.363 159.865 608.363 157.74C608.363 155.616 606.646 153.893 604.528 153.893C602.41 153.893 600.692 155.616 600.692 157.74Z" fill="black" fill-opacity="0.09"/>
<path fill-rule="evenodd" clip-rule="evenodd" d="M133.277 120.052C133.14 119.655 133.065 119.23 133.065 118.786C133.065 116.661 134.782 114.939 136.9 114.939C136.935 114.939 136.97 114.939 137.005 114.94C137.04 114.939 137.074 114.939 137.109 114.939C139.228 114.939 140.945 116.661 140.945 118.786C140.945 119.23 140.87 119.655 140.732 120.052L204.976 157.26L140.732 194.467C140.87 194.864 140.945 195.29 140.945 195.733C140.945 197.858 139.228 199.58 137.109 199.58C137.074 199.58 137.04 199.58 137.005 199.579C136.97 199.58 136.935 199.58 136.9 199.58C134.782 199.58 133.065 197.858 133.065 195.733C133.065 195.29 133.14 194.864 133.277 194.467L69.0341 157.26L133.277 120.052ZM133.997 121.301L71.9105 157.26L133.997 193.219C134.701 192.402 135.74 191.885 136.9 191.885C136.935 191.885 136.97 191.886 137.005 191.887C137.04 191.886 137.074 191.885 137.109 191.885C138.269 191.885 139.309 192.402 140.012 193.219L202.099 157.26L140.012 121.301C139.309 122.117 138.269 122.634 137.109 122.634C137.074 122.634 137.04 122.633 137.005 122.632C136.97 122.633 136.935 122.634 136.9 122.634C135.74 122.634 134.701 122.117 133.997 121.301Z" fill="black" fill-opacity="0.09"/>
<path d="M207.582 157.26C207.582 159.384 205.865 161.107 203.746 161.107C201.628 161.107 199.911 159.384 199.911 157.26C199.911 155.135 201.628 153.412 203.746 153.412C205.865 153.412 207.582 155.135 207.582 157.26Z" fill="black" fill-opacity="0.09"/>
<path d="M140.945 195.733C140.945 197.858 139.228 199.58 137.109 199.58C134.991 199.58 133.274 197.858 133.274 195.733C133.274 193.608 134.991 191.885 137.109 191.885C139.228 191.885 140.945 193.608 140.945 195.733Z" fill="black" fill-opacity="0.09"/>
<path d="M74.3075 157.26C74.3075 159.384 72.5904 161.107 70.4723 161.107C68.3542 161.107 66.6371 159.384 66.6371 157.26C66.6371 155.135 68.3542 153.412 70.4723 153.412C72.5904 153.412 74.3075 155.135 74.3075 157.26Z" fill="black" fill-opacity="0.09"/>
<path d="M140.945 118.786C140.945 120.911 139.228 122.634 137.109 122.634C134.991 122.634 133.274 120.911 133.274 118.786C133.274 116.661 134.991 114.939 137.109 114.939C139.228 114.939 140.945 116.661 140.945 118.786Z" fill="black" fill-opacity="0.09"/>
<path fill-rule="evenodd" clip-rule="evenodd" d="M133.277 196.998C133.14 196.602 133.065 196.176 133.065 195.733C133.065 193.608 134.782 191.885 136.9 191.885C136.935 191.885 136.97 191.886 137.005 191.887C137.04 191.886 137.074 191.885 137.109 191.885C139.228 191.885 140.945 193.608 140.945 195.733C140.945 196.176 140.87 196.602 140.732 196.998L204.976 234.206L140.732 271.414C140.87 271.81 140.945 272.236 140.945 272.679C140.945 274.804 139.228 276.527 137.109 276.527C137.074 276.527 137.04 276.526 137.005 276.525C136.97 276.526 136.935 276.527 136.9 276.527C134.782 276.527 133.065 274.804 133.065 272.679C133.065 272.236 133.14 271.81 133.277 271.414L69.0341 234.206L133.277 196.998ZM133.997 198.247L71.9105 234.206L133.997 270.165C134.701 269.349 135.74 268.832 136.9 268.832C136.935 268.832 136.97 268.833 137.005 268.833C137.04 268.833 137.074 268.832 137.109 268.832C138.269 268.832 139.309 269.349 140.012 270.165L202.099 234.206L140.012 198.247C139.309 199.064 138.269 199.58 137.109 199.58C137.074 199.58 137.04 199.58 137.005 199.579C136.97 199.58 136.935 199.58 136.9 199.58C135.74 199.58 134.701 199.064 133.997 198.247Z" fill="black" fill-opacity="0.09"/>
<path d="M207.582 234.206C207.582 236.331 205.865 238.053 203.746 238.053C201.628 238.053 199.911 236.331 199.911 234.206C199.911 232.081 201.628 230.359 203.746 230.359C205.865 230.359 207.582 232.081 207.582 234.206Z" fill="black" fill-opacity="0.09"/>
<path d="M140.945 272.679C140.945 274.804 139.228 276.527 137.109 276.527C134.991 276.527 133.274 274.804 133.274 272.679C133.274 270.555 134.991 268.832 137.109 268.832C139.228 268.832 140.945 270.555 140.945 272.679Z" fill="black" fill-opacity="0.09"/>
<path d="M74.3075 234.206C74.3075 236.331 72.5904 238.053 70.4723 238.053C68.3542 238.053 66.6371 236.331 66.6371 234.206C66.6371 232.081 68.3542 230.359 70.4723 230.359C72.5904 230.359 74.3075 232.081 74.3075 234.206Z" fill="black" fill-opacity="0.09"/>
<path d="M140.945 195.733C140.945 197.858 139.228 199.58 137.109 199.58C134.991 199.58 133.274 197.858 133.274 195.733C133.274 193.608 134.991 191.885 137.109 191.885C139.228 191.885 140.945 193.608 140.945 195.733Z" fill="black" fill-opacity="0.09"/>
<path fill-rule="evenodd" clip-rule="evenodd" d="M199.914 158.525C199.777 158.129 199.702 157.703 199.702 157.26C199.702 155.135 201.419 153.412 203.537 153.412C203.572 153.412 203.607 153.413 203.642 153.414C203.677 153.413 203.712 153.412 203.746 153.412C205.865 153.412 207.582 155.135 207.582 157.26C207.582 157.703 207.507 158.129 207.369 158.525L271.613 195.733L207.369 232.941C207.507 233.337 207.582 233.763 207.582 234.206C207.582 236.331 205.865 238.053 203.746 238.053C203.712 238.053 203.677 238.053 203.642 238.052C203.607 238.053 203.572 238.053 203.537 238.053C201.419 238.053 199.702 236.331 199.702 234.206C199.702 233.763 199.777 233.337 199.914 232.941L135.671 195.733L199.914 158.525ZM200.634 159.774L138.548 195.733L200.634 231.692C201.338 230.875 202.377 230.359 203.537 230.359C203.572 230.359 203.607 230.359 203.642 230.36C203.677 230.359 203.712 230.359 203.746 230.359C204.906 230.359 205.946 230.875 206.649 231.692L268.736 195.733L206.649 159.774C205.946 160.59 204.906 161.107 203.746 161.107C203.712 161.107 203.677 161.106 203.642 161.105C203.607 161.106 203.572 161.107 203.537 161.107C202.377 161.107 201.338 160.59 200.634 159.774Z" fill="black" fill-opacity="0.09"/>
<path d="M274.219 195.733C274.219 197.858 272.502 199.58 270.384 199.58C268.265 199.58 266.548 197.858 266.548 195.733C266.548 193.608 268.265 191.885 270.384 191.885C272.502 191.885 274.219 193.608 274.219 195.733Z" fill="black" fill-opacity="0.09"/>
<path d="M207.582 234.206C207.582 236.331 205.865 238.053 203.746 238.053C201.628 238.053 199.911 236.331 199.911 234.206C199.911 232.081 201.628 230.359 203.746 230.359C205.865 230.359 207.582 232.081 207.582 234.206Z" fill="black" fill-opacity="0.09"/>
<path d="M140.945 195.733C140.945 197.858 139.228 199.58 137.109 199.58C134.991 199.58 133.274 197.858 133.274 195.733C133.274 193.608 134.991 191.885 137.109 191.885C139.228 191.885 140.945 193.608 140.945 195.733Z" fill="black" fill-opacity="0.09"/>
<path d="M207.582 157.26C207.582 159.384 205.865 161.107 203.746 161.107C201.628 161.107 199.911 159.384 199.911 157.26C199.911 155.135 201.628 153.412 203.746 153.412C205.865 153.412 207.582 155.135 207.582 157.26Z" fill="black" fill-opacity="0.09"/>
<path fill-rule="evenodd" clip-rule="evenodd" d="M199.914 5.11268C199.777 4.7164 199.702 4.29062 199.702 3.84733C199.702 1.72251 201.419 0 203.537 0C203.572 0 203.607 0.000468957 203.642 0.00140068C203.677 0.000468957 203.712 0 203.746 0C205.865 0 207.582 1.72251 207.582 3.84733C207.582 4.29062 207.507 4.7164 207.369 5.11268L271.613 42.3206L207.369 79.5285C207.507 79.9248 207.582 80.3506 207.582 80.7939C207.582 82.9187 205.865 84.6412 203.746 84.6412C203.712 84.6412 203.677 84.6407 203.642 84.6398C203.607 84.6407 203.572 84.6412 203.537 84.6412C201.419 84.6412 199.702 82.9187 199.702 80.7939C199.702 80.3506 199.777 79.9248 199.914 79.5285L135.671 42.3206L199.914 5.11268ZM200.634 6.36164L138.548 42.3206L200.634 78.2796C201.338 77.4632 202.377 76.9466 203.537 76.9466C203.572 76.9466 203.607 76.947 203.642 76.948C203.677 76.947 203.712 76.9466 203.746 76.9466C204.906 76.9466 205.946 77.4632 206.649 78.2796L268.736 42.3206L206.649 6.36164C205.946 7.17803 204.906 7.69466 203.746 7.69466C203.712 7.69466 203.677 7.69419 203.642 7.69326C203.607 7.69419 203.572 7.69466 203.537 7.69466C202.377 7.69466 201.338 7.17803 200.634 6.36164Z" fill="black" fill-opacity="0.09"/>
<path d="M274.219 42.3206C274.219 44.4454 272.502 46.1679 270.384 46.1679C268.265 46.1679 266.548 44.4454 266.548 42.3206C266.548 40.1958 268.265 38.4733 270.384 38.4733C272.502 38.4733 274.219 40.1958 274.219 42.3206Z" fill="black" fill-opacity="0.09"/>
<path d="M207.582 80.7939C207.582 82.9187 205.865 84.6412 203.746 84.6412C201.628 84.6412 199.911 82.9187 199.911 80.7939C199.911 78.6691 201.628 76.9466 203.746 76.9466C205.865 76.9466 207.582 78.6691 207.582 80.7939Z" fill="black" fill-opacity="0.09"/>
<path d="M140.945 42.3206C140.945 44.4454 139.228 46.1679 137.109 46.1679C134.991 46.1679 133.274 44.4454 133.274 42.3206C133.274 40.1958 134.991 38.4733 137.109 38.4733C139.228 38.4733 140.945 40.1958 140.945 42.3206Z" fill="black" fill-opacity="0.09"/>
<path d="M207.582 3.84733C207.582 5.97215 205.865 7.69466 203.746 7.69466C201.628 7.69466 199.911 5.97215 199.911 3.84733C199.911 1.72251 201.628 0 203.746 0C205.865 0 207.582 1.72251 207.582 3.84733Z" fill="black" fill-opacity="0.09"/>
<path fill-rule="evenodd" clip-rule="evenodd" d="M333.668 235.471C333.531 235.075 333.456 234.649 333.456 234.206C333.456 232.081 335.173 230.359 337.291 230.359C337.326 230.359 337.361 230.359 337.396 230.36C337.43 230.359 337.465 230.359 337.5 230.359C339.618 230.359 341.335 232.081 341.335 234.206C341.335 234.649 341.26 235.075 341.123 235.471L405.366 272.679L341.123 309.887C341.26 310.284 341.335 310.709 341.335 311.153C341.335 313.277 339.618 315 337.5 315C337.465 315 337.43 315 337.396 314.999C337.361 315 337.326 315 337.291 315C335.173 315 333.456 313.277 333.456 311.153C333.456 310.709 333.531 310.284 333.668 309.887L269.425 272.679L333.668 235.471ZM334.388 236.72L272.301 272.679L334.388 308.638C335.091 307.822 336.131 307.305 337.291 307.305C337.326 307.305 337.361 307.306 337.396 307.307C337.43 307.306 337.465 307.305 337.5 307.305C338.66 307.305 339.7 307.822 340.403 308.638L402.49 272.679L340.403 236.72C339.7 237.537 338.66 238.053 337.5 238.053C337.465 238.053 337.43 238.053 337.396 238.052C337.361 238.053 337.326 238.053 337.291 238.053C336.131 238.053 335.091 237.537 334.388 236.72Z" fill="black" fill-opacity="0.09"/>
<path d="M407.972 272.679C407.972 274.804 406.255 276.527 404.137 276.527C402.019 276.527 400.302 274.804 400.302 272.679C400.302 270.555 402.019 268.832 404.137 268.832C406.255 268.832 407.972 270.555 407.972 272.679Z" fill="black" fill-opacity="0.09"/>
<path d="M341.335 311.153C341.335 313.277 339.618 315 337.5 315C335.382 315 333.665 313.277 333.665 311.153C333.665 309.028 335.382 307.305 337.5 307.305C339.618 307.305 341.335 309.028 341.335 311.153Z" fill="black" fill-opacity="0.09"/>
<path d="M274.698 272.679C274.698 274.804 272.981 276.527 270.863 276.527C268.745 276.527 267.028 274.804 267.028 272.679C267.028 270.555 268.745 268.832 270.863 268.832C272.981 268.832 274.698 270.555 274.698 272.679Z" fill="black" fill-opacity="0.09"/>
<path d="M341.335 234.206C341.335 236.331 339.618 238.053 337.5 238.053C335.382 238.053 333.665 236.331 333.665 234.206C333.665 232.081 335.382 230.359 337.5 230.359C339.618 230.359 341.335 232.081 341.335 234.206Z" fill="black" fill-opacity="0.09"/>
<path fill-rule="evenodd" clip-rule="evenodd" d="M333.668 82.0592C333.531 81.663 333.456 81.2372 333.456 80.7939C333.456 78.6691 335.173 76.9466 337.291 76.9466C337.326 76.9466 337.361 76.947 337.396 76.948C337.43 76.947 337.465 76.9466 337.5 76.9466C339.618 76.9466 341.335 78.6691 341.335 80.7939C341.335 81.2372 341.26 81.663 341.123 82.0592L405.366 119.267L341.123 156.475C341.26 156.871 341.335 157.297 341.335 157.74C341.335 159.865 339.618 161.588 337.5 161.588C337.465 161.588 337.43 161.587 337.396 161.586C337.361 161.587 337.326 161.588 337.291 161.588C335.173 161.588 333.456 159.865 333.456 157.74C333.456 157.297 333.531 156.871 333.668 156.475L269.425 119.267L333.668 82.0592ZM334.388 83.3082L272.301 119.267L334.388 155.226C335.091 154.41 336.131 153.893 337.291 153.893C337.326 153.893 337.361 153.894 337.396 153.895C337.43 153.894 337.465 153.893 337.5 153.893C338.66 153.893 339.7 154.41 340.403 155.226L402.49 119.267L340.403 83.3082C339.7 84.1246 338.66 84.6412 337.5 84.6412C337.465 84.6412 337.43 84.6407 337.396 84.6398C337.361 84.6407 337.326 84.6412 337.291 84.6412C336.131 84.6412 335.091 84.1246 334.388 83.3082Z" fill="black" fill-opacity="0.09"/>
<path d="M407.972 119.267C407.972 121.392 406.255 123.115 404.137 123.115C402.019 123.115 400.302 121.392 400.302 119.267C400.302 117.142 402.019 115.42 404.137 115.42C406.255 115.42 407.972 117.142 407.972 119.267Z" fill="black" fill-opacity="0.09"/>
<path d="M341.335 157.74C341.335 159.865 339.618 161.588 337.5 161.588C335.382 161.588 333.665 159.865 333.665 157.74C333.665 155.616 335.382 153.893 337.5 153.893C339.618 153.893 341.335 155.616 341.335 157.74Z" fill="black" fill-opacity="0.09"/>
<path d="M274.698 119.267C274.698 121.392 272.981 123.115 270.863 123.115C268.745 123.115 267.028 121.392 267.028 119.267C267.028 117.142 268.745 115.42 270.863 115.42C272.981 115.42 274.698 117.142 274.698 119.267Z" fill="black" fill-opacity="0.09"/>
<path d="M341.335 80.7939C341.335 82.9187 339.618 84.6412 337.5 84.6412C335.382 84.6412 333.665 82.9187 333.665 80.7939C333.665 78.6691 335.382 76.9466 337.5 76.9466C339.618 76.9466 341.335 78.6691 341.335 80.7939Z" fill="black" fill-opacity="0.09"/>
<path fill-rule="evenodd" clip-rule="evenodd" d="M333.668 158.525C333.531 158.129 333.456 157.703 333.456 157.26C333.456 155.135 335.173 153.412 337.291 153.412C337.326 153.412 337.361 153.413 337.396 153.414C337.43 153.413 337.465 153.412 337.5 153.412C339.618 153.412 341.335 155.135 341.335 157.26C341.335 157.703 341.26 158.129 341.123 158.525L405.366 195.733L341.123 232.941C341.26 233.337 341.335 233.763 341.335 234.206C341.335 236.331 339.618 238.053 337.5 238.053C337.465 238.053 337.43 238.053 337.396 238.052C337.361 238.053 337.326 238.053 337.291 238.053C335.173 238.053 333.456 236.331 333.456 234.206C333.456 233.763 333.531 233.337 333.668 232.941L269.425 195.733L333.668 158.525ZM334.388 159.774L272.301 195.733L334.388 231.692C335.091 230.875 336.131 230.359 337.291 230.359C337.326 230.359 337.361 230.359 337.396 230.36C337.43 230.359 337.465 230.359 337.5 230.359C338.66 230.359 339.7 230.875 340.403 231.692L402.49 195.733L340.403 159.774C339.7 160.59 338.66 161.107 337.5 161.107C337.465 161.107 337.43 161.106 337.396 161.105C337.361 161.106 337.326 161.107 337.291 161.107C336.131 161.107 335.091 160.59 334.388 159.774Z" fill="black" fill-opacity="0.09"/>
<path d="M407.972 195.733C407.972 197.858 406.255 199.58 404.137 199.58C402.019 199.58 400.302 197.858 400.302 195.733C400.302 193.608 402.019 191.885 404.137 191.885C406.255 191.885 407.972 193.608 407.972 195.733Z" fill="black" fill-opacity="0.09"/>
<path d="M341.335 234.206C341.335 236.331 339.618 238.053 337.5 238.053C335.382 238.053 333.665 236.331 333.665 234.206C333.665 232.081 335.382 230.359 337.5 230.359C339.618 230.359 341.335 232.081 341.335 234.206Z" fill="black" fill-opacity="0.09"/>
<path d="M274.698 195.733C274.698 197.858 272.981 199.58 270.863 199.58C268.745 199.58 267.028 197.858 267.028 195.733C267.028 193.608 268.745 191.885 270.863 191.885C272.981 191.885 274.698 193.608 274.698 195.733Z" fill="black" fill-opacity="0.09"/>
<path d="M341.335 157.26C341.335 159.384 339.618 161.107 337.5 161.107C335.382 161.107 333.665 159.384 333.665 157.26C333.665 155.135 335.382 153.412 337.5 153.412C339.618 153.412 341.335 155.135 341.335 157.26Z" fill="black" fill-opacity="0.09"/>
<path fill-rule="evenodd" clip-rule="evenodd" d="M333.668 5.11268C333.531 4.7164 333.456 4.29062 333.456 3.84733C333.456 1.72251 335.173 0 337.291 0C337.326 0 337.361 0.000468957 337.396 0.00140068C337.43 0.000468957 337.465 0 337.5 0C339.618 0 341.335 1.72251 341.335 3.84733C341.335 4.29062 341.26 4.7164 341.123 5.11268L405.366 42.3206L341.123 79.5285C341.26 79.9248 341.335 80.3506 341.335 80.7939C341.335 82.9187 339.618 84.6412 337.5 84.6412C337.465 84.6412 337.43 84.6407 337.396 84.6398C337.361 84.6407 337.326 84.6412 337.291 84.6412C335.173 84.6412 333.456 82.9187 333.456 80.7939C333.456 80.3506 333.531 79.9248 333.668 79.5285L269.425 42.3206L333.668 5.11268ZM334.388 6.36164L272.301 42.3206L334.388 78.2796C335.091 77.4632 336.131 76.9466 337.291 76.9466C337.326 76.9466 337.361 76.947 337.396 76.948C337.43 76.947 337.465 76.9466 337.5 76.9466C338.66 76.9466 339.7 77.4632 340.403 78.2796L402.49 42.3206L340.403 6.36164C339.7 7.17803 338.66 7.69466 337.5 7.69466C337.465 7.69466 337.43 7.69419 337.396 7.69326C337.361 7.69419 337.326 7.69466 337.291 7.69466C336.131 7.69466 335.091 7.17803 334.388 6.36164Z" fill="black" fill-opacity="0.09"/>
<path d="M407.972 42.3206C407.972 44.4454 406.255 46.1679 404.137 46.1679C402.019 46.1679 400.302 44.4454 400.302 42.3206C400.302 40.1958 402.019 38.4733 404.137 38.4733C406.255 38.4733 407.972 40.1958 407.972 42.3206Z" fill="black" fill-opacity="0.09"/>
<path d="M341.335 80.7939C341.335 82.9187 339.618 84.6412 337.5 84.6412C335.382 84.6412 333.665 82.9187 333.665 80.7939C333.665 78.6691 335.382 76.9466 337.5 76.9466C339.618 76.9466 341.335 78.6691 341.335 80.7939Z" fill="black" fill-opacity="0.09"/>
<path d="M274.698 42.3206C274.698 44.4454 272.981 46.1679 270.863 46.1679C268.745 46.1679 267.028 44.4454 267.028 42.3206C267.028 40.1958 268.745 38.4733 270.863 38.4733C272.981 38.4733 274.698 40.1958 274.698 42.3206Z" fill="black" fill-opacity="0.09"/>
<path d="M341.335 3.84733C341.335 5.97215 339.618 7.69466 337.5 7.69466C335.382 7.69466 333.665 5.97215 333.665 3.84733C333.665 1.72251 335.382 0 337.5 0C339.618 0 341.335 1.72251 341.335 3.84733Z" fill="black" fill-opacity="0.09"/>
</svg>
