<svg width="356" height="401" viewBox="0 0 356 401" fill="none" xmlns="http://www.w3.org/2000/svg">
<path fill-rule="evenodd" clip-rule="evenodd" d="M116.577 -21.2389C118.115 -22.1293 118.642 -24.1013 117.754 -25.6435C116.866 -27.1857 114.899 -27.7141 113.361 -26.8237C112.001 -26.0367 111.432 -24.4044 111.931 -22.971L61.7023 6.10546C60.7139 4.95501 59.0193 4.63345 57.6596 5.42053C56.1215 6.31094 55.5945 8.28297 56.4825 9.82519C57.3706 11.3674 59.3374 11.8958 60.8755 11.0054C62.2352 10.2183 62.8048 8.58607 62.3053 7.15263L112.534 -21.9238C113.522 -20.7733 115.217 -20.4518 116.577 -21.2389Z" fill="#FFD28E"/>
<path fill-rule="evenodd" clip-rule="evenodd" d="M113.361 171.824C114.899 172.714 116.866 172.186 117.754 170.644C118.642 169.101 118.115 167.129 116.577 166.239C115.217 165.452 113.522 165.773 112.534 166.924L62.3053 137.847C62.8048 136.414 62.2352 134.782 60.8755 133.995C59.3374 133.104 57.3706 133.633 56.4825 135.175C55.5945 136.717 56.1215 138.689 57.6596 139.579C59.0193 140.367 60.7139 140.045 61.7023 138.895L111.931 167.971C111.432 169.404 112.001 171.037 113.361 171.824Z" fill="#FFD28E"/>
<path fill-rule="evenodd" clip-rule="evenodd" d="M559.568 104.543C559.568 106.324 561.008 107.767 562.784 107.767C564.56 107.767 566 106.324 566 104.543C566 102.969 564.875 101.658 563.387 101.375V43.222C564.875 42.939 566 41.6284 566 40.0542C566 38.2734 564.56 36.8298 562.784 36.8298C561.008 36.8298 559.568 38.2734 559.568 40.0542C559.568 41.6284 560.693 42.939 562.181 43.222V101.375C560.693 101.658 559.568 102.969 559.568 104.543Z" fill="#FFD28E"/>
<path fill-rule="evenodd" clip-rule="evenodd" d="M6.43182 104.946C6.43182 106.727 4.992 108.17 3.21594 108.17C1.43982 108.17 0 106.727 0 104.946C0 103.372 1.12506 102.061 2.61292 101.778V43.6251C1.12506 43.3421 0 42.0314 0 40.4573C0 38.6765 1.43982 37.2328 3.21594 37.2328C4.992 37.2328 6.43182 38.6765 6.43182 40.4573C6.43182 42.0314 5.30676 43.3421 3.81891 43.6251V101.778C5.30676 102.061 6.43182 103.372 6.43182 104.946Z" fill="#FFD28E"/>
<path fill-rule="evenodd" clip-rule="evenodd" d="M174.46 137.848C174.576 137.515 174.638 137.159 174.638 136.787C174.638 135.006 173.198 133.563 171.422 133.563C171.393 133.563 171.364 133.563 171.335 133.564C171.306 133.563 171.276 133.563 171.247 133.563C169.471 133.563 168.031 135.006 168.031 136.787C168.031 137.159 168.094 137.515 168.209 137.848L114.34 169.031L168.209 200.215C168.094 200.547 168.031 200.904 168.031 201.276C168.031 203.056 169.471 204.5 171.247 204.5C171.276 204.5 171.306 204.5 171.335 204.499C171.364 204.5 171.393 204.5 171.422 204.5C173.198 204.5 174.638 203.056 174.638 201.276C174.638 200.904 174.576 200.547 174.46 200.215L228.33 169.031L174.46 137.848ZM173.857 138.894L225.918 169.031L173.857 199.168C173.267 198.484 172.395 198.051 171.422 198.051C171.393 198.051 171.364 198.052 171.335 198.052C171.306 198.052 171.276 198.051 171.247 198.051C170.274 198.051 169.403 198.484 168.813 199.168L116.752 169.031L168.813 138.894C169.403 139.578 170.274 140.011 171.247 140.011C171.276 140.011 171.306 140.011 171.335 140.01C171.364 140.011 171.393 140.011 171.422 140.011C172.395 140.011 173.267 139.578 173.857 138.894Z" fill="#FFD28E"/>
<path d="M112.155 169.031C112.155 170.812 113.595 172.256 115.371 172.256C117.147 172.256 118.587 170.812 118.587 169.031C118.587 167.25 117.147 165.807 115.371 165.807C113.595 165.807 112.155 167.25 112.155 169.031Z" fill="#FFD28E"/>
<path d="M168.031 201.276C168.031 203.056 169.471 204.5 171.247 204.5C173.023 204.5 174.463 203.056 174.463 201.276C174.463 199.495 173.023 198.051 171.247 198.051C169.471 198.051 168.031 199.495 168.031 201.276Z" fill="#FFD28E"/>
<path d="M223.908 169.031C223.908 170.812 225.348 172.256 227.124 172.256C228.9 172.256 230.34 170.812 230.34 169.031C230.34 167.25 228.9 165.807 227.124 165.807C225.348 165.807 223.908 167.25 223.908 169.031Z" fill="#FFD28E"/>
<path d="M168.031 136.787C168.031 138.568 169.471 140.011 171.247 140.011C173.023 140.011 174.463 138.568 174.463 136.787C174.463 135.006 173.023 133.563 171.247 133.563C169.471 133.563 168.031 135.006 168.031 136.787Z" fill="#FFD28E"/>
<path fill-rule="evenodd" clip-rule="evenodd" d="M174.46 9.27347C174.576 8.94135 174.638 8.5845 174.638 8.21297C174.638 6.43217 173.198 4.98855 171.422 4.98855C171.393 4.98855 171.364 4.98895 171.335 4.98972C171.306 4.98895 171.276 4.98855 171.247 4.98855C169.471 4.98855 168.031 6.43217 168.031 8.21297C168.031 8.5845 168.094 8.94135 168.209 9.27347L114.34 40.4573L168.209 71.641C168.094 71.9732 168.031 72.33 168.031 72.7015C168.031 74.4823 169.471 75.9259 171.247 75.9259C171.276 75.9259 171.306 75.9256 171.335 75.9248C171.364 75.9256 171.393 75.9259 171.422 75.9259C173.198 75.9259 174.638 74.4823 174.638 72.7015C174.638 72.33 174.576 71.9732 174.46 71.641L228.33 40.4573L174.46 9.27347ZM173.857 10.3202L225.918 40.4573L173.857 70.5943C173.267 69.9101 172.395 69.4771 171.422 69.4771C171.393 69.4771 171.364 69.4775 171.335 69.4783C171.306 69.4775 171.276 69.4771 171.247 69.4771C170.274 69.4771 169.403 69.9101 168.813 70.5943L116.752 40.4573L168.813 10.3202C169.403 11.0044 170.274 11.4374 171.247 11.4374C171.276 11.4374 171.306 11.437 171.335 11.4362C171.364 11.437 171.393 11.4374 171.422 11.4374C172.395 11.4374 173.267 11.0044 173.857 10.3202Z" fill="#FFD28E"/>
<path d="M112.155 40.4573C112.155 42.2381 113.595 43.6817 115.371 43.6817C117.147 43.6817 118.587 42.2381 118.587 40.4573C118.587 38.6765 117.147 37.2328 115.371 37.2328C113.595 37.2328 112.155 38.6765 112.155 40.4573Z" fill="#FFD28E"/>
<path d="M168.031 72.7015C168.031 74.4823 169.471 75.9259 171.247 75.9259C173.023 75.9259 174.463 74.4823 174.463 72.7015C174.463 70.9207 173.023 69.4771 171.247 69.4771C169.471 69.4771 168.031 70.9207 168.031 72.7015Z" fill="#FFD28E"/>
<path d="M223.908 40.4573C223.908 42.2381 225.348 43.6817 227.124 43.6817C228.9 43.6817 230.34 42.2381 230.34 40.4573C230.34 38.6765 228.9 37.2328 227.124 37.2328C225.348 37.2328 223.908 38.6765 223.908 40.4573Z" fill="#FFD28E"/>
<path d="M168.031 8.21297C168.031 9.99378 169.471 11.4374 171.247 11.4374C173.023 11.4374 174.463 9.99378 174.463 8.21297C174.463 6.43217 173.023 4.98855 171.247 4.98855C169.471 4.98855 168.031 6.43217 168.031 8.21297Z" fill="#FFD28E"/>
<path fill-rule="evenodd" clip-rule="evenodd" d="M174.46 73.359C174.576 73.0268 174.638 72.67 174.638 72.2985C174.638 70.5177 173.198 69.0741 171.422 69.0741C171.393 69.0741 171.364 69.0744 171.335 69.0752C171.306 69.0744 171.276 69.0741 171.247 69.0741C169.471 69.0741 168.031 70.5177 168.031 72.2985C168.031 72.67 168.094 73.0268 168.209 73.359L114.34 104.543L168.209 135.727C168.094 136.059 168.031 136.415 168.031 136.787C168.031 138.568 169.471 140.011 171.247 140.011C171.276 140.011 171.306 140.011 171.335 140.01C171.364 140.011 171.393 140.011 171.422 140.011C173.198 140.011 174.638 138.568 174.638 136.787C174.638 136.415 174.576 136.059 174.46 135.727L228.33 104.543L174.46 73.359ZM173.857 74.4057L225.918 104.543L173.857 134.68C173.267 133.996 172.395 133.563 171.422 133.563C171.393 133.563 171.364 133.563 171.335 133.564C171.306 133.563 171.276 133.563 171.247 133.563C170.274 133.563 169.403 133.996 168.813 134.68L116.752 104.543L168.813 74.4057C169.403 75.0899 170.274 75.5229 171.247 75.5229C171.276 75.5229 171.306 75.5225 171.335 75.5217C171.364 75.5225 171.393 75.5229 171.422 75.5229C172.395 75.5229 173.267 75.0899 173.857 74.4057Z" fill="#FFD28E"/>
<path d="M112.155 104.543C112.155 106.324 113.595 107.767 115.371 107.767C117.147 107.767 118.587 106.324 118.587 104.543C118.587 102.762 117.147 101.318 115.371 101.318C113.595 101.318 112.155 102.762 112.155 104.543Z" fill="#FFD28E"/>
<path d="M168.031 136.787C168.031 138.568 169.471 140.011 171.247 140.011C173.023 140.011 174.463 138.568 174.463 136.787C174.463 135.006 173.023 133.563 171.247 133.563C169.471 133.563 168.031 135.006 168.031 136.787Z" fill="#FFD28E"/>
<path d="M223.908 104.543C223.908 106.324 225.348 107.767 227.124 107.767C228.9 107.767 230.34 106.324 230.34 104.543C230.34 102.762 228.9 101.318 227.124 101.318C225.348 101.318 223.908 102.762 223.908 104.543Z" fill="#FFD28E"/>
<path d="M168.031 72.2985C168.031 74.0793 169.471 75.5229 171.247 75.5229C173.023 75.5229 174.463 74.0793 174.463 72.2985C174.463 70.5177 173.023 69.0741 171.247 69.0741C169.471 69.0741 168.031 70.5177 168.031 72.2985Z" fill="#FFD28E"/>
<path fill-rule="evenodd" clip-rule="evenodd" d="M174.46 -55.2151C174.576 -55.5472 174.638 -55.9041 174.638 -56.2756C174.638 -58.0564 173.198 -59.5 171.422 -59.5C171.393 -59.5 171.364 -59.4996 171.335 -59.4988C171.306 -59.4996 171.276 -59.5 171.247 -59.5C169.471 -59.5 168.031 -58.0564 168.031 -56.2756C168.031 -55.9041 168.094 -55.5472 168.209 -55.2151L114.34 -24.0313L168.209 7.15249C168.094 7.48461 168.031 7.84145 168.031 8.21297C168.031 9.99378 169.471 11.4374 171.247 11.4374C171.276 11.4374 171.306 11.437 171.335 11.4362C171.364 11.437 171.393 11.4374 171.422 11.4374C173.198 11.4374 174.638 9.99377 174.638 8.21297C174.638 7.84145 174.576 7.48461 174.46 7.15249L228.33 -24.0313L174.46 -55.2151ZM173.857 -54.1683L225.918 -24.0313L173.857 6.10574C173.267 5.42153 172.395 4.98855 171.422 4.98855C171.393 4.98855 171.364 4.98895 171.335 4.98972C171.306 4.98895 171.276 4.98855 171.247 4.98855C170.274 4.98855 169.403 5.42153 168.813 6.10574L116.752 -24.0313L168.813 -54.1683C169.403 -53.4841 170.274 -53.0511 171.247 -53.0511C171.276 -53.0511 171.306 -53.0515 171.335 -53.0523C171.364 -53.0515 171.393 -53.0511 171.422 -53.0511C172.395 -53.0511 173.267 -53.4841 173.857 -54.1683Z" fill="#FFD28E"/>
<path d="M112.155 -24.0313C112.155 -22.2505 113.595 -20.8069 115.371 -20.8069C117.147 -20.8069 118.587 -22.2505 118.587 -24.0313C118.587 -25.8121 117.147 -27.2557 115.371 -27.2557C113.595 -27.2557 112.155 -25.8121 112.155 -24.0313Z" fill="#FFD28E"/>
<path d="M168.031 8.21297C168.031 9.99378 169.471 11.4374 171.247 11.4374C173.023 11.4374 174.463 9.99378 174.463 8.21297C174.463 6.43217 173.023 4.98855 171.247 4.98855C169.471 4.98855 168.031 6.43217 168.031 8.21297Z" fill="#FFD28E"/>
<path d="M223.908 -24.0313C223.908 -22.2505 225.348 -20.8069 227.124 -20.8069C228.9 -20.8069 230.34 -22.2505 230.34 -24.0313C230.34 -25.8121 228.9 -27.2557 227.124 -27.2557C225.348 -27.2557 223.908 -25.8121 223.908 -24.0313Z" fill="#FFD28E"/>
<path d="M168.031 -56.2756C168.031 -54.4948 169.471 -53.0511 171.247 -53.0511C173.023 -53.0511 174.463 -54.4948 174.463 -56.2756C174.463 -58.0564 173.023 -59.5 171.247 -59.5C169.471 -59.5 168.031 -58.0564 168.031 -56.2756Z" fill="#FFD28E"/>
<path fill-rule="evenodd" clip-rule="evenodd" d="M398.368 137.848C398.483 137.515 398.546 137.159 398.546 136.787C398.546 135.006 397.106 133.563 395.33 133.563C395.301 133.563 395.272 133.563 395.242 133.564C395.213 133.563 395.184 133.563 395.155 133.563C393.379 133.563 391.939 135.006 391.939 136.787C391.939 137.159 392.002 137.515 392.117 137.848L338.248 169.031L392.117 200.215C392.002 200.547 391.939 200.904 391.939 201.276C391.939 203.056 393.379 204.5 395.155 204.5C395.184 204.5 395.213 204.5 395.242 204.499C395.272 204.5 395.301 204.5 395.33 204.5C397.106 204.5 398.546 203.056 398.546 201.276C398.546 200.904 398.483 200.547 398.368 200.215L452.237 169.031L398.368 137.848ZM397.764 138.894L449.825 169.031L397.764 199.168C397.175 198.484 396.303 198.051 395.33 198.051C395.301 198.051 395.272 198.052 395.242 198.052C395.213 198.052 395.184 198.051 395.155 198.051C394.182 198.051 393.31 198.484 392.721 199.168L340.66 169.031L392.721 138.894C393.31 139.578 394.182 140.011 395.155 140.011C395.184 140.011 395.213 140.011 395.242 140.01C395.272 140.011 395.301 140.011 395.33 140.011C396.303 140.011 397.175 139.578 397.764 138.894Z" fill="#FFD28E"/>
<path d="M336.062 169.031C336.062 170.812 337.502 172.256 339.278 172.256C341.055 172.256 342.494 170.812 342.494 169.031C342.494 167.25 341.055 165.807 339.278 165.807C337.502 165.807 336.062 167.25 336.062 169.031Z" fill="#FFD28E"/>
<path d="M391.939 201.276C391.939 203.056 393.379 204.5 395.155 204.5C396.931 204.5 398.371 203.056 398.371 201.276C398.371 199.495 396.931 198.051 395.155 198.051C393.379 198.051 391.939 199.495 391.939 201.276Z" fill="#FFD28E"/>
<path d="M447.815 169.031C447.815 170.812 449.255 172.256 451.031 172.256C452.807 172.256 454.247 170.812 454.247 169.031C454.247 167.25 452.807 165.807 451.031 165.807C449.255 165.807 447.815 167.25 447.815 169.031Z" fill="#FFD28E"/>
<path d="M391.939 136.787C391.939 138.568 393.379 140.011 395.155 140.011C396.931 140.011 398.371 138.568 398.371 136.787C398.371 135.006 396.931 133.563 395.155 133.563C393.379 133.563 391.939 135.006 391.939 136.787Z" fill="#FFD28E"/>
<path fill-rule="evenodd" clip-rule="evenodd" d="M398.368 9.27347C398.483 8.94135 398.546 8.5845 398.546 8.21297C398.546 6.43217 397.106 4.98855 395.33 4.98855C395.301 4.98855 395.272 4.98895 395.242 4.98972C395.213 4.98895 395.184 4.98855 395.155 4.98855C393.379 4.98855 391.939 6.43217 391.939 8.21297C391.939 8.5845 392.002 8.94135 392.117 9.27347L338.248 40.4573L392.117 71.641C392.002 71.9732 391.939 72.33 391.939 72.7015C391.939 74.4823 393.379 75.9259 395.155 75.9259C395.184 75.9259 395.213 75.9256 395.242 75.9248C395.272 75.9256 395.301 75.9259 395.33 75.9259C397.106 75.9259 398.546 74.4823 398.546 72.7015C398.546 72.33 398.483 71.9732 398.368 71.641L452.237 40.4573L398.368 9.27347ZM397.764 10.3202L449.825 40.4573L397.764 70.5943C397.175 69.9101 396.303 69.4771 395.33 69.4771C395.301 69.4771 395.272 69.4775 395.242 69.4783C395.213 69.4775 395.184 69.4771 395.155 69.4771C394.182 69.4771 393.31 69.9101 392.721 70.5943L340.66 40.4573L392.721 10.3202C393.31 11.0044 394.182 11.4374 395.155 11.4374C395.184 11.4374 395.213 11.437 395.242 11.4362C395.272 11.437 395.301 11.4374 395.33 11.4374C396.303 11.4374 397.175 11.0044 397.764 10.3202Z" fill="#FFD28E"/>
<path d="M336.062 40.4573C336.062 42.2381 337.502 43.6817 339.278 43.6817C341.055 43.6817 342.494 42.2381 342.494 40.4573C342.494 38.6765 341.055 37.2328 339.278 37.2328C337.502 37.2328 336.062 38.6765 336.062 40.4573Z" fill="#FFD28E"/>
<path d="M391.939 72.7015C391.939 74.4823 393.379 75.9259 395.155 75.9259C396.931 75.9259 398.371 74.4823 398.371 72.7015C398.371 70.9207 396.931 69.4771 395.155 69.4771C393.379 69.4771 391.939 70.9207 391.939 72.7015Z" fill="#FFD28E"/>
<path d="M447.815 40.4573C447.815 42.2381 449.255 43.6817 451.031 43.6817C452.807 43.6817 454.247 42.2381 454.247 40.4573C454.247 38.6765 452.807 37.2328 451.031 37.2328C449.255 37.2328 447.815 38.6765 447.815 40.4573Z" fill="#FFD28E"/>
<path d="M391.939 8.21297C391.939 9.99378 393.379 11.4374 395.155 11.4374C396.931 11.4374 398.371 9.99378 398.371 8.21297C398.371 6.43217 396.931 4.98855 395.155 4.98855C393.379 4.98855 391.939 6.43217 391.939 8.21297Z" fill="#FFD28E"/>
<path fill-rule="evenodd" clip-rule="evenodd" d="M454.244 -22.9708C454.36 -23.3029 454.422 -23.6598 454.422 -24.0313C454.422 -25.8121 452.983 -27.2557 451.206 -27.2557C451.177 -27.2557 451.148 -27.2553 451.119 -27.2546C451.09 -27.2553 451.061 -27.2557 451.031 -27.2557C449.255 -27.2557 447.815 -25.8121 447.815 -24.0313C447.815 -23.6598 447.878 -23.3029 447.993 -22.9708L394.124 8.21297L447.993 39.3968C447.878 39.7289 447.815 40.0857 447.815 40.4573C447.815 42.2381 449.255 43.6817 451.031 43.6817C451.061 43.6817 451.09 43.6813 451.119 43.6805C451.148 43.6813 451.177 43.6817 451.206 43.6817C452.983 43.6817 454.422 42.2381 454.422 40.4573C454.422 40.0857 454.36 39.7289 454.244 39.3968L508.114 8.21297L454.244 -22.9708ZM453.641 -21.9241L505.702 8.21297L453.641 38.35C453.051 37.6658 452.179 37.2328 451.206 37.2328C451.177 37.2328 451.148 37.2332 451.119 37.234C451.09 37.2332 451.061 37.2328 451.031 37.2328C450.059 37.2328 449.187 37.6658 448.597 38.35L396.536 8.21297L448.597 -21.9241C449.187 -21.2398 450.059 -20.8069 451.031 -20.8069C451.061 -20.8069 451.09 -20.8073 451.119 -20.808C451.148 -20.8073 451.177 -20.8069 451.206 -20.8069C452.179 -20.8069 453.051 -21.2398 453.641 -21.9241Z" fill="#FFD28E"/>
<path d="M391.939 8.21297C391.939 9.99378 393.379 11.4374 395.155 11.4374C396.931 11.4374 398.371 9.99378 398.371 8.21297C398.371 6.43217 396.931 4.98855 395.155 4.98855C393.379 4.98855 391.939 6.43217 391.939 8.21297Z" fill="#FFD28E"/>
<path d="M447.815 40.4573C447.815 42.2381 449.255 43.6817 451.031 43.6817C452.807 43.6817 454.247 42.2381 454.247 40.4573C454.247 38.6765 452.807 37.2328 451.031 37.2328C449.255 37.2328 447.815 38.6765 447.815 40.4573Z" fill="#FFD28E"/>
<path d="M503.692 8.21297C503.692 9.99378 505.132 11.4374 506.908 11.4374C508.684 11.4374 510.124 9.99378 510.124 8.21297C510.124 6.43217 508.684 4.98855 506.908 4.98855C505.132 4.98855 503.692 6.43217 503.692 8.21297Z" fill="#FFD28E"/>
<path d="M447.815 -24.0313C447.815 -22.2505 449.255 -20.8069 451.031 -20.8069C452.807 -20.8069 454.247 -22.2505 454.247 -24.0313C454.247 -25.8121 452.807 -27.2557 451.031 -27.2557C449.255 -27.2557 447.815 -25.8121 447.815 -24.0313Z" fill="#FFD28E"/>
<path fill-rule="evenodd" clip-rule="evenodd" d="M510.121 8.87041C510.236 8.53829 510.299 8.18144 510.299 7.80992C510.299 6.02912 508.859 4.58549 507.083 4.58549C507.054 4.58549 507.024 4.58589 506.995 4.58667C506.966 4.58589 506.937 4.58549 506.908 4.58549C505.132 4.58549 503.692 6.02912 503.692 7.80992C503.692 8.18144 503.754 8.53829 503.87 8.87041L450.001 40.0542L503.87 71.238C503.754 71.5701 503.692 71.927 503.692 72.2985C503.692 74.0793 505.132 75.5229 506.908 75.5229C506.937 75.5229 506.966 75.5225 506.995 75.5217C507.024 75.5225 507.054 75.5229 507.083 75.5229C508.859 75.5229 510.299 74.0793 510.299 72.2985C510.299 71.927 510.236 71.5701 510.121 71.238L563.99 40.0542L510.121 8.87041ZM509.517 9.91715L561.578 40.0542L509.517 70.1913C508.927 69.507 508.056 69.0741 507.083 69.0741C507.054 69.0741 507.024 69.0744 506.995 69.0752C506.966 69.0744 506.937 69.0741 506.908 69.0741C505.935 69.0741 505.063 69.507 504.473 70.1913L452.412 40.0542L504.473 9.91715C505.063 10.6014 505.935 11.0343 506.908 11.0343C506.937 11.0343 506.966 11.034 506.995 11.0332C507.024 11.034 507.054 11.0343 507.083 11.0343C508.056 11.0343 508.927 10.6014 509.517 9.91715Z" fill="#FFD28E"/>
<path d="M447.815 40.0542C447.815 41.835 449.255 43.2786 451.031 43.2786C452.807 43.2786 454.247 41.835 454.247 40.0542C454.247 38.2734 452.807 36.8298 451.031 36.8298C449.255 36.8298 447.815 38.2734 447.815 40.0542Z" fill="#FFD28E"/>
<path d="M503.692 72.2985C503.692 74.0793 505.132 75.5229 506.908 75.5229C508.684 75.5229 510.124 74.0793 510.124 72.2985C510.124 70.5177 508.684 69.0741 506.908 69.0741C505.132 69.0741 503.692 70.5177 503.692 72.2985Z" fill="#FFD28E"/>
<path d="M559.568 40.0542C559.568 41.835 561.008 43.2786 562.784 43.2786C564.56 43.2786 566 41.835 566 40.0542C566 38.2734 564.56 36.8298 562.784 36.8298C561.008 36.8298 559.568 38.2734 559.568 40.0542Z" fill="#FFD28E"/>
<path d="M503.692 7.80992C503.692 9.59073 505.132 11.0343 506.908 11.0343C508.684 11.0343 510.124 9.59073 510.124 7.80992C510.124 6.02912 508.684 4.58549 506.908 4.58549C505.132 4.58549 503.692 6.02912 503.692 7.80992Z" fill="#FFD28E"/>
<path fill-rule="evenodd" clip-rule="evenodd" d="M55.8792 9.27347C55.7639 8.94135 55.7012 8.5845 55.7012 8.21297C55.7012 6.43217 57.141 4.98855 58.9171 4.98855C58.9464 4.98855 58.9756 4.98895 59.0047 4.98972C59.0338 4.98895 59.063 4.98855 59.0923 4.98855C60.8684 4.98855 62.3083 6.43217 62.3083 8.21297C62.3083 8.5845 62.2456 8.94135 62.1303 9.27347L115.999 40.4573L62.1303 71.641C62.2456 71.9732 62.3083 72.33 62.3083 72.7015C62.3083 74.4823 60.8684 75.9259 59.0923 75.9259C59.063 75.9259 59.0338 75.9256 59.0047 75.9248C58.9756 75.9256 58.9464 75.9259 58.9171 75.9259C57.141 75.9259 55.7012 74.4823 55.7012 72.7015C55.7012 72.33 55.7639 71.9732 55.8792 71.641L2.00995 40.4573L55.8792 9.27347ZM56.4828 10.3202L4.42188 40.4573L56.4829 70.5943C57.0726 69.9101 57.9444 69.4771 58.9171 69.4771C58.9464 69.4771 58.9756 69.4775 59.0047 69.4783C59.0338 69.4775 59.063 69.4771 59.0923 69.4771C60.065 69.4771 60.9369 69.9101 61.5266 70.5943L113.588 40.4573L61.5266 10.3202C60.9369 11.0044 60.065 11.4374 59.0923 11.4374C59.063 11.4374 59.0338 11.437 59.0047 11.4362C58.9756 11.437 58.9464 11.4374 58.9171 11.4374C57.9444 11.4374 57.0726 11.0044 56.4828 10.3202Z" fill="#FFD28E"/>
<path d="M118.185 40.4573C118.185 42.2381 116.745 43.6817 114.969 43.6817C113.193 43.6817 111.753 42.2381 111.753 40.4573C111.753 38.6765 113.193 37.2328 114.969 37.2328C116.745 37.2328 118.185 38.6765 118.185 40.4573Z" fill="#FFD28E"/>
<path d="M62.3083 72.7015C62.3083 74.4823 60.8684 75.9259 59.0923 75.9259C57.3163 75.9259 55.8764 74.4823 55.8764 72.7015C55.8764 70.9207 57.3163 69.4771 59.0923 69.4771C60.8684 69.4771 62.3083 70.9207 62.3083 72.7015Z" fill="#FFD28E"/>
<path d="M6.43182 40.4573C6.43182 42.2381 4.992 43.6817 3.21594 43.6817C1.43982 43.6817 0 42.2381 0 40.4573C0 38.6765 1.43982 37.2328 3.21594 37.2328C4.992 37.2328 6.43182 38.6765 6.43182 40.4573Z" fill="#FFD28E"/>
<path d="M62.3083 8.21297C62.3083 9.99378 60.8684 11.4374 59.0923 11.4374C57.3163 11.4374 55.8764 9.99378 55.8764 8.21297C55.8764 6.43217 57.3163 4.98855 59.0923 4.98855C60.8684 4.98855 62.3083 6.43217 62.3083 8.21297Z" fill="#FFD28E"/>
<path fill-rule="evenodd" clip-rule="evenodd" d="M510.121 73.359C510.236 73.0268 510.299 72.67 510.299 72.2985C510.299 70.5177 508.859 69.0741 507.083 69.0741C507.054 69.0741 507.024 69.0744 506.995 69.0752C506.966 69.0744 506.937 69.0741 506.908 69.0741C505.132 69.0741 503.692 70.5177 503.692 72.2985C503.692 72.67 503.754 73.0268 503.87 73.359L450.001 104.543L503.87 135.727C503.754 136.059 503.692 136.415 503.692 136.787C503.692 138.568 505.132 140.011 506.908 140.011C506.937 140.011 506.966 140.011 506.995 140.01C507.024 140.011 507.054 140.011 507.083 140.011C508.859 140.011 510.299 138.568 510.299 136.787C510.299 136.415 510.236 136.059 510.121 135.727L563.99 104.543L510.121 73.359ZM509.517 74.4057L561.578 104.543L509.517 134.68C508.927 133.996 508.056 133.563 507.083 133.563C507.054 133.563 507.024 133.563 506.995 133.564C506.966 133.563 506.937 133.563 506.908 133.563C505.935 133.563 505.063 133.996 504.473 134.68L452.412 104.543L504.473 74.4057C505.063 75.0899 505.935 75.5229 506.908 75.5229C506.937 75.5229 506.966 75.5225 506.995 75.5217C507.024 75.5225 507.054 75.5229 507.083 75.5229C508.056 75.5229 508.927 75.0899 509.517 74.4057Z" fill="#FFD28E"/>
<path d="M447.815 104.543C447.815 106.324 449.255 107.767 451.031 107.767C452.807 107.767 454.247 106.324 454.247 104.543C454.247 102.762 452.807 101.318 451.031 101.318C449.255 101.318 447.815 102.762 447.815 104.543Z" fill="#FFD28E"/>
<path d="M503.692 136.787C503.692 138.568 505.132 140.011 506.908 140.011C508.684 140.011 510.124 138.568 510.124 136.787C510.124 135.006 508.684 133.563 506.908 133.563C505.132 133.563 503.692 135.006 503.692 136.787Z" fill="#FFD28E"/>
<path d="M559.568 104.543C559.568 106.324 561.008 107.767 562.784 107.767C564.56 107.767 566 106.324 566 104.543C566 102.762 564.56 101.318 562.784 101.318C561.008 101.318 559.568 102.762 559.568 104.543Z" fill="#FFD28E"/>
<path d="M503.692 72.2985C503.692 74.0793 505.132 75.5229 506.908 75.5229C508.684 75.5229 510.124 74.0793 510.124 72.2985C510.124 70.5177 508.684 69.0741 506.908 69.0741C505.132 69.0741 503.692 70.5177 503.692 72.2985Z" fill="#FFD28E"/>
<path fill-rule="evenodd" clip-rule="evenodd" d="M55.8792 73.762C55.7639 73.4299 55.7012 73.073 55.7012 72.7015C55.7012 70.9207 57.141 69.4771 58.9171 69.4771C58.9464 69.4771 58.9756 69.4775 59.0047 69.4783C59.0338 69.4775 59.063 69.4771 59.0923 69.4771C60.8684 69.4771 62.3083 70.9207 62.3083 72.7015C62.3083 73.073 62.2456 73.4299 62.1303 73.762L115.999 104.946L62.1303 136.13C62.2456 136.462 62.3083 136.819 62.3083 137.19C62.3083 138.971 60.8684 140.415 59.0923 140.415C59.063 140.415 59.0338 140.414 59.0047 140.413C58.9756 140.414 58.9464 140.415 58.9171 140.415C57.141 140.415 55.7012 138.971 55.7012 137.19C55.7012 136.819 55.7639 136.462 55.8792 136.13L2.00995 104.946L55.8792 73.762ZM56.4828 74.8087L4.42188 104.946L56.4829 135.083C57.0726 134.399 57.9444 133.966 58.9171 133.966C58.9464 133.966 58.9756 133.966 59.0047 133.967C59.0338 133.966 59.063 133.966 59.0923 133.966C60.065 133.966 60.9369 134.399 61.5266 135.083L113.588 104.946L61.5266 74.8087C60.9369 75.493 60.065 75.9259 59.0923 75.9259C59.063 75.9259 59.0338 75.9256 59.0047 75.9248C58.9756 75.9256 58.9464 75.9259 58.9171 75.9259C57.9444 75.9259 57.0726 75.493 56.4828 74.8087Z" fill="#FFD28E"/>
<path d="M118.185 104.946C118.185 106.727 116.745 108.17 114.969 108.17C113.193 108.17 111.753 106.727 111.753 104.946C111.753 103.165 113.193 101.721 114.969 101.721C116.745 101.721 118.185 103.165 118.185 104.946Z" fill="#FFD28E"/>
<path d="M62.3083 137.19C62.3083 138.971 60.8684 140.415 59.0923 140.415C57.3163 140.415 55.8764 138.971 55.8764 137.19C55.8764 135.409 57.3163 133.966 59.0923 133.966C60.8684 133.966 62.3083 135.409 62.3083 137.19Z" fill="#FFD28E"/>
<path d="M6.43182 104.946C6.43182 106.727 4.992 108.17 3.21594 108.17C1.43982 108.17 0 106.727 0 104.946C0 103.165 1.43982 101.721 3.21594 101.721C4.992 101.721 6.43182 103.165 6.43182 104.946Z" fill="#FFD28E"/>
<path d="M62.3083 72.7015C62.3083 74.4823 60.8684 75.9259 59.0923 75.9259C57.3163 75.9259 55.8764 74.4823 55.8764 72.7015C55.8764 70.9207 57.3163 69.4771 59.0923 69.4771C60.8684 69.4771 62.3083 70.9207 62.3083 72.7015Z" fill="#FFD28E"/>
<path fill-rule="evenodd" clip-rule="evenodd" d="M454.244 41.1147C454.36 40.7826 454.422 40.4257 454.422 40.0542C454.422 38.2734 452.983 36.8298 451.206 36.8298C451.177 36.8298 451.148 36.8302 451.119 36.8309C451.09 36.8302 451.061 36.8298 451.031 36.8298C449.255 36.8298 447.815 38.2734 447.815 40.0542C447.815 40.4257 447.878 40.7826 447.993 41.1147L394.124 72.2985L447.993 103.482C447.878 103.814 447.815 104.171 447.815 104.543C447.815 106.324 449.255 107.767 451.031 107.767C451.061 107.767 451.09 107.767 451.119 107.766C451.148 107.767 451.177 107.767 451.206 107.767C452.983 107.767 454.422 106.324 454.422 104.543C454.422 104.171 454.36 103.814 454.244 103.482L508.114 72.2985L454.244 41.1147ZM453.641 42.1614L505.702 72.2985L453.641 102.436C453.051 101.751 452.179 101.318 451.206 101.318C451.177 101.318 451.148 101.319 451.119 101.32C451.09 101.319 451.061 101.318 451.031 101.318C450.059 101.318 449.187 101.751 448.597 102.436L396.536 72.2985L448.597 42.1614C449.187 42.8456 450.059 43.2786 451.031 43.2786C451.061 43.2786 451.09 43.2782 451.119 43.2775C451.148 43.2782 451.177 43.2786 451.206 43.2786C452.179 43.2786 453.051 42.8456 453.641 42.1614Z" fill="#FFD28E"/>
<path d="M391.939 72.2985C391.939 74.0793 393.379 75.5229 395.155 75.5229C396.931 75.5229 398.371 74.0793 398.371 72.2985C398.371 70.5177 396.931 69.0741 395.155 69.0741C393.379 69.0741 391.939 70.5177 391.939 72.2985Z" fill="#FFD28E"/>
<path d="M447.815 104.543C447.815 106.324 449.255 107.767 451.031 107.767C452.807 107.767 454.247 106.324 454.247 104.543C454.247 102.762 452.807 101.318 451.031 101.318C449.255 101.318 447.815 102.762 447.815 104.543Z" fill="#FFD28E"/>
<path d="M503.692 72.2985C503.692 74.0793 505.132 75.5229 506.908 75.5229C508.684 75.5229 510.124 74.0793 510.124 72.2985C510.124 70.5177 508.684 69.0741 506.908 69.0741C505.132 69.0741 503.692 70.5177 503.692 72.2985Z" fill="#FFD28E"/>
<path d="M447.815 40.0542C447.815 41.835 449.255 43.2786 451.031 43.2786C452.807 43.2786 454.247 41.835 454.247 40.0542C454.247 38.2734 452.807 36.8298 451.031 36.8298C449.255 36.8298 447.815 38.2734 447.815 40.0542Z" fill="#FFD28E"/>
<path fill-rule="evenodd" clip-rule="evenodd" d="M454.244 105.603C454.36 105.271 454.422 104.914 454.422 104.543C454.422 102.762 452.983 101.318 451.206 101.318C451.177 101.318 451.148 101.319 451.119 101.32C451.09 101.319 451.061 101.318 451.031 101.318C449.255 101.318 447.815 102.762 447.815 104.543C447.815 104.914 447.878 105.271 447.993 105.603L394.124 136.787L447.993 167.971C447.878 168.303 447.815 168.66 447.815 169.031C447.815 170.812 449.255 172.256 451.031 172.256C451.061 172.256 451.09 172.255 451.119 172.255C451.148 172.255 451.177 172.256 451.206 172.256C452.983 172.256 454.422 170.812 454.422 169.031C454.422 168.66 454.36 168.303 454.244 167.971L508.114 136.787L454.244 105.603ZM453.641 106.65L505.702 136.787L453.641 166.924C453.051 166.24 452.179 165.807 451.206 165.807C451.177 165.807 451.148 165.807 451.119 165.808C451.09 165.807 451.061 165.807 451.031 165.807C450.059 165.807 449.187 166.24 448.597 166.924L396.536 136.787L448.597 106.65C449.187 107.334 450.059 107.767 451.031 107.767C451.061 107.767 451.09 107.767 451.119 107.766C451.148 107.767 451.177 107.767 451.206 107.767C452.179 107.767 453.051 107.334 453.641 106.65Z" fill="#FFD28E"/>
<path d="M391.939 136.787C391.939 138.568 393.379 140.011 395.155 140.011C396.931 140.011 398.371 138.568 398.371 136.787C398.371 135.006 396.931 133.563 395.155 133.563C393.379 133.563 391.939 135.006 391.939 136.787Z" fill="#FFD28E"/>
<path d="M447.815 169.031C447.815 170.812 449.255 172.256 451.031 172.256C452.807 172.256 454.247 170.812 454.247 169.031C454.247 167.25 452.807 165.807 451.031 165.807C449.255 165.807 447.815 167.25 447.815 169.031Z" fill="#FFD28E"/>
<path d="M503.692 136.787C503.692 138.568 505.132 140.011 506.908 140.011C508.684 140.011 510.124 138.568 510.124 136.787C510.124 135.006 508.684 133.563 506.908 133.563C505.132 133.563 503.692 135.006 503.692 136.787Z" fill="#FFD28E"/>
<path d="M447.815 104.543C447.815 106.324 449.255 107.767 451.031 107.767C452.807 107.767 454.247 106.324 454.247 104.543C454.247 102.762 452.807 101.318 451.031 101.318C449.255 101.318 447.815 102.762 447.815 104.543Z" fill="#FFD28E"/>
<path fill-rule="evenodd" clip-rule="evenodd" d="M398.368 73.359C398.483 73.0268 398.546 72.67 398.546 72.2985C398.546 70.5177 397.106 69.0741 395.33 69.0741C395.301 69.0741 395.272 69.0744 395.242 69.0752C395.213 69.0744 395.184 69.0741 395.155 69.0741C393.379 69.0741 391.939 70.5177 391.939 72.2985C391.939 72.67 392.002 73.0268 392.117 73.359L338.248 104.543L392.117 135.727C392.002 136.059 391.939 136.415 391.939 136.787C391.939 138.568 393.379 140.011 395.155 140.011C395.184 140.011 395.213 140.011 395.242 140.01C395.272 140.011 395.301 140.011 395.33 140.011C397.106 140.011 398.546 138.568 398.546 136.787C398.546 136.415 398.483 136.059 398.368 135.727L452.237 104.543L398.368 73.359ZM397.764 74.4057L449.825 104.543L397.764 134.68C397.175 133.996 396.303 133.563 395.33 133.563C395.301 133.563 395.272 133.563 395.242 133.564C395.213 133.563 395.184 133.563 395.155 133.563C394.182 133.563 393.31 133.996 392.721 134.68L340.66 104.543L392.721 74.4057C393.31 75.0899 394.182 75.5229 395.155 75.5229C395.184 75.5229 395.213 75.5225 395.242 75.5217C395.272 75.5225 395.301 75.5229 395.33 75.5229C396.303 75.5229 397.175 75.0899 397.764 74.4057Z" fill="#FFD28E"/>
<path d="M336.062 104.543C336.062 106.324 337.502 107.767 339.278 107.767C341.055 107.767 342.494 106.324 342.494 104.543C342.494 102.762 341.055 101.318 339.278 101.318C337.502 101.318 336.062 102.762 336.062 104.543Z" fill="#FFD28E"/>
<path d="M391.939 136.787C391.939 138.568 393.379 140.011 395.155 140.011C396.931 140.011 398.371 138.568 398.371 136.787C398.371 135.006 396.931 133.563 395.155 133.563C393.379 133.563 391.939 135.006 391.939 136.787Z" fill="#FFD28E"/>
<path d="M447.815 104.543C447.815 106.324 449.255 107.767 451.031 107.767C452.807 107.767 454.247 106.324 454.247 104.543C454.247 102.762 452.807 101.318 451.031 101.318C449.255 101.318 447.815 102.762 447.815 104.543Z" fill="#FFD28E"/>
<path d="M391.939 72.2985C391.939 74.0793 393.379 75.5229 395.155 75.5229C396.931 75.5229 398.371 74.0793 398.371 72.2985C398.371 70.5177 396.931 69.0741 395.155 69.0741C393.379 69.0741 391.939 70.5177 391.939 72.2985Z" fill="#FFD28E"/>
<path fill-rule="evenodd" clip-rule="evenodd" d="M398.368 -55.2151C398.483 -55.5472 398.546 -55.9041 398.546 -56.2756C398.546 -58.0564 397.106 -59.5 395.33 -59.5C395.301 -59.5 395.272 -59.4996 395.242 -59.4988C395.213 -59.4996 395.184 -59.5 395.155 -59.5C393.379 -59.5 391.939 -58.0564 391.939 -56.2756C391.939 -55.9041 392.002 -55.5472 392.117 -55.2151L338.248 -24.0313L392.117 7.15249C392.002 7.48461 391.939 7.84145 391.939 8.21297C391.939 9.99378 393.379 11.4374 395.155 11.4374C395.184 11.4374 395.213 11.437 395.242 11.4362C395.272 11.437 395.301 11.4374 395.33 11.4374C397.106 11.4374 398.546 9.99377 398.546 8.21297C398.546 7.84145 398.483 7.48461 398.368 7.15249L452.237 -24.0313L398.368 -55.2151ZM397.764 -54.1683L449.825 -24.0313L397.764 6.10574C397.175 5.42153 396.303 4.98855 395.33 4.98855C395.301 4.98855 395.272 4.98895 395.242 4.98972C395.213 4.98895 395.184 4.98855 395.155 4.98855C394.182 4.98855 393.31 5.42153 392.721 6.10574L340.66 -24.0313L392.721 -54.1683C393.31 -53.4841 394.182 -53.0511 395.155 -53.0511C395.184 -53.0511 395.213 -53.0515 395.242 -53.0523C395.272 -53.0515 395.301 -53.0511 395.33 -53.0511C396.303 -53.0511 397.175 -53.4841 397.764 -54.1683Z" fill="#FFD28E"/>
<path d="M336.062 -24.0313C336.062 -22.2505 337.502 -20.8069 339.278 -20.8069C341.055 -20.8069 342.494 -22.2505 342.494 -24.0313C342.494 -25.8121 341.055 -27.2557 339.278 -27.2557C337.502 -27.2557 336.062 -25.8121 336.062 -24.0313Z" fill="#FFD28E"/>
<path d="M391.939 8.21297C391.939 9.99378 393.379 11.4374 395.155 11.4374C396.931 11.4374 398.371 9.99378 398.371 8.21297C398.371 6.43217 396.931 4.98855 395.155 4.98855C393.379 4.98855 391.939 6.43217 391.939 8.21297Z" fill="#FFD28E"/>
<path d="M447.815 -24.0313C447.815 -22.2505 449.255 -20.8069 451.031 -20.8069C452.807 -20.8069 454.247 -22.2505 454.247 -24.0313C454.247 -25.8121 452.807 -27.2557 451.031 -27.2557C449.255 -27.2557 447.815 -25.8121 447.815 -24.0313Z" fill="#FFD28E"/>
<path d="M391.939 -56.2756C391.939 -54.4948 393.379 -53.0511 395.155 -53.0511C396.931 -53.0511 398.371 -54.4948 398.371 -56.2756C398.371 -58.0564 396.931 -59.5 395.155 -59.5C393.379 -59.5 391.939 -58.0564 391.939 -56.2756Z" fill="#FFD28E"/>
<path fill-rule="evenodd" clip-rule="evenodd" d="M286.213 137.848C286.328 137.515 286.391 137.159 286.391 136.787C286.391 135.006 284.951 133.563 283.175 133.563C283.146 133.563 283.117 133.563 283.088 133.564C283.059 133.563 283.029 133.563 283 133.563C281.224 133.563 279.784 135.006 279.784 136.787C279.784 137.159 279.847 137.515 279.962 137.848L226.093 169.031L279.962 200.215C279.847 200.547 279.784 200.904 279.784 201.276C279.784 203.056 281.224 204.5 283 204.5C283.029 204.5 283.059 204.5 283.088 204.499C283.117 204.5 283.146 204.5 283.175 204.5C284.951 204.5 286.391 203.056 286.391 201.276C286.391 200.904 286.328 200.547 286.213 200.215L340.082 169.031L286.213 137.848ZM285.609 138.894L337.67 169.031L285.609 199.168C285.02 198.484 284.148 198.051 283.175 198.051C283.146 198.051 283.117 198.052 283.088 198.052C283.059 198.052 283.029 198.051 283 198.051C282.027 198.051 281.156 198.484 280.566 199.168L228.505 169.031L280.566 138.894C281.156 139.578 282.027 140.011 283 140.011C283.029 140.011 283.059 140.011 283.088 140.01C283.117 140.011 283.146 140.011 283.175 140.011C284.148 140.011 285.02 139.578 285.609 138.894Z" fill="#FFD28E"/>
<path d="M223.908 169.031C223.908 170.812 225.348 172.256 227.124 172.256C228.9 172.256 230.34 170.812 230.34 169.031C230.34 167.25 228.9 165.807 227.124 165.807C225.348 165.807 223.908 167.25 223.908 169.031Z" fill="#FFD28E"/>
<path d="M279.784 201.276C279.784 203.056 281.224 204.5 283 204.5C284.776 204.5 286.216 203.056 286.216 201.276C286.216 199.495 284.776 198.051 283 198.051C281.224 198.051 279.784 199.495 279.784 201.276Z" fill="#FFD28E"/>
<path d="M335.661 169.031C335.661 170.812 337.1 172.256 338.876 172.256C340.653 172.256 342.092 170.812 342.092 169.031C342.092 167.25 340.653 165.807 338.876 165.807C337.1 165.807 335.661 167.25 335.661 169.031Z" fill="#FFD28E"/>
<path d="M279.784 136.787C279.784 138.568 281.224 140.011 283 140.011C284.776 140.011 286.216 138.568 286.216 136.787C286.216 135.006 284.776 133.563 283 133.563C281.224 133.563 279.784 135.006 279.784 136.787Z" fill="#FFD28E"/>
<path fill-rule="evenodd" clip-rule="evenodd" d="M286.213 9.27347C286.328 8.94135 286.391 8.5845 286.391 8.21297C286.391 6.43217 284.951 4.98855 283.175 4.98855C283.146 4.98855 283.117 4.98895 283.088 4.98972C283.059 4.98895 283.029 4.98855 283 4.98855C281.224 4.98855 279.784 6.43217 279.784 8.21297C279.784 8.5845 279.847 8.94135 279.962 9.27347L226.093 40.4573L279.962 71.641C279.847 71.9732 279.784 72.33 279.784 72.7015C279.784 74.4823 281.224 75.9259 283 75.9259C283.029 75.9259 283.059 75.9256 283.088 75.9248C283.117 75.9256 283.146 75.9259 283.175 75.9259C284.951 75.9259 286.391 74.4823 286.391 72.7015C286.391 72.33 286.328 71.9732 286.213 71.641L340.082 40.4573L286.213 9.27347ZM285.609 10.3202L337.67 40.4573L285.609 70.5943C285.02 69.9101 284.148 69.4771 283.175 69.4771C283.146 69.4771 283.117 69.4775 283.088 69.4783C283.059 69.4775 283.029 69.4771 283 69.4771C282.027 69.4771 281.156 69.9101 280.566 70.5943L228.505 40.4573L280.566 10.3202C281.156 11.0044 282.027 11.4374 283 11.4374C283.029 11.4374 283.059 11.437 283.088 11.4362C283.117 11.437 283.146 11.4374 283.175 11.4374C284.148 11.4374 285.02 11.0044 285.609 10.3202Z" fill="#FFD28E"/>
<path d="M223.908 40.4573C223.908 42.2381 225.348 43.6817 227.124 43.6817C228.9 43.6817 230.34 42.2381 230.34 40.4573C230.34 38.6765 228.9 37.2328 227.124 37.2328C225.348 37.2328 223.908 38.6765 223.908 40.4573Z" fill="#FFD28E"/>
<path d="M279.784 72.7015C279.784 74.4823 281.224 75.9259 283 75.9259C284.776 75.9259 286.216 74.4823 286.216 72.7015C286.216 70.9207 284.776 69.4771 283 69.4771C281.224 69.4771 279.784 70.9207 279.784 72.7015Z" fill="#FFD28E"/>
<path d="M335.661 40.4573C335.661 42.2381 337.1 43.6817 338.876 43.6817C340.653 43.6817 342.092 42.2381 342.092 40.4573C342.092 38.6765 340.653 37.2328 338.876 37.2328C337.1 37.2328 335.661 38.6765 335.661 40.4573Z" fill="#FFD28E"/>
<path d="M279.784 8.21297C279.784 9.99378 281.224 11.4374 283 11.4374C284.776 11.4374 286.216 9.99378 286.216 8.21297C286.216 6.43217 284.776 4.98855 283 4.98855C281.224 4.98855 279.784 6.43217 279.784 8.21297Z" fill="#FFD28E"/>
<path fill-rule="evenodd" clip-rule="evenodd" d="M286.213 73.359C286.328 73.0268 286.391 72.67 286.391 72.2985C286.391 70.5177 284.951 69.0741 283.175 69.0741C283.146 69.0741 283.117 69.0744 283.088 69.0752C283.059 69.0744 283.029 69.0741 283 69.0741C281.224 69.0741 279.784 70.5177 279.784 72.2985C279.784 72.67 279.847 73.0268 279.962 73.359L226.093 104.543L279.962 135.727C279.847 136.059 279.784 136.415 279.784 136.787C279.784 138.568 281.224 140.011 283 140.011C283.029 140.011 283.059 140.011 283.088 140.01C283.117 140.011 283.146 140.011 283.175 140.011C284.951 140.011 286.391 138.568 286.391 136.787C286.391 136.415 286.328 136.059 286.213 135.727L340.082 104.543L286.213 73.359ZM285.609 74.4057L337.67 104.543L285.609 134.68C285.02 133.996 284.148 133.563 283.175 133.563C283.146 133.563 283.117 133.563 283.088 133.564C283.059 133.563 283.029 133.563 283 133.563C282.027 133.563 281.156 133.996 280.566 134.68L228.505 104.543L280.566 74.4057C281.156 75.0899 282.027 75.5229 283 75.5229C283.029 75.5229 283.059 75.5225 283.088 75.5217C283.117 75.5225 283.146 75.5229 283.175 75.5229C284.148 75.5229 285.02 75.0899 285.609 74.4057Z" fill="#FFD28E"/>
<path d="M223.908 104.543C223.908 106.324 225.348 107.767 227.124 107.767C228.9 107.767 230.34 106.324 230.34 104.543C230.34 102.762 228.9 101.318 227.124 101.318C225.348 101.318 223.908 102.762 223.908 104.543Z" fill="#FFD28E"/>
<path d="M279.784 136.787C279.784 138.568 281.224 140.011 283 140.011C284.776 140.011 286.216 138.568 286.216 136.787C286.216 135.006 284.776 133.563 283 133.563C281.224 133.563 279.784 135.006 279.784 136.787Z" fill="#FFD28E"/>
<path d="M335.661 104.543C335.661 106.324 337.1 107.767 338.876 107.767C340.653 107.767 342.092 106.324 342.092 104.543C342.092 102.762 340.653 101.318 338.876 101.318C337.1 101.318 335.661 102.762 335.661 104.543Z" fill="#FFD28E"/>
<path d="M279.784 72.2985C279.784 74.0793 281.224 75.5229 283 75.5229C284.776 75.5229 286.216 74.0793 286.216 72.2985C286.216 70.5177 284.776 69.0741 283 69.0741C281.224 69.0741 279.784 70.5177 279.784 72.2985Z" fill="#FFD28E"/>
<path fill-rule="evenodd" clip-rule="evenodd" d="M286.213 -55.2151C286.328 -55.5472 286.391 -55.9041 286.391 -56.2756C286.391 -58.0564 284.951 -59.5 283.175 -59.5C283.146 -59.5 283.117 -59.4996 283.088 -59.4988C283.059 -59.4996 283.029 -59.5 283 -59.5C281.224 -59.5 279.784 -58.0564 279.784 -56.2756C279.784 -55.9041 279.847 -55.5472 279.962 -55.2151L226.093 -24.0313L279.962 7.15249C279.847 7.48461 279.784 7.84145 279.784 8.21297C279.784 9.99378 281.224 11.4374 283 11.4374C283.029 11.4374 283.059 11.437 283.088 11.4362C283.117 11.437 283.146 11.4374 283.175 11.4374C284.951 11.4374 286.391 9.99377 286.391 8.21297C286.391 7.84145 286.328 7.48461 286.213 7.15249L340.082 -24.0313L286.213 -55.2151ZM285.609 -54.1683L337.67 -24.0313L285.609 6.10574C285.02 5.42153 284.148 4.98855 283.175 4.98855C283.146 4.98855 283.117 4.98895 283.088 4.98972C283.059 4.98895 283.029 4.98855 283 4.98855C282.027 4.98855 281.156 5.42153 280.566 6.10574L228.505 -24.0313L280.566 -54.1683C281.156 -53.4841 282.027 -53.0511 283 -53.0511C283.029 -53.0511 283.059 -53.0515 283.088 -53.0523C283.117 -53.0515 283.146 -53.0511 283.175 -53.0511C284.148 -53.0511 285.02 -53.4841 285.609 -54.1683Z" fill="#FFD28E"/>
<path d="M223.908 -24.0313C223.908 -22.2505 225.348 -20.8069 227.124 -20.8069C228.9 -20.8069 230.34 -22.2505 230.34 -24.0313C230.34 -25.8121 228.9 -27.2557 227.124 -27.2557C225.348 -27.2557 223.908 -25.8121 223.908 -24.0313Z" fill="#FFD28E"/>
<path d="M279.784 8.21297C279.784 9.99378 281.224 11.4374 283 11.4374C284.776 11.4374 286.216 9.99378 286.216 8.21297C286.216 6.43217 284.776 4.98855 283 4.98855C281.224 4.98855 279.784 6.43217 279.784 8.21297Z" fill="#FFD28E"/>
<path d="M335.661 -24.0313C335.661 -22.2505 337.1 -20.8069 338.876 -20.8069C340.653 -20.8069 342.092 -22.2505 342.092 -24.0313C342.092 -25.8121 340.653 -27.2557 338.876 -27.2557C337.1 -27.2557 335.661 -25.8121 335.661 -24.0313Z" fill="#FFD28E"/>
<path d="M279.784 -56.2756C279.784 -54.4948 281.224 -53.0511 283 -53.0511C284.776 -53.0511 286.216 -54.4948 286.216 -56.2756C286.216 -58.0564 284.776 -59.5 283 -59.5C281.224 -59.5 279.784 -58.0564 279.784 -56.2756Z" fill="#FFD28E"/>
<path fill-rule="evenodd" clip-rule="evenodd" d="M279.781 296.167C279.781 297.946 281.222 299.389 283.001 299.389C283.027 299.389 283.052 299.388 283.078 299.388C284.031 299.416 284.972 299.019 285.615 298.273L335.915 327.329C335.414 328.762 335.985 330.393 337.346 331.179C337.881 331.488 338.467 331.626 339.041 331.61C339.992 331.636 340.93 331.239 341.57 330.495L391.87 359.551C391.788 359.786 391.733 360.033 391.708 360.289C391.669 360.672 391.698 361.063 391.801 361.444C391.821 361.521 391.844 361.596 391.87 361.671L341.452 390.795C340.861 390.072 339.963 389.611 338.957 389.611C337.178 389.611 335.736 391.053 335.736 392.833C335.736 394.406 336.863 395.716 338.353 395.999V454.112C336.863 454.394 335.736 455.704 335.736 457.277C335.736 459.057 337.178 460.499 338.957 460.499C338.983 460.499 339.01 460.499 339.037 460.498C339.615 460.516 340.205 460.378 340.742 460.068C342.104 459.281 342.674 457.65 342.174 456.218L392.474 427.161C392.714 427.439 392.994 427.669 393.302 427.846C393.688 428.07 394.126 428.216 394.592 428.262C394.973 428.3 395.363 428.271 395.743 428.169C396.126 428.067 396.481 427.896 396.794 427.67C397.174 427.397 397.479 427.053 397.702 426.666C397.925 426.28 398.071 425.842 398.117 425.376C398.155 424.994 398.126 424.603 398.024 424.223C397.922 423.84 397.751 423.485 397.526 423.172C397.253 422.792 396.91 422.487 396.524 422.265C396.217 422.087 395.877 421.958 395.516 421.889V363.805C396.281 363.701 397.002 363.325 397.526 362.717L447.826 391.773C447.326 393.206 447.896 394.837 449.258 395.623C450.798 396.513 452.768 395.985 453.657 394.444C454.237 393.438 454.214 392.25 453.7 391.298L503.178 362.717C504.167 363.867 505.864 364.188 507.226 363.401C508.766 362.512 509.294 360.541 508.405 359C507.515 357.459 505.546 356.931 504.006 357.82C502.644 358.607 502.074 360.238 502.574 361.67L452.923 390.352C452.786 390.238 452.637 390.135 452.478 390.042C451.116 389.256 449.419 389.577 448.43 390.727L398.13 361.67C398.374 360.971 398.363 360.224 398.129 359.551L448.43 330.495C449.419 331.644 451.116 331.966 452.478 331.179C453.813 330.408 454.387 328.826 453.938 327.414L504.385 298.273C505.375 299.422 507.072 299.744 508.434 298.957C508.998 298.631 509.426 298.16 509.699 297.618L559.737 326.523C559.237 327.956 559.807 329.587 561.169 330.374C562.709 331.263 564.679 330.735 565.568 329.194C566.457 327.653 565.93 325.682 564.389 324.793C563.028 324.006 561.331 324.327 560.341 325.477L510.034 296.417C510.084 295.79 509.951 295.141 509.612 294.555C508.723 293.014 506.754 292.486 505.213 293.376C503.852 294.163 503.281 295.794 503.781 297.226L453.363 326.351C452.383 325.146 450.646 324.796 449.258 325.598C447.896 326.385 447.326 328.016 447.826 329.448L397.526 358.505C397.297 358.239 397.019 358.006 396.698 357.82C396.163 357.511 395.576 357.373 395 357.389C394.694 357.381 394.385 357.416 394.083 357.496C393.699 357.599 393.343 357.77 393.029 357.996C392.821 358.146 392.636 358.317 392.474 358.505L342.174 329.448C342.418 328.749 342.407 328.002 342.174 327.329L392.474 298.273C393.464 299.422 395.161 299.744 396.522 298.957C398.063 298.067 398.591 296.097 397.701 294.555C396.812 293.014 394.842 292.486 393.302 293.376C391.94 294.163 391.37 295.794 391.87 297.226L341.571 326.282C341.341 326.016 341.064 325.784 340.742 325.598C340.208 325.289 339.622 325.151 339.047 325.167C338.097 325.141 337.159 325.538 336.519 326.283L286.219 297.226C286.466 296.519 286.452 295.763 286.21 295.084C286.122 294.072 285.558 293.117 284.611 292.57C284.29 292.385 283.95 292.261 283.605 292.195V234.888C285.095 234.605 286.222 233.295 286.222 231.722C286.222 229.943 284.78 228.5 283.001 228.5C281.222 228.5 279.781 229.943 279.781 231.722C279.781 233.295 280.907 234.605 282.397 234.888V292.196C281.698 292.33 281.046 292.694 280.563 293.255L230.263 264.198C230.763 262.766 230.193 261.135 228.831 260.348C227.291 259.459 225.321 259.987 224.432 261.528C223.543 263.069 224.07 265.04 225.611 265.929C226.972 266.716 228.669 266.395 229.659 265.245L279.959 294.301C279.792 294.779 279.744 295.28 279.806 295.763C279.789 295.895 279.781 296.03 279.781 296.167ZM393.302 363.402C393.609 363.58 393.948 363.708 394.308 363.776V421.889C394.275 421.895 394.242 421.902 394.209 421.91L394.191 421.914L394.171 421.919L394.157 421.922C394.121 421.931 394.085 421.94 394.05 421.95C393.678 422.053 393.333 422.221 393.029 422.441C392.65 422.714 392.346 423.057 392.124 423.442C391.9 423.829 391.754 424.267 391.708 424.734C391.669 425.116 391.698 425.507 391.801 425.888C391.821 425.965 391.844 426.041 391.87 426.115L341.57 455.171C341.047 454.563 340.325 454.187 339.561 454.084V395.999C341.051 395.716 342.177 394.406 342.177 392.833C342.177 392.493 342.125 392.166 342.027 391.858L392.474 362.717C392.714 362.995 392.995 363.225 393.302 363.402Z" fill="#FFA26E"/>
</svg>
