<svg width="675" height="315" viewBox="0 0 675 315" fill="none" xmlns="http://www.w3.org/2000/svg">
<path fill-rule="evenodd" clip-rule="evenodd" d="M408.455 119.5C408.455 121.617 406.735 123.333 404.613 123.333C404.582 123.333 404.552 123.333 404.521 123.332C403.384 123.366 402.261 122.893 401.495 122.005L341.488 156.572C342.084 158.277 341.404 160.217 339.78 161.153C339.142 161.52 338.443 161.684 337.758 161.666C336.623 161.697 335.505 161.224 334.741 160.339L274.734 194.906C274.832 195.185 274.898 195.479 274.928 195.784C274.974 196.239 274.939 196.704 274.817 197.158C274.793 197.249 274.765 197.339 274.734 197.427L334.882 232.076C335.587 231.215 336.658 230.666 337.859 230.666C339.981 230.666 341.701 232.382 341.701 234.5C341.701 236.371 340.357 237.929 338.579 238.266V307.4C340.357 307.736 341.701 309.295 341.701 311.166C341.701 313.283 339.981 314.999 337.859 314.999C337.827 314.999 337.795 314.999 337.763 314.998C337.074 315.019 336.37 314.855 335.728 314.486C334.104 313.55 333.424 311.61 334.02 309.906L274.013 275.338C273.728 275.669 273.393 275.942 273.026 276.153C272.565 276.419 272.043 276.593 271.486 276.647C271.032 276.693 270.567 276.658 270.114 276.537C269.657 276.416 269.233 276.213 268.86 275.944C268.406 275.619 268.042 275.209 267.777 274.749C267.51 274.29 267.337 273.77 267.282 273.215C267.236 272.76 267.27 272.296 267.392 271.842C267.514 271.387 267.718 270.965 267.987 270.592C268.312 270.141 268.722 269.778 269.182 269.514C269.548 269.302 269.954 269.148 270.384 269.067V199.966C269.472 199.843 268.611 199.395 267.987 198.672L207.98 233.239C208.576 234.943 207.896 236.884 206.272 237.819C204.434 238.878 202.084 238.25 201.023 236.416C200.331 235.22 200.359 233.806 200.972 232.674L141.946 198.672C140.765 200.04 138.741 200.422 137.116 199.486C135.279 198.428 134.649 196.083 135.71 194.25C136.771 192.416 139.121 191.788 140.958 192.847C142.583 193.782 143.263 195.723 142.666 197.427L201.899 231.548C202.062 231.413 202.24 231.289 202.43 231.18C204.054 230.244 206.079 230.626 207.259 231.994L267.266 197.427C266.975 196.595 266.988 195.706 267.267 194.906L207.259 160.339C206.079 161.706 204.054 162.089 202.43 161.153C200.837 160.236 200.152 158.353 200.688 156.674L140.505 122.005C139.325 123.373 137.3 123.755 135.676 122.82C135.002 122.432 134.491 121.871 134.166 121.227L74.4716 155.614C75.0684 157.318 74.3879 159.259 72.7636 160.194C70.926 161.253 68.5763 160.625 67.5154 158.791C66.4544 156.958 67.084 154.614 68.9216 153.555C70.546 152.619 72.5705 153.002 73.7513 154.369L133.766 119.798C133.707 119.051 133.866 118.28 134.269 117.583C135.33 115.75 137.68 115.122 139.518 116.18C141.142 117.116 141.822 119.056 141.226 120.76L201.374 155.409C202.544 153.975 204.616 153.559 206.272 154.513C207.896 155.449 208.576 157.389 207.98 159.094L267.986 193.661C268.26 193.344 268.591 193.067 268.974 192.847C269.613 192.479 270.313 192.315 271 192.334C271.365 192.324 271.733 192.365 272.094 192.461C272.552 192.583 272.977 192.787 273.351 193.056C273.599 193.234 273.821 193.438 274.014 193.661L334.02 159.094C333.729 158.262 333.742 157.373 334.021 156.573L274.013 122.005C272.833 123.373 270.808 123.755 269.184 122.82C267.346 121.761 266.717 119.417 267.777 117.583C268.838 115.75 271.188 115.122 273.026 116.18C274.65 117.116 275.33 119.056 274.734 120.76L334.74 155.327C335.014 155.011 335.345 154.734 335.728 154.513C336.366 154.146 337.065 153.982 337.75 154.001C338.885 153.97 340.003 154.442 340.767 155.328L400.774 120.76C400.48 119.919 400.496 119.019 400.785 118.212C400.89 117.008 401.563 115.872 402.692 115.222C403.075 115.001 403.481 114.853 403.892 114.775V46.5994C402.115 46.2629 400.771 44.7047 400.771 42.8333C400.771 40.7162 402.491 39 404.613 39C406.735 39 408.455 40.7162 408.455 42.8333C408.455 44.7047 407.111 46.2629 405.333 46.5994V114.776C406.167 114.935 406.945 115.368 407.521 116.036L467.528 81.4688C466.932 79.7647 467.612 77.8242 469.236 76.8885C471.074 75.8299 473.424 76.4581 474.485 78.2916C475.546 80.125 474.916 82.4695 473.078 83.528C471.454 84.4637 469.43 84.0814 468.249 82.7137L408.242 117.281C408.441 117.85 408.498 118.445 408.425 119.02C408.445 119.177 408.455 119.337 408.455 119.5ZM273.026 199.487C272.659 199.698 272.255 199.851 271.825 199.932V269.066C271.864 269.074 271.904 269.082 271.943 269.091L271.965 269.096L271.989 269.101L272.006 269.105C272.049 269.116 272.091 269.127 272.134 269.139C272.577 269.261 272.988 269.461 273.352 269.723C273.803 270.047 274.166 270.456 274.431 270.914C274.699 271.374 274.873 271.895 274.928 272.45C274.974 272.905 274.939 273.371 274.817 273.824C274.793 273.915 274.765 274.005 274.734 274.094L334.741 308.661C335.365 307.937 336.226 307.489 337.138 307.367V238.266C335.361 237.929 334.017 236.371 334.017 234.5C334.017 234.095 334.079 233.706 334.196 233.34L274.013 198.672C273.728 199.003 273.393 199.276 273.026 199.487Z" fill="#111827"/>
</svg>
