<svg width="1220" height="269" viewBox="0 0 1220 269" fill="none" xmlns="http://www.w3.org/2000/svg">
<g clip-path="url(#clip0_108_3174)">
<path fill-rule="evenodd" clip-rule="evenodd" d="M1341.42 108.136C1339.89 107.246 1339.36 105.274 1340.25 103.731C1341.13 102.189 1343.1 101.661 1344.64 102.551C1346 103.338 1346.57 104.971 1346.07 106.404L1396.3 135.48C1397.29 134.33 1398.98 134.008 1400.34 134.796C1401.88 135.686 1402.41 137.658 1401.52 139.2C1400.63 140.742 1398.66 141.271 1397.12 140.38C1395.76 139.593 1395.2 137.961 1395.69 136.528L1345.47 107.451C1344.48 108.602 1342.78 108.923 1341.42 108.136Z" fill="#FFD28E"/>
<path fill-rule="evenodd" clip-rule="evenodd" d="M1344.64 301.199C1343.1 302.089 1341.13 301.561 1340.25 300.019C1339.36 298.476 1339.89 296.504 1341.42 295.614C1342.78 294.827 1344.48 295.148 1345.47 296.299L1395.69 267.222C1395.2 265.789 1395.76 264.157 1397.12 263.37C1398.66 262.479 1400.63 263.008 1401.52 264.55C1402.41 266.092 1401.88 268.064 1400.34 268.954C1398.98 269.742 1397.29 269.42 1396.3 268.27L1346.07 297.346C1346.57 298.779 1346 300.412 1344.64 301.199Z" fill="#FFD28E"/>
<path fill-rule="evenodd" clip-rule="evenodd" d="M898.432 233.918C898.432 235.699 896.992 237.142 895.216 237.142C893.44 237.142 892 235.699 892 233.918C892 232.344 893.125 231.033 894.613 230.75V172.597C893.125 172.314 892 171.003 892 169.429C892 167.648 893.44 166.205 895.216 166.205C896.992 166.205 898.432 167.648 898.432 169.429C898.432 171.003 897.307 172.314 895.819 172.597V230.75C897.307 231.033 898.432 232.344 898.432 233.918Z" fill="#FFD28E"/>
<path fill-rule="evenodd" clip-rule="evenodd" d="M1451.57 234.321C1451.57 236.102 1453.01 237.545 1454.78 237.545C1456.56 237.545 1458 236.102 1458 234.321C1458 232.747 1456.87 231.436 1455.39 231.153V173C1456.87 172.717 1458 171.406 1458 169.832C1458 168.051 1456.56 166.608 1454.78 166.608C1453.01 166.608 1451.57 168.051 1451.57 169.832C1451.57 171.406 1452.69 172.717 1454.18 173V231.153C1452.69 231.436 1451.57 232.747 1451.57 234.321Z" fill="#FFD28E"/>
<path fill-rule="evenodd" clip-rule="evenodd" d="M1283.54 267.223C1283.42 266.89 1283.36 266.534 1283.36 266.162C1283.36 264.381 1284.8 262.938 1286.58 262.938C1286.61 262.938 1286.64 262.938 1286.67 262.939C1286.69 262.938 1286.72 262.938 1286.75 262.938C1288.53 262.938 1289.97 264.381 1289.97 266.162C1289.97 266.534 1289.91 266.89 1289.79 267.223L1343.66 298.406L1289.79 329.59C1289.91 329.922 1289.97 330.279 1289.97 330.651C1289.97 332.431 1288.53 333.875 1286.75 333.875C1286.72 333.875 1286.69 333.875 1286.67 333.874C1286.64 333.875 1286.61 333.875 1286.58 333.875C1284.8 333.875 1283.36 332.431 1283.36 330.651C1283.36 330.279 1283.42 329.922 1283.54 329.59L1229.67 298.406L1283.54 267.223ZM1284.14 268.269L1232.08 298.406L1284.14 328.543C1284.73 327.859 1285.6 327.426 1286.58 327.426C1286.61 327.426 1286.64 327.427 1286.67 327.427C1286.69 327.427 1286.72 327.426 1286.75 327.426C1287.73 327.426 1288.6 327.859 1289.19 328.543L1341.25 298.406L1289.19 268.269C1288.6 268.953 1287.73 269.386 1286.75 269.386C1286.72 269.386 1286.69 269.386 1286.67 269.385C1286.64 269.386 1286.61 269.386 1286.58 269.386C1285.6 269.386 1284.73 268.953 1284.14 268.269Z" fill="#FFD28E"/>
<path d="M1345.85 298.406C1345.85 300.187 1344.41 301.631 1342.63 301.631C1340.85 301.631 1339.41 300.187 1339.41 298.406C1339.41 296.625 1340.85 295.182 1342.63 295.182C1344.41 295.182 1345.85 296.625 1345.85 298.406Z" fill="#FFD28E"/>
<path d="M1289.97 330.651C1289.97 332.431 1288.53 333.875 1286.75 333.875C1284.98 333.875 1283.54 332.431 1283.54 330.651C1283.54 328.87 1284.98 327.426 1286.75 327.426C1288.53 327.426 1289.97 328.87 1289.97 330.651Z" fill="#FFD28E"/>
<path d="M1234.09 298.406C1234.09 300.187 1232.65 301.631 1230.88 301.631C1229.1 301.631 1227.66 300.187 1227.66 298.406C1227.66 296.625 1229.1 295.182 1230.88 295.182C1232.65 295.182 1234.09 296.625 1234.09 298.406Z" fill="#FFD28E"/>
<path d="M1289.97 266.162C1289.97 267.943 1288.53 269.386 1286.75 269.386C1284.98 269.386 1283.54 267.943 1283.54 266.162C1283.54 264.381 1284.98 262.938 1286.75 262.938C1288.53 262.938 1289.97 264.381 1289.97 266.162Z" fill="#FFD28E"/>
<path fill-rule="evenodd" clip-rule="evenodd" d="M1283.54 138.648C1283.42 138.316 1283.36 137.959 1283.36 137.588C1283.36 135.807 1284.8 134.364 1286.58 134.364C1286.61 134.364 1286.64 134.364 1286.67 134.365C1286.69 134.364 1286.72 134.364 1286.75 134.364C1288.53 134.364 1289.97 135.807 1289.97 137.588C1289.97 137.959 1289.91 138.316 1289.79 138.648L1343.66 169.832L1289.79 201.016C1289.91 201.348 1289.97 201.705 1289.97 202.077C1289.97 203.857 1288.53 205.301 1286.75 205.301C1286.72 205.301 1286.69 205.301 1286.67 205.3C1286.64 205.301 1286.61 205.301 1286.58 205.301C1284.8 205.301 1283.36 203.857 1283.36 202.077C1283.36 201.705 1283.42 201.348 1283.54 201.016L1229.67 169.832L1283.54 138.648ZM1284.14 139.695L1232.08 169.832L1284.14 199.969C1284.73 199.285 1285.6 198.852 1286.58 198.852C1286.61 198.852 1286.64 198.852 1286.67 198.853C1286.69 198.852 1286.72 198.852 1286.75 198.852C1287.73 198.852 1288.6 199.285 1289.19 199.969L1341.25 169.832L1289.19 139.695C1288.6 140.379 1287.73 140.812 1286.75 140.812C1286.72 140.812 1286.69 140.812 1286.67 140.811C1286.64 140.812 1286.61 140.812 1286.58 140.812C1285.6 140.812 1284.73 140.379 1284.14 139.695Z" fill="#FFD28E"/>
<path d="M1345.85 169.832C1345.85 171.613 1344.41 173.057 1342.63 173.057C1340.85 173.057 1339.41 171.613 1339.41 169.832C1339.41 168.051 1340.85 166.608 1342.63 166.608C1344.41 166.608 1345.85 168.051 1345.85 169.832Z" fill="#FFD28E"/>
<path d="M1289.97 202.077C1289.97 203.857 1288.53 205.301 1286.75 205.301C1284.98 205.301 1283.54 203.857 1283.54 202.077C1283.54 200.296 1284.98 198.852 1286.75 198.852C1288.53 198.852 1289.97 200.296 1289.97 202.077Z" fill="#FFD28E"/>
<path d="M1234.09 169.832C1234.09 171.613 1232.65 173.057 1230.88 173.057C1229.1 173.057 1227.66 171.613 1227.66 169.832C1227.66 168.051 1229.1 166.608 1230.88 166.608C1232.65 166.608 1234.09 168.051 1234.09 169.832Z" fill="#FFD28E"/>
<path d="M1289.97 137.588C1289.97 139.369 1288.53 140.812 1286.75 140.812C1284.98 140.812 1283.54 139.369 1283.54 137.588C1283.54 135.807 1284.98 134.364 1286.75 134.364C1288.53 134.364 1289.97 135.807 1289.97 137.588Z" fill="#FFD28E"/>
<path fill-rule="evenodd" clip-rule="evenodd" d="M1283.54 202.734C1283.42 202.402 1283.36 202.045 1283.36 201.673C1283.36 199.893 1284.8 198.449 1286.58 198.449C1286.61 198.449 1286.64 198.449 1286.67 198.45C1286.69 198.449 1286.72 198.449 1286.75 198.449C1288.53 198.449 1289.97 199.893 1289.97 201.673C1289.97 202.045 1289.91 202.402 1289.79 202.734L1343.66 233.918L1289.79 265.102C1289.91 265.434 1289.97 265.79 1289.97 266.162C1289.97 267.943 1288.53 269.386 1286.75 269.386C1286.72 269.386 1286.69 269.386 1286.67 269.385C1286.64 269.386 1286.61 269.386 1286.58 269.386C1284.8 269.386 1283.36 267.943 1283.36 266.162C1283.36 265.79 1283.42 265.434 1283.54 265.102L1229.67 233.918L1283.54 202.734ZM1284.14 203.781L1232.08 233.918L1284.14 264.055C1284.73 263.371 1285.6 262.938 1286.58 262.938C1286.61 262.938 1286.64 262.938 1286.67 262.939C1286.69 262.938 1286.72 262.938 1286.75 262.938C1287.73 262.938 1288.6 263.371 1289.19 264.055L1341.25 233.918L1289.19 203.781C1288.6 204.465 1287.73 204.898 1286.75 204.898C1286.72 204.898 1286.69 204.898 1286.67 204.897C1286.64 204.898 1286.61 204.898 1286.58 204.898C1285.6 204.898 1284.73 204.465 1284.14 203.781Z" fill="#FFD28E"/>
<path d="M1345.85 233.918C1345.85 235.699 1344.41 237.142 1342.63 237.142C1340.85 237.142 1339.41 235.699 1339.41 233.918C1339.41 232.137 1340.85 230.693 1342.63 230.693C1344.41 230.693 1345.85 232.137 1345.85 233.918Z" fill="#FFD28E"/>
<path d="M1289.97 266.162C1289.97 267.943 1288.53 269.386 1286.75 269.386C1284.98 269.386 1283.54 267.943 1283.54 266.162C1283.54 264.381 1284.98 262.938 1286.75 262.938C1288.53 262.938 1289.97 264.381 1289.97 266.162Z" fill="#FFD28E"/>
<path d="M1234.09 233.918C1234.09 235.699 1232.65 237.142 1230.88 237.142C1229.1 237.142 1227.66 235.699 1227.66 233.918C1227.66 232.137 1229.1 230.693 1230.88 230.693C1232.65 230.693 1234.09 232.137 1234.09 233.918Z" fill="#FFD28E"/>
<path d="M1289.97 201.673C1289.97 203.454 1288.53 204.898 1286.75 204.898C1284.98 204.898 1283.54 203.454 1283.54 201.673C1283.54 199.893 1284.98 198.449 1286.75 198.449C1288.53 198.449 1289.97 199.893 1289.97 201.673Z" fill="#FFD28E"/>
<path fill-rule="evenodd" clip-rule="evenodd" d="M1283.54 74.1599C1283.42 73.8278 1283.36 73.4709 1283.36 73.0994C1283.36 71.3186 1284.8 69.875 1286.58 69.875C1286.61 69.875 1286.64 69.8754 1286.67 69.8762C1286.69 69.8754 1286.72 69.875 1286.75 69.875C1288.53 69.875 1289.97 71.3186 1289.97 73.0994C1289.97 73.4709 1289.91 73.8278 1289.79 74.1599L1343.66 105.344L1289.79 136.527C1289.91 136.86 1289.97 137.216 1289.97 137.588C1289.97 139.369 1288.53 140.812 1286.75 140.812C1286.72 140.812 1286.69 140.812 1286.67 140.811C1286.64 140.812 1286.61 140.812 1286.58 140.812C1284.8 140.812 1283.36 139.369 1283.36 137.588C1283.36 137.216 1283.42 136.86 1283.54 136.527L1229.67 105.344L1283.54 74.1599ZM1284.14 75.2067L1232.08 105.344L1284.14 135.481C1284.73 134.797 1285.6 134.364 1286.58 134.364C1286.61 134.364 1286.64 134.364 1286.67 134.365C1286.69 134.364 1286.72 134.364 1286.75 134.364C1287.73 134.364 1288.6 134.797 1289.19 135.481L1341.25 105.344L1289.19 75.2067C1288.6 75.8909 1287.73 76.3239 1286.75 76.3239C1286.72 76.3239 1286.69 76.3235 1286.67 76.3227C1286.64 76.3235 1286.61 76.3239 1286.58 76.3239C1285.6 76.3239 1284.73 75.8909 1284.14 75.2067Z" fill="#FFD28E"/>
<path d="M1345.85 105.344C1345.85 107.125 1344.41 108.568 1342.63 108.568C1340.85 108.568 1339.41 107.125 1339.41 105.344C1339.41 103.563 1340.85 102.119 1342.63 102.119C1344.41 102.119 1345.85 103.563 1345.85 105.344Z" fill="#FFD28E"/>
<path d="M1289.97 137.588C1289.97 139.369 1288.53 140.812 1286.75 140.812C1284.98 140.812 1283.54 139.369 1283.54 137.588C1283.54 135.807 1284.98 134.364 1286.75 134.364C1288.53 134.364 1289.97 135.807 1289.97 137.588Z" fill="#FFD28E"/>
<path d="M1234.09 105.344C1234.09 107.125 1232.65 108.568 1230.88 108.568C1229.1 108.568 1227.66 107.125 1227.66 105.344C1227.66 103.563 1229.1 102.119 1230.88 102.119C1232.65 102.119 1234.09 103.563 1234.09 105.344Z" fill="#FFD28E"/>
<path d="M1289.97 73.0994C1289.97 74.8802 1288.53 76.3239 1286.75 76.3239C1284.98 76.3239 1283.54 74.8802 1283.54 73.0994C1283.54 71.3186 1284.98 69.875 1286.75 69.875C1288.53 69.875 1289.97 71.3186 1289.97 73.0994Z" fill="#FFD28E"/>
<path fill-rule="evenodd" clip-rule="evenodd" d="M1059.63 267.223C1059.52 266.89 1059.45 266.534 1059.45 266.162C1059.45 264.381 1060.89 262.938 1062.67 262.938C1062.7 262.938 1062.73 262.938 1062.76 262.939C1062.79 262.938 1062.82 262.938 1062.85 262.938C1064.62 262.938 1066.06 264.381 1066.06 266.162C1066.06 266.534 1066 266.89 1065.88 267.223L1119.75 298.406L1065.88 329.59C1066 329.922 1066.06 330.279 1066.06 330.651C1066.06 332.431 1064.62 333.875 1062.85 333.875C1062.82 333.875 1062.79 333.875 1062.76 333.874C1062.73 333.875 1062.7 333.875 1062.67 333.875C1060.89 333.875 1059.45 332.431 1059.45 330.651C1059.45 330.279 1059.52 329.922 1059.63 329.59L1005.76 298.406L1059.63 267.223ZM1060.24 268.269L1008.17 298.406L1060.24 328.543C1060.83 327.859 1061.7 327.426 1062.67 327.426C1062.7 327.426 1062.73 327.427 1062.76 327.427C1062.79 327.427 1062.82 327.426 1062.85 327.426C1063.82 327.426 1064.69 327.859 1065.28 328.543L1117.34 298.406L1065.28 268.269C1064.69 268.953 1063.82 269.386 1062.85 269.386C1062.82 269.386 1062.79 269.386 1062.76 269.385C1062.73 269.386 1062.7 269.386 1062.67 269.386C1061.7 269.386 1060.83 268.953 1060.24 268.269Z" fill="#FFD28E"/>
<path d="M1121.94 298.406C1121.94 300.187 1120.5 301.631 1118.72 301.631C1116.95 301.631 1115.51 300.187 1115.51 298.406C1115.51 296.625 1116.95 295.182 1118.72 295.182C1120.5 295.182 1121.94 296.625 1121.94 298.406Z" fill="#FFD28E"/>
<path d="M1066.06 330.651C1066.06 332.431 1064.62 333.875 1062.85 333.875C1061.07 333.875 1059.63 332.431 1059.63 330.651C1059.63 328.87 1061.07 327.426 1062.85 327.426C1064.62 327.426 1066.06 328.87 1066.06 330.651Z" fill="#FFD28E"/>
<path d="M1010.18 298.406C1010.18 300.187 1008.74 301.631 1006.97 301.631C1005.19 301.631 1003.75 300.187 1003.75 298.406C1003.75 296.625 1005.19 295.182 1006.97 295.182C1008.74 295.182 1010.18 296.625 1010.18 298.406Z" fill="#FFD28E"/>
<path d="M1066.06 266.162C1066.06 267.943 1064.62 269.386 1062.85 269.386C1061.07 269.386 1059.63 267.943 1059.63 266.162C1059.63 264.381 1061.07 262.938 1062.85 262.938C1064.62 262.938 1066.06 264.381 1066.06 266.162Z" fill="#FFD28E"/>
<path fill-rule="evenodd" clip-rule="evenodd" d="M1059.63 138.648C1059.52 138.316 1059.45 137.959 1059.45 137.588C1059.45 135.807 1060.89 134.364 1062.67 134.364C1062.7 134.364 1062.73 134.364 1062.76 134.365C1062.79 134.364 1062.82 134.364 1062.85 134.364C1064.62 134.364 1066.06 135.807 1066.06 137.588C1066.06 137.959 1066 138.316 1065.88 138.648L1119.75 169.832L1065.88 201.016C1066 201.348 1066.06 201.705 1066.06 202.077C1066.06 203.857 1064.62 205.301 1062.85 205.301C1062.82 205.301 1062.79 205.301 1062.76 205.3C1062.73 205.301 1062.7 205.301 1062.67 205.301C1060.89 205.301 1059.45 203.857 1059.45 202.077C1059.45 201.705 1059.52 201.348 1059.63 201.016L1005.76 169.832L1059.63 138.648ZM1060.24 139.695L1008.17 169.832L1060.24 199.969C1060.83 199.285 1061.7 198.852 1062.67 198.852C1062.7 198.852 1062.73 198.852 1062.76 198.853C1062.79 198.852 1062.82 198.852 1062.85 198.852C1063.82 198.852 1064.69 199.285 1065.28 199.969L1117.34 169.832L1065.28 139.695C1064.69 140.379 1063.82 140.812 1062.85 140.812C1062.82 140.812 1062.79 140.812 1062.76 140.811C1062.73 140.812 1062.7 140.812 1062.67 140.812C1061.7 140.812 1060.83 140.379 1060.24 139.695Z" fill="#FFD28E"/>
<path d="M1121.94 169.832C1121.94 171.613 1120.5 173.057 1118.72 173.057C1116.95 173.057 1115.51 171.613 1115.51 169.832C1115.51 168.051 1116.95 166.608 1118.72 166.608C1120.5 166.608 1121.94 168.051 1121.94 169.832Z" fill="#FFD28E"/>
<path d="M1066.06 202.077C1066.06 203.857 1064.62 205.301 1062.85 205.301C1061.07 205.301 1059.63 203.857 1059.63 202.077C1059.63 200.296 1061.07 198.852 1062.85 198.852C1064.62 198.852 1066.06 200.296 1066.06 202.077Z" fill="#FFD28E"/>
<path d="M1010.18 169.832C1010.18 171.613 1008.74 173.057 1006.97 173.057C1005.19 173.057 1003.75 171.613 1003.75 169.832C1003.75 168.051 1005.19 166.608 1006.97 166.608C1008.74 166.608 1010.18 168.051 1010.18 169.832Z" fill="#FFD28E"/>
<path d="M1066.06 137.588C1066.06 139.369 1064.62 140.812 1062.85 140.812C1061.07 140.812 1059.63 139.369 1059.63 137.588C1059.63 135.807 1061.07 134.364 1062.85 134.364C1064.62 134.364 1066.06 135.807 1066.06 137.588Z" fill="#FFD28E"/>
<path fill-rule="evenodd" clip-rule="evenodd" d="M1003.76 106.404C1003.64 106.072 1003.58 105.715 1003.58 105.344C1003.58 103.563 1005.02 102.119 1006.79 102.119C1006.82 102.119 1006.85 102.12 1006.88 102.12C1006.91 102.12 1006.94 102.119 1006.97 102.119C1008.74 102.119 1010.18 103.563 1010.18 105.344C1010.18 105.715 1010.12 106.072 1010.01 106.404L1063.88 137.588L1010.01 168.772C1010.12 169.104 1010.18 169.461 1010.18 169.832C1010.18 171.613 1008.74 173.057 1006.97 173.057C1006.94 173.057 1006.91 173.056 1006.88 173.056C1006.85 173.056 1006.82 173.057 1006.79 173.057C1005.02 173.057 1003.58 171.613 1003.58 169.832C1003.58 169.461 1003.64 169.104 1003.76 168.772L949.886 137.588L1003.76 106.404ZM1004.36 107.451L952.298 137.588L1004.36 167.725C1004.95 167.041 1005.82 166.608 1006.79 166.608C1006.82 166.608 1006.85 166.608 1006.88 166.609C1006.91 166.608 1006.94 166.608 1006.97 166.608C1007.94 166.608 1008.81 167.041 1009.4 167.725L1061.46 137.588L1009.4 107.451C1008.81 108.135 1007.94 108.568 1006.97 108.568C1006.94 108.568 1006.91 108.568 1006.88 108.567C1006.85 108.568 1006.82 108.568 1006.79 108.568C1005.82 108.568 1004.95 108.135 1004.36 107.451Z" fill="#FFD28E"/>
<path d="M1066.06 137.588C1066.06 139.369 1064.62 140.812 1062.85 140.812C1061.07 140.812 1059.63 139.369 1059.63 137.588C1059.63 135.807 1061.07 134.364 1062.85 134.364C1064.62 134.364 1066.06 135.807 1066.06 137.588Z" fill="#FFD28E"/>
<path d="M1010.18 169.832C1010.18 171.613 1008.74 173.057 1006.97 173.057C1005.19 173.057 1003.75 171.613 1003.75 169.832C1003.75 168.051 1005.19 166.608 1006.97 166.608C1008.74 166.608 1010.18 168.051 1010.18 169.832Z" fill="#FFD28E"/>
<path d="M954.308 137.588C954.308 139.369 952.868 140.812 951.092 140.812C949.316 140.812 947.876 139.369 947.876 137.588C947.876 135.807 949.316 134.364 951.092 134.364C952.868 134.364 954.308 135.807 954.308 137.588Z" fill="#FFD28E"/>
<path d="M1010.18 105.344C1010.18 107.125 1008.74 108.568 1006.97 108.568C1005.19 108.568 1003.75 107.125 1003.75 105.344C1003.75 103.563 1005.19 102.119 1006.97 102.119C1008.74 102.119 1010.18 103.563 1010.18 105.344Z" fill="#FFD28E"/>
<path fill-rule="evenodd" clip-rule="evenodd" d="M947.879 138.245C947.764 137.913 947.701 137.556 947.701 137.185C947.701 135.404 949.141 133.96 950.917 133.96C950.946 133.96 950.976 133.961 951.005 133.962C951.034 133.961 951.063 133.96 951.092 133.96C952.868 133.96 954.308 135.404 954.308 137.185C954.308 137.556 954.246 137.913 954.13 138.245L1008 169.429L954.13 200.613C954.246 200.945 954.308 201.302 954.308 201.673C954.308 203.454 952.868 204.898 951.092 204.898C951.063 204.898 951.034 204.898 951.005 204.897C950.976 204.898 950.946 204.898 950.917 204.898C949.141 204.898 947.701 203.454 947.701 201.673C947.701 201.302 947.764 200.945 947.879 200.613L894.01 169.429L947.879 138.245ZM948.483 139.292L896.422 169.429L948.483 199.566C949.073 198.882 949.944 198.449 950.917 198.449C950.946 198.449 950.976 198.449 951.005 198.45C951.034 198.449 951.063 198.449 951.092 198.449C952.065 198.449 952.937 198.882 953.527 199.566L1005.59 169.429L953.527 139.292C952.937 139.976 952.065 140.409 951.092 140.409C951.063 140.409 951.034 140.409 951.005 140.408C950.976 140.409 950.946 140.409 950.917 140.409C949.944 140.409 949.073 139.976 948.483 139.292Z" fill="#FFD28E"/>
<path d="M1010.18 169.429C1010.18 171.21 1008.74 172.654 1006.97 172.654C1005.19 172.654 1003.75 171.21 1003.75 169.429C1003.75 167.648 1005.19 166.205 1006.97 166.205C1008.74 166.205 1010.18 167.648 1010.18 169.429Z" fill="#FFD28E"/>
<path d="M954.308 201.673C954.308 203.454 952.868 204.898 951.092 204.898C949.316 204.898 947.876 203.454 947.876 201.673C947.876 199.893 949.316 198.449 951.092 198.449C952.868 198.449 954.308 199.893 954.308 201.673Z" fill="#FFD28E"/>
<path d="M898.432 169.429C898.432 171.21 896.992 172.654 895.216 172.654C893.44 172.654 892 171.21 892 169.429C892 167.648 893.44 166.205 895.216 166.205C896.992 166.205 898.432 167.648 898.432 169.429Z" fill="#FFD28E"/>
<path d="M954.308 137.185C954.308 138.966 952.868 140.409 951.092 140.409C949.316 140.409 947.876 138.966 947.876 137.185C947.876 135.404 949.316 133.96 951.092 133.96C952.868 133.96 954.308 135.404 954.308 137.185Z" fill="#FFD28E"/>
<path fill-rule="evenodd" clip-rule="evenodd" d="M1402.12 138.648C1402.24 138.316 1402.3 137.959 1402.3 137.588C1402.3 135.807 1400.86 134.364 1399.08 134.364C1399.05 134.364 1399.02 134.364 1399 134.365C1398.97 134.364 1398.94 134.364 1398.91 134.364C1397.13 134.364 1395.69 135.807 1395.69 137.588C1395.69 137.959 1395.75 138.316 1395.87 138.648L1342 169.832L1395.87 201.016C1395.75 201.348 1395.69 201.705 1395.69 202.077C1395.69 203.857 1397.13 205.301 1398.91 205.301C1398.94 205.301 1398.97 205.301 1399 205.3C1399.02 205.301 1399.05 205.301 1399.08 205.301C1400.86 205.301 1402.3 203.857 1402.3 202.077C1402.3 201.705 1402.24 201.348 1402.12 201.016L1455.99 169.832L1402.12 138.648ZM1401.52 139.695L1453.58 169.832L1401.52 199.969C1400.93 199.285 1400.06 198.852 1399.08 198.852C1399.05 198.852 1399.02 198.852 1399 198.853C1398.97 198.852 1398.94 198.852 1398.91 198.852C1397.93 198.852 1397.06 199.285 1396.47 199.969L1344.41 169.832L1396.47 139.695C1397.06 140.379 1397.93 140.812 1398.91 140.812C1398.94 140.812 1398.97 140.812 1399 140.811C1399.02 140.812 1399.05 140.812 1399.08 140.812C1400.06 140.812 1400.93 140.379 1401.52 139.695Z" fill="#FFD28E"/>
<path d="M1339.82 169.832C1339.82 171.613 1341.26 173.057 1343.03 173.057C1344.81 173.057 1346.25 171.613 1346.25 169.832C1346.25 168.051 1344.81 166.608 1343.03 166.608C1341.26 166.608 1339.82 168.051 1339.82 169.832Z" fill="#FFD28E"/>
<path d="M1395.69 202.077C1395.69 203.857 1397.13 205.301 1398.91 205.301C1400.68 205.301 1402.12 203.857 1402.12 202.077C1402.12 200.296 1400.68 198.852 1398.91 198.852C1397.13 198.852 1395.69 200.296 1395.69 202.077Z" fill="#FFD28E"/>
<path d="M1451.57 169.832C1451.57 171.613 1453.01 173.057 1454.78 173.057C1456.56 173.057 1458 171.613 1458 169.832C1458 168.051 1456.56 166.608 1454.78 166.608C1453.01 166.608 1451.57 168.051 1451.57 169.832Z" fill="#FFD28E"/>
<path d="M1395.69 137.588C1395.69 139.369 1397.13 140.812 1398.91 140.812C1400.68 140.812 1402.12 139.369 1402.12 137.588C1402.12 135.807 1400.68 134.364 1398.91 134.364C1397.13 134.364 1395.69 135.807 1395.69 137.588Z" fill="#FFD28E"/>
<path fill-rule="evenodd" clip-rule="evenodd" d="M947.879 202.734C947.764 202.402 947.701 202.045 947.701 201.673C947.701 199.893 949.141 198.449 950.917 198.449C950.946 198.449 950.976 198.449 951.005 198.45C951.034 198.449 951.063 198.449 951.092 198.449C952.868 198.449 954.308 199.893 954.308 201.673C954.308 202.045 954.246 202.402 954.13 202.734L1008 233.918L954.13 265.102C954.246 265.434 954.308 265.79 954.308 266.162C954.308 267.943 952.868 269.386 951.092 269.386C951.063 269.386 951.034 269.386 951.005 269.385C950.976 269.386 950.946 269.386 950.917 269.386C949.141 269.386 947.701 267.943 947.701 266.162C947.701 265.79 947.764 265.434 947.879 265.102L894.01 233.918L947.879 202.734ZM948.483 203.781L896.422 233.918L948.483 264.055C949.073 263.371 949.944 262.938 950.917 262.938C950.946 262.938 950.976 262.938 951.005 262.939C951.034 262.938 951.063 262.938 951.092 262.938C952.065 262.938 952.937 263.371 953.527 264.055L1005.59 233.918L953.527 203.781C952.937 204.465 952.065 204.898 951.092 204.898C951.063 204.898 951.034 204.898 951.005 204.897C950.976 204.898 950.946 204.898 950.917 204.898C949.944 204.898 949.073 204.465 948.483 203.781Z" fill="#FFD28E"/>
<path d="M1010.18 233.918C1010.18 235.699 1008.74 237.142 1006.97 237.142C1005.19 237.142 1003.75 235.699 1003.75 233.918C1003.75 232.137 1005.19 230.693 1006.97 230.693C1008.74 230.693 1010.18 232.137 1010.18 233.918Z" fill="#FFD28E"/>
<path d="M954.308 266.162C954.308 267.943 952.868 269.386 951.092 269.386C949.316 269.386 947.876 267.943 947.876 266.162C947.876 264.381 949.316 262.938 951.092 262.938C952.868 262.938 954.308 264.381 954.308 266.162Z" fill="#FFD28E"/>
<path d="M898.432 233.918C898.432 235.699 896.992 237.142 895.216 237.142C893.44 237.142 892 235.699 892 233.918C892 232.137 893.44 230.693 895.216 230.693C896.992 230.693 898.432 232.137 898.432 233.918Z" fill="#FFD28E"/>
<path d="M954.308 201.673C954.308 203.454 952.868 204.898 951.092 204.898C949.316 204.898 947.876 203.454 947.876 201.673C947.876 199.893 949.316 198.449 951.092 198.449C952.868 198.449 954.308 199.893 954.308 201.673Z" fill="#FFD28E"/>
<path fill-rule="evenodd" clip-rule="evenodd" d="M1402.12 203.137C1402.24 202.805 1402.3 202.448 1402.3 202.077C1402.3 200.296 1400.86 198.852 1399.08 198.852C1399.05 198.852 1399.02 198.852 1399 198.853C1398.97 198.852 1398.94 198.852 1398.91 198.852C1397.13 198.852 1395.69 200.296 1395.69 202.077C1395.69 202.448 1395.75 202.805 1395.87 203.137L1342 234.321L1395.87 265.505C1395.75 265.837 1395.69 266.194 1395.69 266.565C1395.69 268.346 1397.13 269.79 1398.91 269.79C1398.94 269.79 1398.97 269.789 1399 269.788C1399.02 269.789 1399.05 269.79 1399.08 269.79C1400.86 269.79 1402.3 268.346 1402.3 266.565C1402.3 266.194 1402.24 265.837 1402.12 265.505L1455.99 234.321L1402.12 203.137ZM1401.52 204.184L1453.58 234.321L1401.52 264.458C1400.93 263.774 1400.06 263.341 1399.08 263.341C1399.05 263.341 1399.02 263.341 1399 263.342C1398.97 263.341 1398.94 263.341 1398.91 263.341C1397.93 263.341 1397.06 263.774 1396.47 264.458L1344.41 234.321L1396.47 204.184C1397.06 204.868 1397.93 205.301 1398.91 205.301C1398.94 205.301 1398.97 205.301 1399 205.3C1399.02 205.301 1399.05 205.301 1399.08 205.301C1400.06 205.301 1400.93 204.868 1401.52 204.184Z" fill="#FFD28E"/>
<path d="M1339.82 234.321C1339.82 236.102 1341.26 237.545 1343.03 237.545C1344.81 237.545 1346.25 236.102 1346.25 234.321C1346.25 232.54 1344.81 231.096 1343.03 231.096C1341.26 231.096 1339.82 232.54 1339.82 234.321Z" fill="#FFD28E"/>
<path d="M1395.69 266.565C1395.69 268.346 1397.13 269.79 1398.91 269.79C1400.68 269.79 1402.12 268.346 1402.12 266.565C1402.12 264.784 1400.68 263.341 1398.91 263.341C1397.13 263.341 1395.69 264.784 1395.69 266.565Z" fill="#FFD28E"/>
<path d="M1451.57 234.321C1451.57 236.102 1453.01 237.545 1454.78 237.545C1456.56 237.545 1458 236.102 1458 234.321C1458 232.54 1456.56 231.096 1454.78 231.096C1453.01 231.096 1451.57 232.54 1451.57 234.321Z" fill="#FFD28E"/>
<path d="M1395.69 202.077C1395.69 203.857 1397.13 205.301 1398.91 205.301C1400.68 205.301 1402.12 203.857 1402.12 202.077C1402.12 200.296 1400.68 198.852 1398.91 198.852C1397.13 198.852 1395.69 200.296 1395.69 202.077Z" fill="#FFD28E"/>
<path fill-rule="evenodd" clip-rule="evenodd" d="M1003.76 170.49C1003.64 170.158 1003.58 169.801 1003.58 169.429C1003.58 167.648 1005.02 166.205 1006.79 166.205C1006.82 166.205 1006.85 166.205 1006.88 166.206C1006.91 166.205 1006.94 166.205 1006.97 166.205C1008.74 166.205 1010.18 167.648 1010.18 169.429C1010.18 169.801 1010.12 170.158 1010.01 170.49L1063.88 201.673L1010.01 232.857C1010.12 233.189 1010.18 233.546 1010.18 233.918C1010.18 235.699 1008.74 237.142 1006.97 237.142C1006.94 237.142 1006.91 237.142 1006.88 237.141C1006.85 237.142 1006.82 237.142 1006.79 237.142C1005.02 237.142 1003.58 235.699 1003.58 233.918C1003.58 233.546 1003.64 233.189 1003.76 232.857L949.886 201.673L1003.76 170.49ZM1004.36 171.536L952.298 201.673L1004.36 231.811C1004.95 231.126 1005.82 230.693 1006.79 230.693C1006.82 230.693 1006.85 230.694 1006.88 230.695C1006.91 230.694 1006.94 230.693 1006.97 230.693C1007.94 230.693 1008.81 231.126 1009.4 231.811L1061.46 201.673L1009.4 171.536C1008.81 172.221 1007.94 172.654 1006.97 172.654C1006.94 172.654 1006.91 172.653 1006.88 172.652C1006.85 172.653 1006.82 172.654 1006.79 172.654C1005.82 172.654 1004.95 172.221 1004.36 171.536Z" fill="#FFD28E"/>
<path d="M1066.06 201.673C1066.06 203.454 1064.62 204.898 1062.85 204.898C1061.07 204.898 1059.63 203.454 1059.63 201.673C1059.63 199.893 1061.07 198.449 1062.85 198.449C1064.62 198.449 1066.06 199.893 1066.06 201.673Z" fill="#FFD28E"/>
<path d="M1010.18 233.918C1010.18 235.699 1008.74 237.142 1006.97 237.142C1005.19 237.142 1003.75 235.699 1003.75 233.918C1003.75 232.137 1005.19 230.693 1006.97 230.693C1008.74 230.693 1010.18 232.137 1010.18 233.918Z" fill="#FFD28E"/>
<path d="M954.308 201.673C954.308 203.454 952.868 204.898 951.092 204.898C949.316 204.898 947.876 203.454 947.876 201.673C947.876 199.893 949.316 198.449 951.092 198.449C952.868 198.449 954.308 199.893 954.308 201.673Z" fill="#FFD28E"/>
<path d="M1010.18 169.429C1010.18 171.21 1008.74 172.654 1006.97 172.654C1005.19 172.654 1003.75 171.21 1003.75 169.429C1003.75 167.648 1005.19 166.205 1006.97 166.205C1008.74 166.205 1010.18 167.648 1010.18 169.429Z" fill="#FFD28E"/>
<path fill-rule="evenodd" clip-rule="evenodd" d="M1003.76 234.978C1003.64 234.646 1003.58 234.289 1003.58 233.918C1003.58 232.137 1005.02 230.693 1006.79 230.693C1006.82 230.693 1006.85 230.694 1006.88 230.695C1006.91 230.694 1006.94 230.693 1006.97 230.693C1008.74 230.693 1010.18 232.137 1010.18 233.918C1010.18 234.289 1010.12 234.646 1010.01 234.978L1063.88 266.162L1010.01 297.346C1010.12 297.678 1010.18 298.035 1010.18 298.406C1010.18 300.187 1008.74 301.631 1006.97 301.631C1006.94 301.631 1006.91 301.63 1006.88 301.63C1006.85 301.63 1006.82 301.631 1006.79 301.631C1005.02 301.631 1003.58 300.187 1003.58 298.406C1003.58 298.035 1003.64 297.678 1003.76 297.346L949.886 266.162L1003.76 234.978ZM1004.36 236.025L952.298 266.162L1004.36 296.299C1004.95 295.615 1005.82 295.182 1006.79 295.182C1006.82 295.182 1006.85 295.182 1006.88 295.183C1006.91 295.182 1006.94 295.182 1006.97 295.182C1007.94 295.182 1008.81 295.615 1009.4 296.299L1061.46 266.162L1009.4 236.025C1008.81 236.709 1007.94 237.142 1006.97 237.142C1006.94 237.142 1006.91 237.142 1006.88 237.141C1006.85 237.142 1006.82 237.142 1006.79 237.142C1005.82 237.142 1004.95 236.709 1004.36 236.025Z" fill="#FFD28E"/>
<path d="M1066.06 266.162C1066.06 267.943 1064.62 269.386 1062.85 269.386C1061.07 269.386 1059.63 267.943 1059.63 266.162C1059.63 264.381 1061.07 262.938 1062.85 262.938C1064.62 262.938 1066.06 264.381 1066.06 266.162Z" fill="#FFD28E"/>
<path d="M1010.18 298.406C1010.18 300.187 1008.74 301.631 1006.97 301.631C1005.19 301.631 1003.75 300.187 1003.75 298.406C1003.75 296.625 1005.19 295.182 1006.97 295.182C1008.74 295.182 1010.18 296.625 1010.18 298.406Z" fill="#FFD28E"/>
<path d="M954.308 266.162C954.308 267.943 952.868 269.386 951.092 269.386C949.316 269.386 947.876 267.943 947.876 266.162C947.876 264.381 949.316 262.938 951.092 262.938C952.868 262.938 954.308 264.381 954.308 266.162Z" fill="#FFD28E"/>
<path d="M1010.18 233.918C1010.18 235.699 1008.74 237.142 1006.97 237.142C1005.19 237.142 1003.75 235.699 1003.75 233.918C1003.75 232.137 1005.19 230.693 1006.97 230.693C1008.74 230.693 1010.18 232.137 1010.18 233.918Z" fill="#FFD28E"/>
<path fill-rule="evenodd" clip-rule="evenodd" d="M1059.63 202.734C1059.52 202.402 1059.45 202.045 1059.45 201.673C1059.45 199.893 1060.89 198.449 1062.67 198.449C1062.7 198.449 1062.73 198.449 1062.76 198.45C1062.79 198.449 1062.82 198.449 1062.85 198.449C1064.62 198.449 1066.06 199.893 1066.06 201.673C1066.06 202.045 1066 202.402 1065.88 202.734L1119.75 233.918L1065.88 265.102C1066 265.434 1066.06 265.79 1066.06 266.162C1066.06 267.943 1064.62 269.386 1062.85 269.386C1062.82 269.386 1062.79 269.386 1062.76 269.385C1062.73 269.386 1062.7 269.386 1062.67 269.386C1060.89 269.386 1059.45 267.943 1059.45 266.162C1059.45 265.79 1059.52 265.434 1059.63 265.102L1005.76 233.918L1059.63 202.734ZM1060.24 203.781L1008.17 233.918L1060.24 264.055C1060.83 263.371 1061.7 262.938 1062.67 262.938C1062.7 262.938 1062.73 262.938 1062.76 262.939C1062.79 262.938 1062.82 262.938 1062.85 262.938C1063.82 262.938 1064.69 263.371 1065.28 264.055L1117.34 233.918L1065.28 203.781C1064.69 204.465 1063.82 204.898 1062.85 204.898C1062.82 204.898 1062.79 204.898 1062.76 204.897C1062.73 204.898 1062.7 204.898 1062.67 204.898C1061.7 204.898 1060.83 204.465 1060.24 203.781Z" fill="#FFD28E"/>
<path d="M1121.94 233.918C1121.94 235.699 1120.5 237.142 1118.72 237.142C1116.95 237.142 1115.51 235.699 1115.51 233.918C1115.51 232.137 1116.95 230.693 1118.72 230.693C1120.5 230.693 1121.94 232.137 1121.94 233.918Z" fill="#FFD28E"/>
<path d="M1066.06 266.162C1066.06 267.943 1064.62 269.386 1062.85 269.386C1061.07 269.386 1059.63 267.943 1059.63 266.162C1059.63 264.381 1061.07 262.938 1062.85 262.938C1064.62 262.938 1066.06 264.381 1066.06 266.162Z" fill="#FFD28E"/>
<path d="M1010.18 233.918C1010.18 235.699 1008.74 237.142 1006.97 237.142C1005.19 237.142 1003.75 235.699 1003.75 233.918C1003.75 232.137 1005.19 230.693 1006.97 230.693C1008.74 230.693 1010.18 232.137 1010.18 233.918Z" fill="#FFD28E"/>
<path d="M1066.06 201.673C1066.06 203.454 1064.62 204.898 1062.85 204.898C1061.07 204.898 1059.63 203.454 1059.63 201.673C1059.63 199.893 1061.07 198.449 1062.85 198.449C1064.62 198.449 1066.06 199.893 1066.06 201.673Z" fill="#FFD28E"/>
<path fill-rule="evenodd" clip-rule="evenodd" d="M1059.63 74.1599C1059.52 73.8278 1059.45 73.4709 1059.45 73.0994C1059.45 71.3186 1060.89 69.875 1062.67 69.875C1062.7 69.875 1062.73 69.8754 1062.76 69.8762C1062.79 69.8754 1062.82 69.875 1062.85 69.875C1064.62 69.875 1066.06 71.3186 1066.06 73.0994C1066.06 73.4709 1066 73.8278 1065.88 74.1599L1119.75 105.344L1065.88 136.527C1066 136.86 1066.06 137.216 1066.06 137.588C1066.06 139.369 1064.62 140.812 1062.85 140.812C1062.82 140.812 1062.79 140.812 1062.76 140.811C1062.73 140.812 1062.7 140.812 1062.67 140.812C1060.89 140.812 1059.45 139.369 1059.45 137.588C1059.45 137.216 1059.52 136.86 1059.63 136.527L1005.76 105.344L1059.63 74.1599ZM1060.24 75.2067L1008.17 105.344L1060.24 135.481C1060.83 134.797 1061.7 134.364 1062.67 134.364C1062.7 134.364 1062.73 134.364 1062.76 134.365C1062.79 134.364 1062.82 134.364 1062.85 134.364C1063.82 134.364 1064.69 134.797 1065.28 135.481L1117.34 105.344L1065.28 75.2067C1064.69 75.8909 1063.82 76.3239 1062.85 76.3239C1062.82 76.3239 1062.79 76.3235 1062.76 76.3227C1062.73 76.3235 1062.7 76.3239 1062.67 76.3239C1061.7 76.3239 1060.83 75.8909 1060.24 75.2067Z" fill="#FFD28E"/>
<path d="M1121.94 105.344C1121.94 107.125 1120.5 108.568 1118.72 108.568C1116.95 108.568 1115.51 107.125 1115.51 105.344C1115.51 103.563 1116.95 102.119 1118.72 102.119C1120.5 102.119 1121.94 103.563 1121.94 105.344Z" fill="#FFD28E"/>
<path d="M1066.06 137.588C1066.06 139.369 1064.62 140.812 1062.85 140.812C1061.07 140.812 1059.63 139.369 1059.63 137.588C1059.63 135.807 1061.07 134.364 1062.85 134.364C1064.62 134.364 1066.06 135.807 1066.06 137.588Z" fill="#FFD28E"/>
<path d="M1010.18 105.344C1010.18 107.125 1008.74 108.568 1006.97 108.568C1005.19 108.568 1003.75 107.125 1003.75 105.344C1003.75 103.563 1005.19 102.119 1006.97 102.119C1008.74 102.119 1010.18 103.563 1010.18 105.344Z" fill="#FFD28E"/>
<path d="M1066.06 73.0994C1066.06 74.8802 1064.62 76.3239 1062.85 76.3239C1061.07 76.3239 1059.63 74.8802 1059.63 73.0994C1059.63 71.3186 1061.07 69.875 1062.85 69.875C1064.62 69.875 1066.06 71.3186 1066.06 73.0994Z" fill="#FFD28E"/>
<path fill-rule="evenodd" clip-rule="evenodd" d="M1171.79 267.223C1171.67 266.89 1171.61 266.534 1171.61 266.162C1171.61 264.381 1173.05 262.938 1174.82 262.938C1174.85 262.938 1174.88 262.938 1174.91 262.939C1174.94 262.938 1174.97 262.938 1175 262.938C1176.78 262.938 1178.22 264.381 1178.22 266.162C1178.22 266.534 1178.15 266.89 1178.04 267.223L1231.91 298.406L1178.04 329.59C1178.15 329.922 1178.22 330.279 1178.22 330.651C1178.22 332.431 1176.78 333.875 1175 333.875C1174.97 333.875 1174.94 333.875 1174.91 333.874C1174.88 333.875 1174.85 333.875 1174.82 333.875C1173.05 333.875 1171.61 332.431 1171.61 330.651C1171.61 330.279 1171.67 329.922 1171.79 329.59L1117.92 298.406L1171.79 267.223ZM1172.39 268.269L1120.33 298.406L1172.39 328.543C1172.98 327.859 1173.85 327.426 1174.82 327.426C1174.85 327.426 1174.88 327.427 1174.91 327.427C1174.94 327.427 1174.97 327.426 1175 327.426C1175.97 327.426 1176.84 327.859 1177.43 328.543L1229.5 298.406L1177.43 268.269C1176.84 268.953 1175.97 269.386 1175 269.386C1174.97 269.386 1174.94 269.386 1174.91 269.385C1174.88 269.386 1174.85 269.386 1174.82 269.386C1173.85 269.386 1172.98 268.953 1172.39 268.269Z" fill="#FFD28E"/>
<path d="M1234.09 298.406C1234.09 300.187 1232.65 301.631 1230.88 301.631C1229.1 301.631 1227.66 300.187 1227.66 298.406C1227.66 296.625 1229.1 295.182 1230.88 295.182C1232.65 295.182 1234.09 296.625 1234.09 298.406Z" fill="#FFD28E"/>
<path d="M1178.22 330.651C1178.22 332.431 1176.78 333.875 1175 333.875C1173.22 333.875 1171.78 332.431 1171.78 330.651C1171.78 328.87 1173.22 327.426 1175 327.426C1176.78 327.426 1178.22 328.87 1178.22 330.651Z" fill="#FFD28E"/>
<path d="M1122.34 298.406C1122.34 300.187 1120.9 301.631 1119.12 301.631C1117.35 301.631 1115.91 300.187 1115.91 298.406C1115.91 296.625 1117.35 295.182 1119.12 295.182C1120.9 295.182 1122.34 296.625 1122.34 298.406Z" fill="#FFD28E"/>
<path d="M1178.22 266.162C1178.22 267.943 1176.78 269.386 1175 269.386C1173.22 269.386 1171.78 267.943 1171.78 266.162C1171.78 264.381 1173.22 262.938 1175 262.938C1176.78 262.938 1178.22 264.381 1178.22 266.162Z" fill="#FFD28E"/>
<path fill-rule="evenodd" clip-rule="evenodd" d="M1171.79 138.648C1171.67 138.316 1171.61 137.959 1171.61 137.588C1171.61 135.807 1173.05 134.364 1174.82 134.364C1174.85 134.364 1174.88 134.364 1174.91 134.365C1174.94 134.364 1174.97 134.364 1175 134.364C1176.78 134.364 1178.22 135.807 1178.22 137.588C1178.22 137.959 1178.15 138.316 1178.04 138.648L1231.91 169.832L1178.04 201.016C1178.15 201.348 1178.22 201.705 1178.22 202.077C1178.22 203.857 1176.78 205.301 1175 205.301C1174.97 205.301 1174.94 205.301 1174.91 205.3C1174.88 205.301 1174.85 205.301 1174.82 205.301C1173.05 205.301 1171.61 203.857 1171.61 202.077C1171.61 201.705 1171.67 201.348 1171.79 201.016L1117.92 169.832L1171.79 138.648ZM1172.39 139.695L1120.33 169.832L1172.39 199.969C1172.98 199.285 1173.85 198.852 1174.82 198.852C1174.85 198.852 1174.88 198.852 1174.91 198.853C1174.94 198.852 1174.97 198.852 1175 198.852C1175.97 198.852 1176.84 199.285 1177.43 199.969L1229.5 169.832L1177.43 139.695C1176.84 140.379 1175.97 140.812 1175 140.812C1174.97 140.812 1174.94 140.812 1174.91 140.811C1174.88 140.812 1174.85 140.812 1174.82 140.812C1173.85 140.812 1172.98 140.379 1172.39 139.695Z" fill="#FFD28E"/>
<path d="M1234.09 169.832C1234.09 171.613 1232.65 173.057 1230.88 173.057C1229.1 173.057 1227.66 171.613 1227.66 169.832C1227.66 168.051 1229.1 166.608 1230.88 166.608C1232.65 166.608 1234.09 168.051 1234.09 169.832Z" fill="#FFD28E"/>
<path d="M1178.22 202.077C1178.22 203.857 1176.78 205.301 1175 205.301C1173.22 205.301 1171.78 203.857 1171.78 202.077C1171.78 200.296 1173.22 198.852 1175 198.852C1176.78 198.852 1178.22 200.296 1178.22 202.077Z" fill="#FFD28E"/>
<path d="M1122.34 169.832C1122.34 171.613 1120.9 173.057 1119.12 173.057C1117.35 173.057 1115.91 171.613 1115.91 169.832C1115.91 168.051 1117.35 166.608 1119.12 166.608C1120.9 166.608 1122.34 168.051 1122.34 169.832Z" fill="#FFD28E"/>
<path d="M1178.22 137.588C1178.22 139.369 1176.78 140.812 1175 140.812C1173.22 140.812 1171.78 139.369 1171.78 137.588C1171.78 135.807 1173.22 134.364 1175 134.364C1176.78 134.364 1178.22 135.807 1178.22 137.588Z" fill="#FFD28E"/>
<path fill-rule="evenodd" clip-rule="evenodd" d="M1171.79 202.734C1171.67 202.402 1171.61 202.045 1171.61 201.673C1171.61 199.893 1173.05 198.449 1174.82 198.449C1174.85 198.449 1174.88 198.449 1174.91 198.45C1174.94 198.449 1174.97 198.449 1175 198.449C1176.78 198.449 1178.22 199.893 1178.22 201.673C1178.22 202.045 1178.15 202.402 1178.04 202.734L1231.91 233.918L1178.04 265.102C1178.15 265.434 1178.22 265.79 1178.22 266.162C1178.22 267.943 1176.78 269.386 1175 269.386C1174.97 269.386 1174.94 269.386 1174.91 269.385C1174.88 269.386 1174.85 269.386 1174.82 269.386C1173.05 269.386 1171.61 267.943 1171.61 266.162C1171.61 265.79 1171.67 265.434 1171.79 265.102L1117.92 233.918L1171.79 202.734ZM1172.39 203.781L1120.33 233.918L1172.39 264.055C1172.98 263.371 1173.85 262.938 1174.82 262.938C1174.85 262.938 1174.88 262.938 1174.91 262.939C1174.94 262.938 1174.97 262.938 1175 262.938C1175.97 262.938 1176.84 263.371 1177.43 264.055L1229.5 233.918L1177.43 203.781C1176.84 204.465 1175.97 204.898 1175 204.898C1174.97 204.898 1174.94 204.898 1174.91 204.897C1174.88 204.898 1174.85 204.898 1174.82 204.898C1173.85 204.898 1172.98 204.465 1172.39 203.781Z" fill="#FFD28E"/>
<path d="M1234.09 233.918C1234.09 235.699 1232.65 237.142 1230.88 237.142C1229.1 237.142 1227.66 235.699 1227.66 233.918C1227.66 232.137 1229.1 230.693 1230.88 230.693C1232.65 230.693 1234.09 232.137 1234.09 233.918Z" fill="#FFD28E"/>
<path d="M1178.22 266.162C1178.22 267.943 1176.78 269.386 1175 269.386C1173.22 269.386 1171.78 267.943 1171.78 266.162C1171.78 264.381 1173.22 262.938 1175 262.938C1176.78 262.938 1178.22 264.381 1178.22 266.162Z" fill="#FFD28E"/>
<path d="M1122.34 233.918C1122.34 235.699 1120.9 237.142 1119.12 237.142C1117.35 237.142 1115.91 235.699 1115.91 233.918C1115.91 232.137 1117.35 230.693 1119.12 230.693C1120.9 230.693 1122.34 232.137 1122.34 233.918Z" fill="#FFD28E"/>
<path d="M1178.22 201.673C1178.22 203.454 1176.78 204.898 1175 204.898C1173.22 204.898 1171.78 203.454 1171.78 201.673C1171.78 199.893 1173.22 198.449 1175 198.449C1176.78 198.449 1178.22 199.893 1178.22 201.673Z" fill="#FFD28E"/>
<path fill-rule="evenodd" clip-rule="evenodd" d="M1171.79 74.1599C1171.67 73.8278 1171.61 73.4709 1171.61 73.0994C1171.61 71.3186 1173.05 69.875 1174.82 69.875C1174.85 69.875 1174.88 69.8754 1174.91 69.8762C1174.94 69.8754 1174.97 69.875 1175 69.875C1176.78 69.875 1178.22 71.3186 1178.22 73.0994C1178.22 73.4709 1178.15 73.8278 1178.04 74.1599L1231.91 105.344L1178.04 136.527C1178.15 136.86 1178.22 137.216 1178.22 137.588C1178.22 139.369 1176.78 140.812 1175 140.812C1174.97 140.812 1174.94 140.812 1174.91 140.811C1174.88 140.812 1174.85 140.812 1174.82 140.812C1173.05 140.812 1171.61 139.369 1171.61 137.588C1171.61 137.216 1171.67 136.86 1171.79 136.527L1117.92 105.344L1171.79 74.1599ZM1172.39 75.2067L1120.33 105.344L1172.39 135.481C1172.98 134.797 1173.85 134.364 1174.82 134.364C1174.85 134.364 1174.88 134.364 1174.91 134.365C1174.94 134.364 1174.97 134.364 1175 134.364C1175.97 134.364 1176.84 134.797 1177.43 135.481L1229.5 105.344L1177.43 75.2067C1176.84 75.8909 1175.97 76.3239 1175 76.3239C1174.97 76.3239 1174.94 76.3235 1174.91 76.3227C1174.88 76.3235 1174.85 76.3239 1174.82 76.3239C1173.85 76.3239 1172.98 75.8909 1172.39 75.2067Z" fill="#FFD28E"/>
<path d="M1234.09 105.344C1234.09 107.125 1232.65 108.568 1230.88 108.568C1229.1 108.568 1227.66 107.125 1227.66 105.344C1227.66 103.563 1229.1 102.119 1230.88 102.119C1232.65 102.119 1234.09 103.563 1234.09 105.344Z" fill="#FFD28E"/>
<path d="M1178.22 137.588C1178.22 139.369 1176.78 140.812 1175 140.812C1173.22 140.812 1171.78 139.369 1171.78 137.588C1171.78 135.807 1173.22 134.364 1175 134.364C1176.78 134.364 1178.22 135.807 1178.22 137.588Z" fill="#FFD28E"/>
<path d="M1122.34 105.344C1122.34 107.125 1120.9 108.568 1119.12 108.568C1117.35 108.568 1115.91 107.125 1115.91 105.344C1115.91 103.563 1117.35 102.119 1119.12 102.119C1120.9 102.119 1122.34 103.563 1122.34 105.344Z" fill="#FFD28E"/>
<path d="M1178.22 73.0994C1178.22 74.8802 1176.78 76.3239 1175 76.3239C1173.22 76.3239 1171.78 74.8802 1171.78 73.0994C1171.78 71.3186 1173.22 69.875 1175 69.875C1176.78 69.875 1178.22 71.3186 1178.22 73.0994Z" fill="#FFD28E"/>
<path fill-rule="evenodd" clip-rule="evenodd" d="M1122.22 -22.4585C1122.22 -20.6789 1120.78 -19.2363 1119 -19.2363C1118.97 -19.2363 1118.95 -19.2366 1118.92 -19.2372C1117.97 -19.2087 1117.03 -19.6059 1116.39 -20.3524L1066.09 8.70405C1066.59 10.1365 1066.02 11.7676 1064.65 12.5542C1064.12 12.8629 1063.53 13.0009 1062.96 12.9852C1062.01 13.0112 1061.07 12.6141 1060.43 11.8697L1010.13 40.9261C1010.21 41.161 1010.27 41.4083 1010.29 41.6644C1010.33 42.0467 1010.3 42.4379 1010.2 42.8192C1010.18 42.8958 1010.16 42.9713 1010.13 43.0456L1060.55 72.1704C1061.14 71.4474 1062.04 70.9857 1063.04 70.9857C1064.82 70.9857 1066.26 72.4284 1066.26 74.208C1066.26 75.781 1065.14 77.0908 1063.65 77.3736V135.487C1065.14 135.769 1066.26 137.079 1066.26 138.652C1066.26 140.432 1064.82 141.874 1063.04 141.874C1063.02 141.874 1062.99 141.874 1062.96 141.873C1062.39 141.891 1061.8 141.753 1061.26 141.443C1059.9 140.656 1059.33 139.025 1059.83 137.593L1009.53 108.536C1009.29 108.814 1009.01 109.044 1008.7 109.221C1008.31 109.445 1007.87 109.591 1007.41 109.637C1007.03 109.675 1006.64 109.646 1006.26 109.544C1005.87 109.442 1005.52 109.271 1005.21 109.045C1004.83 108.772 1004.52 108.428 1004.3 108.041C1004.07 107.655 1003.93 107.217 1003.88 106.751C1003.84 106.369 1003.87 105.978 1003.98 105.598C1004.08 105.215 1004.25 104.86 1004.47 104.547C1004.75 104.167 1005.09 103.862 1005.48 103.64C1005.78 103.462 1006.12 103.333 1006.48 103.264V45.1796C1005.72 45.0763 1005 44.7 1004.47 44.0919L954.174 73.1483C954.674 74.5808 954.104 76.2119 952.742 76.9985C951.202 77.8883 949.232 77.3602 948.343 75.8191C947.763 74.8135 947.786 73.625 948.3 72.6733L898.822 44.0919C897.833 45.2415 896.136 45.5629 894.774 44.7763C893.234 43.8865 892.706 41.9159 893.595 40.3747C894.485 38.8335 896.454 38.3055 897.994 39.1953C899.356 39.9818 899.926 41.613 899.426 43.0454L949.077 71.7267C949.214 71.6132 949.363 71.5095 949.522 71.4174C950.884 70.6309 952.581 70.9522 953.57 72.1019L1003.87 43.0454C1003.63 42.346 1003.64 41.5992 1003.87 40.9265L953.57 11.8697C952.581 13.0194 950.884 13.3407 949.522 12.5542C948.187 11.7832 947.613 10.2005 948.062 8.78905L897.615 -20.3524C896.625 -19.2028 894.928 -18.8814 893.566 -19.668C893.002 -19.9939 892.574 -20.4649 892.301 -21.0067L842.263 7.8985C842.763 9.33096 842.193 10.9621 840.831 11.7486C839.291 12.6384 837.321 12.1104 836.432 10.5692C835.543 9.02805 836.07 7.05737 837.611 6.16759C838.972 5.38105 840.669 5.70239 841.659 6.85206L891.966 -22.2081C891.916 -22.8354 892.049 -23.4835 892.388 -24.0696C893.277 -25.6108 895.246 -26.1388 896.787 -25.249C898.148 -24.4625 898.719 -22.8313 898.219 -21.3989L948.637 7.72594C949.617 6.52092 951.354 6.17123 952.742 6.97314C954.104 7.75968 954.674 9.39081 954.174 10.8233L1004.47 39.8796C1004.7 39.6136 1004.98 39.3809 1005.3 39.1953C1005.84 38.8861 1006.42 38.7481 1007 38.7643C1007.31 38.7557 1007.61 38.7906 1007.92 38.8715C1008.3 38.9736 1008.66 39.145 1008.97 39.3715C1009.18 39.5211 1009.36 39.6921 1009.53 39.8796L1059.83 10.8233C1059.58 10.1238 1059.59 9.37704 1059.83 8.70433L1009.53 -20.3524C1008.54 -19.2028 1006.84 -18.8814 1005.48 -19.668C1003.94 -20.5577 1003.41 -22.5284 1004.3 -24.0696C1005.19 -25.6108 1007.16 -26.1388 1008.7 -25.249C1010.06 -24.4625 1010.63 -22.8313 1010.13 -21.3989L1060.43 7.65746C1060.66 7.39146 1060.94 7.15878 1061.26 6.97314C1061.79 6.66447 1062.38 6.52642 1062.95 6.54211C1063.9 6.51614 1064.84 6.91326 1065.48 7.65761L1115.78 -21.3989C1115.53 -22.1064 1115.55 -22.8624 1115.79 -23.5411C1115.88 -24.5534 1116.44 -25.5079 1117.39 -26.0546C1117.71 -26.2402 1118.05 -26.3641 1118.4 -26.43V-83.7371C1116.91 -84.0199 1115.78 -85.3297 1115.78 -86.9028C1115.78 -88.6824 1117.22 -90.125 1119 -90.125C1120.78 -90.125 1122.22 -88.6824 1122.22 -86.9028C1122.22 -85.3297 1121.09 -84.0199 1119.6 -83.7371V-26.4292C1120.3 -26.2953 1120.95 -25.9314 1121.44 -25.3701L1171.74 -54.4266C1171.24 -55.859 1171.81 -57.4902 1173.17 -58.2767C1174.71 -59.1665 1176.68 -58.6385 1177.57 -57.0973C1178.46 -55.5561 1177.93 -53.5855 1176.39 -52.6957C1175.03 -51.9091 1173.33 -52.2305 1172.34 -53.3801L1122.04 -24.3237C1122.21 -23.8456 1122.26 -23.3454 1122.19 -22.8619C1122.21 -22.7298 1122.22 -22.5951 1122.22 -22.4585ZM1008.7 44.777C1008.39 44.9547 1008.05 45.0831 1007.69 45.1515V103.264C1007.72 103.27 1007.76 103.277 1007.79 103.285L1007.81 103.289L1007.83 103.294L1007.84 103.297C1007.88 103.306 1007.91 103.315 1007.95 103.325C1008.32 103.428 1008.67 103.596 1008.97 103.816C1009.35 104.089 1009.65 104.432 1009.88 104.817C1010.1 105.204 1010.25 105.642 1010.29 106.109C1010.33 106.491 1010.3 106.882 1010.2 107.263C1010.18 107.34 1010.16 107.416 1010.13 107.49L1060.43 136.546C1060.95 135.938 1061.67 135.562 1062.44 135.459V77.3736C1060.95 77.0908 1059.82 75.781 1059.82 74.208C1059.82 73.8682 1059.88 73.5408 1059.97 73.2333L1009.53 44.0919C1009.29 44.3701 1009.01 44.5998 1008.7 44.777Z" fill="#FFA26E"/>
<path fill-rule="evenodd" clip-rule="evenodd" d="M82.4233 172.136C80.8851 171.246 80.3581 169.274 81.2462 167.731C82.1342 166.189 84.101 165.661 85.6392 166.551C86.9988 167.338 87.5684 168.971 87.0689 170.404L137.298 199.48C138.286 198.33 139.981 198.008 141.34 198.796C142.879 199.686 143.405 201.658 142.517 203.2C141.629 204.742 139.663 205.271 138.124 204.38C136.765 203.593 136.195 201.961 136.695 200.528L86.4659 171.451C85.4776 172.602 83.7829 172.923 82.4233 172.136Z" fill="#FFD28E"/>
<path fill-rule="evenodd" clip-rule="evenodd" d="M85.6392 365.199C84.101 366.089 82.1342 365.561 81.2462 364.019C80.3581 362.476 80.8851 360.504 82.4233 359.614C83.7829 358.827 85.4776 359.148 86.4659 360.299L136.695 331.222C136.195 329.789 136.765 328.157 138.124 327.37C139.663 326.479 141.629 327.008 142.517 328.55C143.405 330.092 142.879 332.064 141.34 332.954C139.981 333.742 138.286 333.42 137.298 332.27L87.0689 361.346C87.5684 362.779 86.9988 364.412 85.6392 365.199Z" fill="#FFD28E"/>
<path fill-rule="evenodd" clip-rule="evenodd" d="M-360.568 297.918C-360.568 299.699 -362.008 301.142 -363.784 301.142C-365.56 301.142 -367 299.699 -367 297.918C-367 296.344 -365.875 295.033 -364.387 294.75V236.597C-365.875 236.314 -367 235.003 -367 233.429C-367 231.648 -365.56 230.205 -363.784 230.205C-362.008 230.205 -360.568 231.648 -360.568 233.429C-360.568 235.003 -361.693 236.314 -363.181 236.597V294.75C-361.693 295.033 -360.568 296.344 -360.568 297.918Z" fill="#FFD28E"/>
<path fill-rule="evenodd" clip-rule="evenodd" d="M192.568 298.321C192.568 300.102 194.008 301.545 195.784 301.545C197.56 301.545 199 300.102 199 298.321C199 296.747 197.875 295.436 196.387 295.153V237C197.875 236.717 199 235.406 199 233.832C199 232.051 197.56 230.608 195.784 230.608C194.008 230.608 192.568 232.051 192.568 233.832C192.568 235.406 193.693 236.717 195.181 237V295.153C193.693 295.436 192.568 296.747 192.568 298.321Z" fill="#FFD28E"/>
<path fill-rule="evenodd" clip-rule="evenodd" d="M24.5397 331.223C24.4243 330.89 24.3617 330.534 24.3617 330.162C24.3617 328.381 25.8015 326.938 27.5776 326.938C27.6069 326.938 27.6361 326.938 27.6652 326.939C27.6943 326.938 27.7235 326.938 27.7528 326.938C29.5289 326.938 30.9688 328.381 30.9688 330.162C30.9688 330.534 30.9061 330.89 30.7908 331.223L84.66 362.406L30.7908 393.59C30.9061 393.922 30.9688 394.279 30.9688 394.651C30.9688 396.431 29.5289 397.875 27.7528 397.875C27.7235 397.875 27.6943 397.875 27.6652 397.874C27.6361 397.875 27.6069 397.875 27.5776 397.875C25.8015 397.875 24.3617 396.431 24.3617 394.651C24.3617 394.279 24.4243 393.922 24.5397 393.59L-29.3296 362.406L24.5397 331.223ZM25.1434 332.269L-26.9176 362.406L25.1434 392.543C25.7331 391.859 26.6049 391.426 27.5776 391.426C27.6069 391.426 27.6361 391.427 27.6652 391.427C27.6943 391.427 27.7235 391.426 27.7528 391.426C28.7255 391.426 29.5973 391.859 30.187 392.543L82.248 362.406L30.187 332.269C29.5973 332.953 28.7255 333.386 27.7528 333.386C27.7235 333.386 27.6943 333.386 27.6652 333.385C27.6361 333.386 27.6069 333.386 27.5776 333.386C26.6049 333.386 25.7331 332.953 25.1434 332.269Z" fill="#FFD28E"/>
<path d="M86.8452 362.406C86.8452 364.187 85.4053 365.631 83.6292 365.631C81.8531 365.631 80.4133 364.187 80.4133 362.406C80.4133 360.625 81.8531 359.182 83.6292 359.182C85.4053 359.182 86.8452 360.625 86.8452 362.406Z" fill="#FFD28E"/>
<path d="M30.9688 394.651C30.9688 396.431 29.5289 397.875 27.7528 397.875C25.9767 397.875 24.5369 396.431 24.5369 394.651C24.5369 392.87 25.9767 391.426 27.7528 391.426C29.5289 391.426 30.9688 392.87 30.9688 394.651Z" fill="#FFD28E"/>
<path d="M-24.9077 362.406C-24.9077 364.187 -26.3475 365.631 -28.1236 365.631C-29.8997 365.631 -31.3395 364.187 -31.3395 362.406C-31.3395 360.625 -29.8997 359.182 -28.1236 359.182C-26.3475 359.182 -24.9077 360.625 -24.9077 362.406Z" fill="#FFD28E"/>
<path d="M30.9688 330.162C30.9688 331.943 29.5289 333.386 27.7528 333.386C25.9767 333.386 24.5369 331.943 24.5369 330.162C24.5369 328.381 25.9767 326.938 27.7528 326.938C29.5289 326.938 30.9688 328.381 30.9688 330.162Z" fill="#FFD28E"/>
<path fill-rule="evenodd" clip-rule="evenodd" d="M24.5397 202.648C24.4243 202.316 24.3617 201.959 24.3617 201.588C24.3617 199.807 25.8015 198.364 27.5776 198.364C27.6069 198.364 27.6361 198.364 27.6652 198.365C27.6943 198.364 27.7235 198.364 27.7528 198.364C29.5289 198.364 30.9688 199.807 30.9688 201.588C30.9688 201.959 30.9061 202.316 30.7908 202.648L84.66 233.832L30.7908 265.016C30.9061 265.348 30.9688 265.705 30.9688 266.077C30.9688 267.857 29.5289 269.301 27.7528 269.301C27.7235 269.301 27.6943 269.301 27.6652 269.3C27.6361 269.301 27.6069 269.301 27.5776 269.301C25.8015 269.301 24.3617 267.857 24.3617 266.077C24.3617 265.705 24.4243 265.348 24.5397 265.016L-29.3296 233.832L24.5397 202.648ZM25.1434 203.695L-26.9176 233.832L25.1434 263.969C25.7331 263.285 26.6049 262.852 27.5776 262.852C27.6069 262.852 27.6361 262.852 27.6652 262.853C27.6943 262.852 27.7235 262.852 27.7528 262.852C28.7255 262.852 29.5973 263.285 30.187 263.969L82.248 233.832L30.187 203.695C29.5973 204.379 28.7255 204.812 27.7528 204.812C27.7235 204.812 27.6943 204.812 27.6652 204.811C27.6361 204.812 27.6069 204.812 27.5776 204.812C26.6049 204.812 25.7331 204.379 25.1434 203.695Z" fill="#FFD28E"/>
<path d="M86.8452 233.832C86.8452 235.613 85.4053 237.057 83.6292 237.057C81.8531 237.057 80.4133 235.613 80.4133 233.832C80.4133 232.051 81.8531 230.608 83.6292 230.608C85.4053 230.608 86.8452 232.051 86.8452 233.832Z" fill="#FFD28E"/>
<path d="M30.9688 266.077C30.9688 267.857 29.5289 269.301 27.7528 269.301C25.9767 269.301 24.5369 267.857 24.5369 266.077C24.5369 264.296 25.9767 262.852 27.7528 262.852C29.5289 262.852 30.9688 264.296 30.9688 266.077Z" fill="#FFD28E"/>
<path d="M-24.9077 233.832C-24.9077 235.613 -26.3475 237.057 -28.1236 237.057C-29.8997 237.057 -31.3395 235.613 -31.3395 233.832C-31.3395 232.051 -29.8997 230.608 -28.1236 230.608C-26.3475 230.608 -24.9077 232.051 -24.9077 233.832Z" fill="#FFD28E"/>
<path d="M30.9688 201.588C30.9688 203.369 29.5289 204.812 27.7528 204.812C25.9767 204.812 24.5369 203.369 24.5369 201.588C24.5369 199.807 25.9767 198.364 27.7528 198.364C29.5289 198.364 30.9688 199.807 30.9688 201.588Z" fill="#FFD28E"/>
<path fill-rule="evenodd" clip-rule="evenodd" d="M24.5397 266.734C24.4243 266.402 24.3617 266.045 24.3617 265.673C24.3617 263.893 25.8015 262.449 27.5776 262.449C27.6069 262.449 27.6361 262.449 27.6652 262.45C27.6943 262.449 27.7235 262.449 27.7528 262.449C29.5289 262.449 30.9688 263.893 30.9688 265.673C30.9688 266.045 30.9061 266.402 30.7908 266.734L84.66 297.918L30.7908 329.102C30.9061 329.434 30.9688 329.79 30.9688 330.162C30.9688 331.943 29.5289 333.386 27.7528 333.386C27.7235 333.386 27.6943 333.386 27.6652 333.385C27.6361 333.386 27.6069 333.386 27.5776 333.386C25.8015 333.386 24.3617 331.943 24.3617 330.162C24.3617 329.79 24.4243 329.434 24.5397 329.102L-29.3296 297.918L24.5397 266.734ZM25.1434 267.781L-26.9176 297.918L25.1434 328.055C25.7331 327.371 26.6049 326.938 27.5776 326.938C27.6069 326.938 27.6361 326.938 27.6652 326.939C27.6943 326.938 27.7235 326.938 27.7528 326.938C28.7255 326.938 29.5973 327.371 30.187 328.055L82.248 297.918L30.187 267.781C29.5973 268.465 28.7255 268.898 27.7528 268.898C27.7235 268.898 27.6943 268.898 27.6652 268.897C27.6361 268.898 27.6069 268.898 27.5776 268.898C26.6049 268.898 25.7331 268.465 25.1434 267.781Z" fill="#FFD28E"/>
<path d="M86.8452 297.918C86.8452 299.699 85.4053 301.142 83.6292 301.142C81.8531 301.142 80.4133 299.699 80.4133 297.918C80.4133 296.137 81.8531 294.693 83.6292 294.693C85.4053 294.693 86.8452 296.137 86.8452 297.918Z" fill="#FFD28E"/>
<path d="M30.9688 330.162C30.9688 331.943 29.5289 333.386 27.7528 333.386C25.9767 333.386 24.5369 331.943 24.5369 330.162C24.5369 328.381 25.9767 326.938 27.7528 326.938C29.5289 326.938 30.9688 328.381 30.9688 330.162Z" fill="#FFD28E"/>
<path d="M-24.9077 297.918C-24.9077 299.699 -26.3475 301.142 -28.1236 301.142C-29.8997 301.142 -31.3395 299.699 -31.3395 297.918C-31.3395 296.137 -29.8997 294.693 -28.1236 294.693C-26.3475 294.693 -24.9077 296.137 -24.9077 297.918Z" fill="#FFD28E"/>
<path d="M30.9688 265.673C30.9688 267.454 29.5289 268.898 27.7528 268.898C25.9767 268.898 24.5369 267.454 24.5369 265.673C24.5369 263.893 25.9767 262.449 27.7528 262.449C29.5289 262.449 30.9688 263.893 30.9688 265.673Z" fill="#FFD28E"/>
<path fill-rule="evenodd" clip-rule="evenodd" d="M24.5397 138.16C24.4243 137.828 24.3617 137.471 24.3617 137.099C24.3617 135.319 25.8015 133.875 27.5776 133.875C27.6069 133.875 27.6361 133.875 27.6652 133.876C27.6943 133.875 27.7235 133.875 27.7528 133.875C29.5289 133.875 30.9688 135.319 30.9688 137.099C30.9688 137.471 30.9061 137.828 30.7908 138.16L84.66 169.344L30.7908 200.527C30.9061 200.86 30.9688 201.216 30.9688 201.588C30.9688 203.369 29.5289 204.812 27.7528 204.812C27.7235 204.812 27.6943 204.812 27.6652 204.811C27.6361 204.812 27.6069 204.812 27.5776 204.812C25.8015 204.812 24.3617 203.369 24.3617 201.588C24.3617 201.216 24.4243 200.86 24.5397 200.527L-29.3296 169.344L24.5397 138.16ZM25.1434 139.207L-26.9176 169.344L25.1434 199.481C25.7331 198.797 26.6049 198.364 27.5776 198.364C27.6069 198.364 27.6361 198.364 27.6652 198.365C27.6943 198.364 27.7235 198.364 27.7528 198.364C28.7255 198.364 29.5973 198.797 30.187 199.481L82.248 169.344L30.187 139.207C29.5973 139.891 28.7255 140.324 27.7528 140.324C27.7235 140.324 27.6943 140.323 27.6652 140.323C27.6361 140.323 27.6069 140.324 27.5776 140.324C26.6049 140.324 25.7331 139.891 25.1434 139.207Z" fill="#FFD28E"/>
<path d="M86.8452 169.344C86.8452 171.125 85.4053 172.568 83.6292 172.568C81.8531 172.568 80.4133 171.125 80.4133 169.344C80.4133 167.563 81.8531 166.119 83.6292 166.119C85.4053 166.119 86.8452 167.563 86.8452 169.344Z" fill="#FFD28E"/>
<path d="M30.9688 201.588C30.9688 203.369 29.5289 204.812 27.7528 204.812C25.9767 204.812 24.5369 203.369 24.5369 201.588C24.5369 199.807 25.9767 198.364 27.7528 198.364C29.5289 198.364 30.9688 199.807 30.9688 201.588Z" fill="#FFD28E"/>
<path d="M-24.9077 169.344C-24.9077 171.125 -26.3475 172.568 -28.1236 172.568C-29.8997 172.568 -31.3395 171.125 -31.3395 169.344C-31.3395 167.563 -29.8997 166.119 -28.1236 166.119C-26.3475 166.119 -24.9077 167.563 -24.9077 169.344Z" fill="#FFD28E"/>
<path d="M30.9688 137.099C30.9688 138.88 29.5289 140.324 27.7528 140.324C25.9767 140.324 24.5369 138.88 24.5369 137.099C24.5369 135.319 25.9767 133.875 27.7528 133.875C29.5289 133.875 30.9688 135.319 30.9688 137.099Z" fill="#FFD28E"/>
<path fill-rule="evenodd" clip-rule="evenodd" d="M-199.368 331.223C-199.483 330.89 -199.546 330.534 -199.546 330.162C-199.546 328.381 -198.106 326.938 -196.33 326.938C-196.301 326.938 -196.272 326.938 -196.242 326.939C-196.213 326.938 -196.184 326.938 -196.155 326.938C-194.379 326.938 -192.939 328.381 -192.939 330.162C-192.939 330.534 -193.002 330.89 -193.117 331.223L-139.248 362.406L-193.117 393.59C-193.002 393.922 -192.939 394.279 -192.939 394.651C-192.939 396.431 -194.379 397.875 -196.155 397.875C-196.184 397.875 -196.213 397.875 -196.242 397.874C-196.272 397.875 -196.301 397.875 -196.33 397.875C-198.106 397.875 -199.546 396.431 -199.546 394.651C-199.546 394.279 -199.483 393.922 -199.368 393.59L-253.237 362.406L-199.368 331.223ZM-198.764 332.269L-250.825 362.406L-198.764 392.543C-198.175 391.859 -197.303 391.426 -196.33 391.426C-196.301 391.426 -196.272 391.427 -196.242 391.427C-196.213 391.427 -196.184 391.426 -196.155 391.426C-195.182 391.426 -194.31 391.859 -193.721 392.543L-141.66 362.406L-193.721 332.269C-194.31 332.953 -195.182 333.386 -196.155 333.386C-196.184 333.386 -196.213 333.386 -196.242 333.385C-196.272 333.386 -196.301 333.386 -196.33 333.386C-197.303 333.386 -198.175 332.953 -198.764 332.269Z" fill="#FFD28E"/>
<path d="M-137.062 362.406C-137.062 364.187 -138.502 365.631 -140.278 365.631C-142.055 365.631 -143.494 364.187 -143.494 362.406C-143.494 360.625 -142.055 359.182 -140.278 359.182C-138.502 359.182 -137.062 360.625 -137.062 362.406Z" fill="#FFD28E"/>
<path d="M-192.939 394.651C-192.939 396.431 -194.379 397.875 -196.155 397.875C-197.931 397.875 -199.371 396.431 -199.371 394.651C-199.371 392.87 -197.931 391.426 -196.155 391.426C-194.379 391.426 -192.939 392.87 -192.939 394.651Z" fill="#FFD28E"/>
<path d="M-248.815 362.406C-248.815 364.187 -250.255 365.631 -252.031 365.631C-253.807 365.631 -255.247 364.187 -255.247 362.406C-255.247 360.625 -253.807 359.182 -252.031 359.182C-250.255 359.182 -248.815 360.625 -248.815 362.406Z" fill="#FFD28E"/>
<path d="M-192.939 330.162C-192.939 331.943 -194.379 333.386 -196.155 333.386C-197.931 333.386 -199.371 331.943 -199.371 330.162C-199.371 328.381 -197.931 326.938 -196.155 326.938C-194.379 326.938 -192.939 328.381 -192.939 330.162Z" fill="#FFD28E"/>
<path fill-rule="evenodd" clip-rule="evenodd" d="M-199.368 202.648C-199.483 202.316 -199.546 201.959 -199.546 201.588C-199.546 199.807 -198.106 198.364 -196.33 198.364C-196.301 198.364 -196.272 198.364 -196.242 198.365C-196.213 198.364 -196.184 198.364 -196.155 198.364C-194.379 198.364 -192.939 199.807 -192.939 201.588C-192.939 201.959 -193.002 202.316 -193.117 202.648L-139.248 233.832L-193.117 265.016C-193.002 265.348 -192.939 265.705 -192.939 266.077C-192.939 267.857 -194.379 269.301 -196.155 269.301C-196.184 269.301 -196.213 269.301 -196.242 269.3C-196.272 269.301 -196.301 269.301 -196.33 269.301C-198.106 269.301 -199.546 267.857 -199.546 266.077C-199.546 265.705 -199.483 265.348 -199.368 265.016L-253.237 233.832L-199.368 202.648ZM-198.764 203.695L-250.825 233.832L-198.764 263.969C-198.175 263.285 -197.303 262.852 -196.33 262.852C-196.301 262.852 -196.272 262.852 -196.242 262.853C-196.213 262.852 -196.184 262.852 -196.155 262.852C-195.182 262.852 -194.31 263.285 -193.721 263.969L-141.66 233.832L-193.721 203.695C-194.31 204.379 -195.182 204.812 -196.155 204.812C-196.184 204.812 -196.213 204.812 -196.242 204.811C-196.272 204.812 -196.301 204.812 -196.33 204.812C-197.303 204.812 -198.175 204.379 -198.764 203.695Z" fill="#FFD28E"/>
<path d="M-137.062 233.832C-137.062 235.613 -138.502 237.057 -140.278 237.057C-142.055 237.057 -143.494 235.613 -143.494 233.832C-143.494 232.051 -142.055 230.608 -140.278 230.608C-138.502 230.608 -137.062 232.051 -137.062 233.832Z" fill="#FFD28E"/>
<path d="M-192.939 266.077C-192.939 267.857 -194.379 269.301 -196.155 269.301C-197.931 269.301 -199.371 267.857 -199.371 266.077C-199.371 264.296 -197.931 262.852 -196.155 262.852C-194.379 262.852 -192.939 264.296 -192.939 266.077Z" fill="#FFD28E"/>
<path d="M-248.815 233.832C-248.815 235.613 -250.255 237.057 -252.031 237.057C-253.807 237.057 -255.247 235.613 -255.247 233.832C-255.247 232.051 -253.807 230.608 -252.031 230.608C-250.255 230.608 -248.815 232.051 -248.815 233.832Z" fill="#FFD28E"/>
<path d="M-192.939 201.588C-192.939 203.369 -194.379 204.812 -196.155 204.812C-197.931 204.812 -199.371 203.369 -199.371 201.588C-199.371 199.807 -197.931 198.364 -196.155 198.364C-194.379 198.364 -192.939 199.807 -192.939 201.588Z" fill="#FFD28E"/>
<path fill-rule="evenodd" clip-rule="evenodd" d="M-255.244 170.404C-255.36 170.072 -255.422 169.715 -255.422 169.344C-255.422 167.563 -253.983 166.119 -252.206 166.119C-252.177 166.119 -252.148 166.12 -252.119 166.12C-252.09 166.12 -252.061 166.119 -252.031 166.119C-250.255 166.119 -248.815 167.563 -248.815 169.344C-248.815 169.715 -248.878 170.072 -248.993 170.404L-195.124 201.588L-248.993 232.772C-248.878 233.104 -248.815 233.461 -248.815 233.832C-248.815 235.613 -250.255 237.057 -252.031 237.057C-252.061 237.057 -252.09 237.056 -252.119 237.056C-252.148 237.056 -252.177 237.057 -252.206 237.057C-253.983 237.057 -255.422 235.613 -255.422 233.832C-255.422 233.461 -255.36 233.104 -255.244 232.772L-309.114 201.588L-255.244 170.404ZM-254.641 171.451L-306.702 201.588L-254.641 231.725C-254.051 231.041 -253.179 230.608 -252.206 230.608C-252.177 230.608 -252.148 230.608 -252.119 230.609C-252.09 230.608 -252.061 230.608 -252.031 230.608C-251.059 230.608 -250.187 231.041 -249.597 231.725L-197.536 201.588L-249.597 171.451C-250.187 172.135 -251.059 172.568 -252.031 172.568C-252.061 172.568 -252.09 172.568 -252.119 172.567C-252.148 172.568 -252.177 172.568 -252.206 172.568C-253.179 172.568 -254.051 172.135 -254.641 171.451Z" fill="#FFD28E"/>
<path d="M-192.939 201.588C-192.939 203.369 -194.379 204.812 -196.155 204.812C-197.931 204.812 -199.371 203.369 -199.371 201.588C-199.371 199.807 -197.931 198.364 -196.155 198.364C-194.379 198.364 -192.939 199.807 -192.939 201.588Z" fill="#FFD28E"/>
<path d="M-248.815 233.832C-248.815 235.613 -250.255 237.057 -252.031 237.057C-253.807 237.057 -255.247 235.613 -255.247 233.832C-255.247 232.051 -253.807 230.608 -252.031 230.608C-250.255 230.608 -248.815 232.051 -248.815 233.832Z" fill="#FFD28E"/>
<path d="M-304.692 201.588C-304.692 203.369 -306.132 204.812 -307.908 204.812C-309.684 204.812 -311.124 203.369 -311.124 201.588C-311.124 199.807 -309.684 198.364 -307.908 198.364C-306.132 198.364 -304.692 199.807 -304.692 201.588Z" fill="#FFD28E"/>
<path d="M-248.815 169.344C-248.815 171.125 -250.255 172.568 -252.031 172.568C-253.807 172.568 -255.247 171.125 -255.247 169.344C-255.247 167.563 -253.807 166.119 -252.031 166.119C-250.255 166.119 -248.815 167.563 -248.815 169.344Z" fill="#FFD28E"/>
<path fill-rule="evenodd" clip-rule="evenodd" d="M-311.121 202.245C-311.236 201.913 -311.299 201.556 -311.299 201.185C-311.299 199.404 -309.859 197.96 -308.083 197.96C-308.054 197.96 -308.024 197.961 -307.995 197.962C-307.966 197.961 -307.937 197.96 -307.908 197.96C-306.132 197.96 -304.692 199.404 -304.692 201.185C-304.692 201.556 -304.754 201.913 -304.87 202.245L-251.001 233.429L-304.87 264.613C-304.754 264.945 -304.692 265.302 -304.692 265.673C-304.692 267.454 -306.132 268.898 -307.908 268.898C-307.937 268.898 -307.966 268.898 -307.995 268.897C-308.024 268.898 -308.054 268.898 -308.083 268.898C-309.859 268.898 -311.299 267.454 -311.299 265.673C-311.299 265.302 -311.236 264.945 -311.121 264.613L-364.99 233.429L-311.121 202.245ZM-310.517 203.292L-362.578 233.429L-310.517 263.566C-309.927 262.882 -309.056 262.449 -308.083 262.449C-308.054 262.449 -308.024 262.449 -307.995 262.45C-307.966 262.449 -307.937 262.449 -307.908 262.449C-306.935 262.449 -306.063 262.882 -305.473 263.566L-253.412 233.429L-305.473 203.292C-306.063 203.976 -306.935 204.409 -307.908 204.409C-307.937 204.409 -307.966 204.409 -307.995 204.408C-308.024 204.409 -308.054 204.409 -308.083 204.409C-309.056 204.409 -309.927 203.976 -310.517 203.292Z" fill="#FFD28E"/>
<path d="M-248.815 233.429C-248.815 235.21 -250.255 236.654 -252.031 236.654C-253.807 236.654 -255.247 235.21 -255.247 233.429C-255.247 231.648 -253.807 230.205 -252.031 230.205C-250.255 230.205 -248.815 231.648 -248.815 233.429Z" fill="#FFD28E"/>
<path d="M-304.692 265.673C-304.692 267.454 -306.132 268.898 -307.908 268.898C-309.684 268.898 -311.124 267.454 -311.124 265.673C-311.124 263.893 -309.684 262.449 -307.908 262.449C-306.132 262.449 -304.692 263.893 -304.692 265.673Z" fill="#FFD28E"/>
<path d="M-360.568 233.429C-360.568 235.21 -362.008 236.654 -363.784 236.654C-365.56 236.654 -367 235.21 -367 233.429C-367 231.648 -365.56 230.205 -363.784 230.205C-362.008 230.205 -360.568 231.648 -360.568 233.429Z" fill="#FFD28E"/>
<path d="M-304.692 201.185C-304.692 202.966 -306.132 204.409 -307.908 204.409C-309.684 204.409 -311.124 202.966 -311.124 201.185C-311.124 199.404 -309.684 197.96 -307.908 197.96C-306.132 197.96 -304.692 199.404 -304.692 201.185Z" fill="#FFD28E"/>
<path fill-rule="evenodd" clip-rule="evenodd" d="M143.121 202.648C143.236 202.316 143.299 201.959 143.299 201.588C143.299 199.807 141.859 198.364 140.083 198.364C140.054 198.364 140.024 198.364 139.995 198.365C139.966 198.364 139.937 198.364 139.908 198.364C138.132 198.364 136.692 199.807 136.692 201.588C136.692 201.959 136.754 202.316 136.87 202.648L83.0005 233.832L136.87 265.016C136.754 265.348 136.692 265.705 136.692 266.077C136.692 267.857 138.132 269.301 139.908 269.301C139.937 269.301 139.966 269.301 139.995 269.3C140.024 269.301 140.054 269.301 140.083 269.301C141.859 269.301 143.299 267.857 143.299 266.077C143.299 265.705 143.236 265.348 143.121 265.016L196.99 233.832L143.121 202.648ZM142.517 203.695L194.578 233.832L142.517 263.969C141.927 263.285 141.056 262.852 140.083 262.852C140.054 262.852 140.024 262.852 139.995 262.853C139.966 262.852 139.937 262.852 139.908 262.852C138.935 262.852 138.063 263.285 137.473 263.969L85.4124 233.832L137.473 203.695C138.063 204.379 138.935 204.812 139.908 204.812C139.937 204.812 139.966 204.812 139.995 204.811C140.024 204.812 140.054 204.812 140.083 204.812C141.056 204.812 141.927 204.379 142.517 203.695Z" fill="#FFD28E"/>
<path d="M80.8153 233.832C80.8153 235.613 82.2551 237.057 84.0312 237.057C85.8073 237.057 87.2472 235.613 87.2472 233.832C87.2472 232.051 85.8073 230.608 84.0312 230.608C82.2551 230.608 80.8153 232.051 80.8153 233.832Z" fill="#FFD28E"/>
<path d="M136.692 266.077C136.692 267.857 138.132 269.301 139.908 269.301C141.684 269.301 143.124 267.857 143.124 266.077C143.124 264.296 141.684 262.852 139.908 262.852C138.132 262.852 136.692 264.296 136.692 266.077Z" fill="#FFD28E"/>
<path d="M192.568 233.832C192.568 235.613 194.008 237.057 195.784 237.057C197.56 237.057 199 235.613 199 233.832C199 232.051 197.56 230.608 195.784 230.608C194.008 230.608 192.568 232.051 192.568 233.832Z" fill="#FFD28E"/>
<path d="M136.692 201.588C136.692 203.369 138.132 204.812 139.908 204.812C141.684 204.812 143.124 203.369 143.124 201.588C143.124 199.807 141.684 198.364 139.908 198.364C138.132 198.364 136.692 199.807 136.692 201.588Z" fill="#FFD28E"/>
<path fill-rule="evenodd" clip-rule="evenodd" d="M-311.121 266.734C-311.236 266.402 -311.299 266.045 -311.299 265.673C-311.299 263.893 -309.859 262.449 -308.083 262.449C-308.054 262.449 -308.024 262.449 -307.995 262.45C-307.966 262.449 -307.937 262.449 -307.908 262.449C-306.132 262.449 -304.692 263.893 -304.692 265.673C-304.692 266.045 -304.754 266.402 -304.87 266.734L-251.001 297.918L-304.87 329.102C-304.754 329.434 -304.692 329.79 -304.692 330.162C-304.692 331.943 -306.132 333.386 -307.908 333.386C-307.937 333.386 -307.966 333.386 -307.995 333.385C-308.024 333.386 -308.054 333.386 -308.083 333.386C-309.859 333.386 -311.299 331.943 -311.299 330.162C-311.299 329.79 -311.236 329.434 -311.121 329.102L-364.99 297.918L-311.121 266.734ZM-310.517 267.781L-362.578 297.918L-310.517 328.055C-309.927 327.371 -309.056 326.938 -308.083 326.938C-308.054 326.938 -308.024 326.938 -307.995 326.939C-307.966 326.938 -307.937 326.938 -307.908 326.938C-306.935 326.938 -306.063 327.371 -305.473 328.055L-253.412 297.918L-305.473 267.781C-306.063 268.465 -306.935 268.898 -307.908 268.898C-307.937 268.898 -307.966 268.898 -307.995 268.897C-308.024 268.898 -308.054 268.898 -308.083 268.898C-309.056 268.898 -309.927 268.465 -310.517 267.781Z" fill="#FFD28E"/>
<path d="M-248.815 297.918C-248.815 299.699 -250.255 301.142 -252.031 301.142C-253.807 301.142 -255.247 299.699 -255.247 297.918C-255.247 296.137 -253.807 294.693 -252.031 294.693C-250.255 294.693 -248.815 296.137 -248.815 297.918Z" fill="#FFD28E"/>
<path d="M-304.692 330.162C-304.692 331.943 -306.132 333.386 -307.908 333.386C-309.684 333.386 -311.124 331.943 -311.124 330.162C-311.124 328.381 -309.684 326.938 -307.908 326.938C-306.132 326.938 -304.692 328.381 -304.692 330.162Z" fill="#FFD28E"/>
<path d="M-360.568 297.918C-360.568 299.699 -362.008 301.142 -363.784 301.142C-365.56 301.142 -367 299.699 -367 297.918C-367 296.137 -365.56 294.693 -363.784 294.693C-362.008 294.693 -360.568 296.137 -360.568 297.918Z" fill="#FFD28E"/>
<path d="M-304.692 265.673C-304.692 267.454 -306.132 268.898 -307.908 268.898C-309.684 268.898 -311.124 267.454 -311.124 265.673C-311.124 263.893 -309.684 262.449 -307.908 262.449C-306.132 262.449 -304.692 263.893 -304.692 265.673Z" fill="#FFD28E"/>
<path fill-rule="evenodd" clip-rule="evenodd" d="M143.121 267.137C143.236 266.805 143.299 266.448 143.299 266.077C143.299 264.296 141.859 262.852 140.083 262.852C140.054 262.852 140.024 262.852 139.995 262.853C139.966 262.852 139.937 262.852 139.908 262.852C138.132 262.852 136.692 264.296 136.692 266.077C136.692 266.448 136.754 266.805 136.87 267.137L83.0005 298.321L136.87 329.505C136.754 329.837 136.692 330.194 136.692 330.565C136.692 332.346 138.132 333.79 139.908 333.79C139.937 333.79 139.966 333.789 139.995 333.788C140.024 333.789 140.054 333.79 140.083 333.79C141.859 333.79 143.299 332.346 143.299 330.565C143.299 330.194 143.236 329.837 143.121 329.505L196.99 298.321L143.121 267.137ZM142.517 268.184L194.578 298.321L142.517 328.458C141.927 327.774 141.056 327.341 140.083 327.341C140.054 327.341 140.024 327.341 139.995 327.342C139.966 327.341 139.937 327.341 139.908 327.341C138.935 327.341 138.063 327.774 137.473 328.458L85.4124 298.321L137.473 268.184C138.063 268.868 138.935 269.301 139.908 269.301C139.937 269.301 139.966 269.301 139.995 269.3C140.024 269.301 140.054 269.301 140.083 269.301C141.056 269.301 141.927 268.868 142.517 268.184Z" fill="#FFD28E"/>
<path d="M80.8153 298.321C80.8153 300.102 82.2551 301.545 84.0312 301.545C85.8073 301.545 87.2472 300.102 87.2472 298.321C87.2472 296.54 85.8073 295.096 84.0312 295.096C82.2551 295.096 80.8153 296.54 80.8153 298.321Z" fill="#FFD28E"/>
<path d="M136.692 330.565C136.692 332.346 138.132 333.79 139.908 333.79C141.684 333.79 143.124 332.346 143.124 330.565C143.124 328.784 141.684 327.341 139.908 327.341C138.132 327.341 136.692 328.784 136.692 330.565Z" fill="#FFD28E"/>
<path d="M192.568 298.321C192.568 300.102 194.008 301.545 195.784 301.545C197.56 301.545 199 300.102 199 298.321C199 296.54 197.56 295.096 195.784 295.096C194.008 295.096 192.568 296.54 192.568 298.321Z" fill="#FFD28E"/>
<path d="M136.692 266.077C136.692 267.857 138.132 269.301 139.908 269.301C141.684 269.301 143.124 267.857 143.124 266.077C143.124 264.296 141.684 262.852 139.908 262.852C138.132 262.852 136.692 264.296 136.692 266.077Z" fill="#FFD28E"/>
<path fill-rule="evenodd" clip-rule="evenodd" d="M-255.244 234.49C-255.36 234.158 -255.422 233.801 -255.422 233.429C-255.422 231.648 -253.983 230.205 -252.206 230.205C-252.177 230.205 -252.148 230.205 -252.119 230.206C-252.09 230.205 -252.061 230.205 -252.031 230.205C-250.255 230.205 -248.815 231.648 -248.815 233.429C-248.815 233.801 -248.878 234.158 -248.993 234.49L-195.124 265.673L-248.993 296.857C-248.878 297.189 -248.815 297.546 -248.815 297.918C-248.815 299.699 -250.255 301.142 -252.031 301.142C-252.061 301.142 -252.09 301.142 -252.119 301.141C-252.148 301.142 -252.177 301.142 -252.206 301.142C-253.983 301.142 -255.422 299.699 -255.422 297.918C-255.422 297.546 -255.36 297.189 -255.244 296.857L-309.114 265.673L-255.244 234.49ZM-254.641 235.536L-306.702 265.673L-254.641 295.811C-254.051 295.126 -253.179 294.693 -252.206 294.693C-252.177 294.693 -252.148 294.694 -252.119 294.695C-252.09 294.694 -252.061 294.693 -252.031 294.693C-251.059 294.693 -250.187 295.126 -249.597 295.811L-197.536 265.673L-249.597 235.536C-250.187 236.221 -251.059 236.654 -252.031 236.654C-252.061 236.654 -252.09 236.653 -252.119 236.652C-252.148 236.653 -252.177 236.654 -252.206 236.654C-253.179 236.654 -254.051 236.221 -254.641 235.536Z" fill="#FFD28E"/>
<path d="M-192.939 265.673C-192.939 267.454 -194.379 268.898 -196.155 268.898C-197.931 268.898 -199.371 267.454 -199.371 265.673C-199.371 263.893 -197.931 262.449 -196.155 262.449C-194.379 262.449 -192.939 263.893 -192.939 265.673Z" fill="#FFD28E"/>
<path d="M-248.815 297.918C-248.815 299.699 -250.255 301.142 -252.031 301.142C-253.807 301.142 -255.247 299.699 -255.247 297.918C-255.247 296.137 -253.807 294.693 -252.031 294.693C-250.255 294.693 -248.815 296.137 -248.815 297.918Z" fill="#FFD28E"/>
<path d="M-304.692 265.673C-304.692 267.454 -306.132 268.898 -307.908 268.898C-309.684 268.898 -311.124 267.454 -311.124 265.673C-311.124 263.893 -309.684 262.449 -307.908 262.449C-306.132 262.449 -304.692 263.893 -304.692 265.673Z" fill="#FFD28E"/>
<path d="M-248.815 233.429C-248.815 235.21 -250.255 236.654 -252.031 236.654C-253.807 236.654 -255.247 235.21 -255.247 233.429C-255.247 231.648 -253.807 230.205 -252.031 230.205C-250.255 230.205 -248.815 231.648 -248.815 233.429Z" fill="#FFD28E"/>
<path fill-rule="evenodd" clip-rule="evenodd" d="M-255.244 298.978C-255.36 298.646 -255.422 298.289 -255.422 297.918C-255.422 296.137 -253.983 294.693 -252.206 294.693C-252.177 294.693 -252.148 294.694 -252.119 294.695C-252.09 294.694 -252.061 294.693 -252.031 294.693C-250.255 294.693 -248.815 296.137 -248.815 297.918C-248.815 298.289 -248.878 298.646 -248.993 298.978L-195.124 330.162L-248.993 361.346C-248.878 361.678 -248.815 362.035 -248.815 362.406C-248.815 364.187 -250.255 365.631 -252.031 365.631C-252.061 365.631 -252.09 365.63 -252.119 365.63C-252.148 365.63 -252.177 365.631 -252.206 365.631C-253.983 365.631 -255.422 364.187 -255.422 362.406C-255.422 362.035 -255.36 361.678 -255.244 361.346L-309.114 330.162L-255.244 298.978ZM-254.641 300.025L-306.702 330.162L-254.641 360.299C-254.051 359.615 -253.179 359.182 -252.206 359.182C-252.177 359.182 -252.148 359.182 -252.119 359.183C-252.09 359.182 -252.061 359.182 -252.031 359.182C-251.059 359.182 -250.187 359.615 -249.597 360.299L-197.536 330.162L-249.597 300.025C-250.187 300.709 -251.059 301.142 -252.031 301.142C-252.061 301.142 -252.09 301.142 -252.119 301.141C-252.148 301.142 -252.177 301.142 -252.206 301.142C-253.179 301.142 -254.051 300.709 -254.641 300.025Z" fill="#FFD28E"/>
<path d="M-192.939 330.162C-192.939 331.943 -194.379 333.386 -196.155 333.386C-197.931 333.386 -199.371 331.943 -199.371 330.162C-199.371 328.381 -197.931 326.938 -196.155 326.938C-194.379 326.938 -192.939 328.381 -192.939 330.162Z" fill="#FFD28E"/>
<path d="M-248.815 362.406C-248.815 364.187 -250.255 365.631 -252.031 365.631C-253.807 365.631 -255.247 364.187 -255.247 362.406C-255.247 360.625 -253.807 359.182 -252.031 359.182C-250.255 359.182 -248.815 360.625 -248.815 362.406Z" fill="#FFD28E"/>
<path d="M-304.692 330.162C-304.692 331.943 -306.132 333.386 -307.908 333.386C-309.684 333.386 -311.124 331.943 -311.124 330.162C-311.124 328.381 -309.684 326.938 -307.908 326.938C-306.132 326.938 -304.692 328.381 -304.692 330.162Z" fill="#FFD28E"/>
<path d="M-248.815 297.918C-248.815 299.699 -250.255 301.142 -252.031 301.142C-253.807 301.142 -255.247 299.699 -255.247 297.918C-255.247 296.137 -253.807 294.693 -252.031 294.693C-250.255 294.693 -248.815 296.137 -248.815 297.918Z" fill="#FFD28E"/>
<path fill-rule="evenodd" clip-rule="evenodd" d="M-199.368 266.734C-199.483 266.402 -199.546 266.045 -199.546 265.673C-199.546 263.893 -198.106 262.449 -196.33 262.449C-196.301 262.449 -196.272 262.449 -196.242 262.45C-196.213 262.449 -196.184 262.449 -196.155 262.449C-194.379 262.449 -192.939 263.893 -192.939 265.673C-192.939 266.045 -193.002 266.402 -193.117 266.734L-139.248 297.918L-193.117 329.102C-193.002 329.434 -192.939 329.79 -192.939 330.162C-192.939 331.943 -194.379 333.386 -196.155 333.386C-196.184 333.386 -196.213 333.386 -196.242 333.385C-196.272 333.386 -196.301 333.386 -196.33 333.386C-198.106 333.386 -199.546 331.943 -199.546 330.162C-199.546 329.79 -199.483 329.434 -199.368 329.102L-253.237 297.918L-199.368 266.734ZM-198.764 267.781L-250.825 297.918L-198.764 328.055C-198.175 327.371 -197.303 326.938 -196.33 326.938C-196.301 326.938 -196.272 326.938 -196.242 326.939C-196.213 326.938 -196.184 326.938 -196.155 326.938C-195.182 326.938 -194.31 327.371 -193.721 328.055L-141.66 297.918L-193.721 267.781C-194.31 268.465 -195.182 268.898 -196.155 268.898C-196.184 268.898 -196.213 268.898 -196.242 268.897C-196.272 268.898 -196.301 268.898 -196.33 268.898C-197.303 268.898 -198.175 268.465 -198.764 267.781Z" fill="#FFD28E"/>
<path d="M-137.062 297.918C-137.062 299.699 -138.502 301.142 -140.278 301.142C-142.055 301.142 -143.494 299.699 -143.494 297.918C-143.494 296.137 -142.055 294.693 -140.278 294.693C-138.502 294.693 -137.062 296.137 -137.062 297.918Z" fill="#FFD28E"/>
<path d="M-192.939 330.162C-192.939 331.943 -194.379 333.386 -196.155 333.386C-197.931 333.386 -199.371 331.943 -199.371 330.162C-199.371 328.381 -197.931 326.938 -196.155 326.938C-194.379 326.938 -192.939 328.381 -192.939 330.162Z" fill="#FFD28E"/>
<path d="M-248.815 297.918C-248.815 299.699 -250.255 301.142 -252.031 301.142C-253.807 301.142 -255.247 299.699 -255.247 297.918C-255.247 296.137 -253.807 294.693 -252.031 294.693C-250.255 294.693 -248.815 296.137 -248.815 297.918Z" fill="#FFD28E"/>
<path d="M-192.939 265.673C-192.939 267.454 -194.379 268.898 -196.155 268.898C-197.931 268.898 -199.371 267.454 -199.371 265.673C-199.371 263.893 -197.931 262.449 -196.155 262.449C-194.379 262.449 -192.939 263.893 -192.939 265.673Z" fill="#FFD28E"/>
<path fill-rule="evenodd" clip-rule="evenodd" d="M-199.368 138.16C-199.483 137.828 -199.546 137.471 -199.546 137.099C-199.546 135.319 -198.106 133.875 -196.33 133.875C-196.301 133.875 -196.272 133.875 -196.242 133.876C-196.213 133.875 -196.184 133.875 -196.155 133.875C-194.379 133.875 -192.939 135.319 -192.939 137.099C-192.939 137.471 -193.002 137.828 -193.117 138.16L-139.248 169.344L-193.117 200.527C-193.002 200.86 -192.939 201.216 -192.939 201.588C-192.939 203.369 -194.379 204.812 -196.155 204.812C-196.184 204.812 -196.213 204.812 -196.242 204.811C-196.272 204.812 -196.301 204.812 -196.33 204.812C-198.106 204.812 -199.546 203.369 -199.546 201.588C-199.546 201.216 -199.483 200.86 -199.368 200.527L-253.237 169.344L-199.368 138.16ZM-198.764 139.207L-250.825 169.344L-198.764 199.481C-198.175 198.797 -197.303 198.364 -196.33 198.364C-196.301 198.364 -196.272 198.364 -196.242 198.365C-196.213 198.364 -196.184 198.364 -196.155 198.364C-195.182 198.364 -194.31 198.797 -193.721 199.481L-141.66 169.344L-193.721 139.207C-194.31 139.891 -195.182 140.324 -196.155 140.324C-196.184 140.324 -196.213 140.323 -196.242 140.323C-196.272 140.323 -196.301 140.324 -196.33 140.324C-197.303 140.324 -198.175 139.891 -198.764 139.207Z" fill="#FFD28E"/>
<path d="M-137.062 169.344C-137.062 171.125 -138.502 172.568 -140.278 172.568C-142.055 172.568 -143.494 171.125 -143.494 169.344C-143.494 167.563 -142.055 166.119 -140.278 166.119C-138.502 166.119 -137.062 167.563 -137.062 169.344Z" fill="#FFD28E"/>
<path d="M-192.939 201.588C-192.939 203.369 -194.379 204.812 -196.155 204.812C-197.931 204.812 -199.371 203.369 -199.371 201.588C-199.371 199.807 -197.931 198.364 -196.155 198.364C-194.379 198.364 -192.939 199.807 -192.939 201.588Z" fill="#FFD28E"/>
<path d="M-248.815 169.344C-248.815 171.125 -250.255 172.568 -252.031 172.568C-253.807 172.568 -255.247 171.125 -255.247 169.344C-255.247 167.563 -253.807 166.119 -252.031 166.119C-250.255 166.119 -248.815 167.563 -248.815 169.344Z" fill="#FFD28E"/>
<path d="M-192.939 137.099C-192.939 138.88 -194.379 140.324 -196.155 140.324C-197.931 140.324 -199.371 138.88 -199.371 137.099C-199.371 135.319 -197.931 133.875 -196.155 133.875C-194.379 133.875 -192.939 135.319 -192.939 137.099Z" fill="#FFD28E"/>
<path fill-rule="evenodd" clip-rule="evenodd" d="M-87.2132 331.223C-87.3285 330.89 -87.3911 330.534 -87.3911 330.162C-87.3911 328.381 -85.9513 326.938 -84.1752 326.938C-84.1459 326.938 -84.1167 326.938 -84.0876 326.939C-84.0585 326.938 -84.0293 326.938 -84 326.938C-82.2239 326.938 -80.7841 328.381 -80.7841 330.162C-80.7841 330.534 -80.8468 330.89 -80.9621 331.223L-27.0929 362.406L-80.9621 393.59C-80.8468 393.922 -80.7841 394.279 -80.7841 394.651C-80.7841 396.431 -82.2239 397.875 -84 397.875C-84.0293 397.875 -84.0585 397.875 -84.0876 397.874C-84.1167 397.875 -84.1459 397.875 -84.1752 397.875C-85.9513 397.875 -87.3911 396.431 -87.3911 394.651C-87.3911 394.279 -87.3285 393.922 -87.2132 393.59L-141.082 362.406L-87.2132 331.223ZM-86.6095 332.269L-138.67 362.406L-86.6095 392.543C-86.0198 391.859 -85.1479 391.426 -84.1752 391.426C-84.1459 391.426 -84.1167 391.427 -84.0876 391.427C-84.0585 391.427 -84.0293 391.426 -84 391.426C-83.0273 391.426 -82.1555 391.859 -81.5658 392.543L-29.5048 362.406L-81.5658 332.269C-82.1555 332.953 -83.0273 333.386 -84 333.386C-84.0293 333.386 -84.0585 333.386 -84.0876 333.385C-84.1167 333.386 -84.1459 333.386 -84.1752 333.386C-85.1479 333.386 -86.0198 332.953 -86.6095 332.269Z" fill="#FFD28E"/>
<path d="M-24.9077 362.406C-24.9077 364.187 -26.3475 365.631 -28.1236 365.631C-29.8997 365.631 -31.3395 364.187 -31.3395 362.406C-31.3395 360.625 -29.8997 359.182 -28.1236 359.182C-26.3475 359.182 -24.9077 360.625 -24.9077 362.406Z" fill="#FFD28E"/>
<path d="M-80.7841 394.651C-80.7841 396.431 -82.2239 397.875 -84 397.875C-85.7761 397.875 -87.2159 396.431 -87.2159 394.651C-87.2159 392.87 -85.7761 391.426 -84 391.426C-82.2239 391.426 -80.7841 392.87 -80.7841 394.651Z" fill="#FFD28E"/>
<path d="M-136.661 362.406C-136.661 364.187 -138.1 365.631 -139.876 365.631C-141.653 365.631 -143.092 364.187 -143.092 362.406C-143.092 360.625 -141.653 359.182 -139.876 359.182C-138.1 359.182 -136.661 360.625 -136.661 362.406Z" fill="#FFD28E"/>
<path d="M-80.7841 330.162C-80.7841 331.943 -82.2239 333.386 -84 333.386C-85.7761 333.386 -87.2159 331.943 -87.2159 330.162C-87.2159 328.381 -85.7761 326.938 -84 326.938C-82.2239 326.938 -80.7841 328.381 -80.7841 330.162Z" fill="#FFD28E"/>
<path fill-rule="evenodd" clip-rule="evenodd" d="M-87.2132 202.648C-87.3285 202.316 -87.3911 201.959 -87.3911 201.588C-87.3911 199.807 -85.9513 198.364 -84.1752 198.364C-84.1459 198.364 -84.1167 198.364 -84.0876 198.365C-84.0585 198.364 -84.0293 198.364 -84 198.364C-82.2239 198.364 -80.7841 199.807 -80.7841 201.588C-80.7841 201.959 -80.8468 202.316 -80.9621 202.648L-27.0929 233.832L-80.9621 265.016C-80.8468 265.348 -80.7841 265.705 -80.7841 266.077C-80.7841 267.857 -82.2239 269.301 -84 269.301C-84.0293 269.301 -84.0585 269.301 -84.0876 269.3C-84.1167 269.301 -84.1459 269.301 -84.1752 269.301C-85.9513 269.301 -87.3911 267.857 -87.3911 266.077C-87.3911 265.705 -87.3285 265.348 -87.2132 265.016L-141.082 233.832L-87.2132 202.648ZM-86.6095 203.695L-138.67 233.832L-86.6095 263.969C-86.0198 263.285 -85.1479 262.852 -84.1752 262.852C-84.1459 262.852 -84.1167 262.852 -84.0876 262.853C-84.0585 262.852 -84.0293 262.852 -84 262.852C-83.0273 262.852 -82.1555 263.285 -81.5658 263.969L-29.5048 233.832L-81.5658 203.695C-82.1555 204.379 -83.0273 204.812 -84 204.812C-84.0293 204.812 -84.0585 204.812 -84.0876 204.811C-84.1167 204.812 -84.1459 204.812 -84.1752 204.812C-85.1479 204.812 -86.0198 204.379 -86.6095 203.695Z" fill="#FFD28E"/>
<path d="M-24.9077 233.832C-24.9077 235.613 -26.3475 237.057 -28.1236 237.057C-29.8997 237.057 -31.3395 235.613 -31.3395 233.832C-31.3395 232.051 -29.8997 230.608 -28.1236 230.608C-26.3475 230.608 -24.9077 232.051 -24.9077 233.832Z" fill="#FFD28E"/>
<path d="M-80.7841 266.077C-80.7841 267.857 -82.2239 269.301 -84 269.301C-85.7761 269.301 -87.2159 267.857 -87.2159 266.077C-87.2159 264.296 -85.7761 262.852 -84 262.852C-82.2239 262.852 -80.7841 264.296 -80.7841 266.077Z" fill="#FFD28E"/>
<path d="M-136.661 233.832C-136.661 235.613 -138.1 237.057 -139.876 237.057C-141.653 237.057 -143.092 235.613 -143.092 233.832C-143.092 232.051 -141.653 230.608 -139.876 230.608C-138.1 230.608 -136.661 232.051 -136.661 233.832Z" fill="#FFD28E"/>
<path d="M-80.7841 201.588C-80.7841 203.369 -82.2239 204.812 -84 204.812C-85.7761 204.812 -87.2159 203.369 -87.2159 201.588C-87.2159 199.807 -85.7761 198.364 -84 198.364C-82.2239 198.364 -80.7841 199.807 -80.7841 201.588Z" fill="#FFD28E"/>
<path fill-rule="evenodd" clip-rule="evenodd" d="M-87.2132 266.734C-87.3285 266.402 -87.3911 266.045 -87.3911 265.673C-87.3911 263.893 -85.9513 262.449 -84.1752 262.449C-84.1459 262.449 -84.1167 262.449 -84.0876 262.45C-84.0585 262.449 -84.0293 262.449 -84 262.449C-82.2239 262.449 -80.7841 263.893 -80.7841 265.673C-80.7841 266.045 -80.8468 266.402 -80.9621 266.734L-27.0929 297.918L-80.9621 329.102C-80.8468 329.434 -80.7841 329.79 -80.7841 330.162C-80.7841 331.943 -82.2239 333.386 -84 333.386C-84.0293 333.386 -84.0585 333.386 -84.0876 333.385C-84.1167 333.386 -84.1459 333.386 -84.1752 333.386C-85.9513 333.386 -87.3911 331.943 -87.3911 330.162C-87.3911 329.79 -87.3285 329.434 -87.2132 329.102L-141.082 297.918L-87.2132 266.734ZM-86.6095 267.781L-138.67 297.918L-86.6095 328.055C-86.0198 327.371 -85.1479 326.938 -84.1752 326.938C-84.1459 326.938 -84.1167 326.938 -84.0876 326.939C-84.0585 326.938 -84.0293 326.938 -84 326.938C-83.0273 326.938 -82.1555 327.371 -81.5658 328.055L-29.5048 297.918L-81.5658 267.781C-82.1555 268.465 -83.0273 268.898 -84 268.898C-84.0293 268.898 -84.0585 268.898 -84.0876 268.897C-84.1167 268.898 -84.1459 268.898 -84.1752 268.898C-85.1479 268.898 -86.0198 268.465 -86.6095 267.781Z" fill="#FFD28E"/>
<path d="M-24.9077 297.918C-24.9077 299.699 -26.3475 301.142 -28.1236 301.142C-29.8997 301.142 -31.3395 299.699 -31.3395 297.918C-31.3395 296.137 -29.8997 294.693 -28.1236 294.693C-26.3475 294.693 -24.9077 296.137 -24.9077 297.918Z" fill="#FFD28E"/>
<path d="M-80.7841 330.162C-80.7841 331.943 -82.2239 333.386 -84 333.386C-85.7761 333.386 -87.2159 331.943 -87.2159 330.162C-87.2159 328.381 -85.7761 326.938 -84 326.938C-82.2239 326.938 -80.7841 328.381 -80.7841 330.162Z" fill="#FFD28E"/>
<path d="M-136.661 297.918C-136.661 299.699 -138.1 301.142 -139.876 301.142C-141.653 301.142 -143.092 299.699 -143.092 297.918C-143.092 296.137 -141.653 294.693 -139.876 294.693C-138.1 294.693 -136.661 296.137 -136.661 297.918Z" fill="#FFD28E"/>
<path d="M-80.7841 265.673C-80.7841 267.454 -82.2239 268.898 -84 268.898C-85.7761 268.898 -87.2159 267.454 -87.2159 265.673C-87.2159 263.893 -85.7761 262.449 -84 262.449C-82.2239 262.449 -80.7841 263.893 -80.7841 265.673Z" fill="#FFD28E"/>
<path fill-rule="evenodd" clip-rule="evenodd" d="M-87.2132 138.16C-87.3285 137.828 -87.3911 137.471 -87.3911 137.099C-87.3911 135.319 -85.9513 133.875 -84.1752 133.875C-84.1459 133.875 -84.1167 133.875 -84.0876 133.876C-84.0585 133.875 -84.0293 133.875 -84 133.875C-82.2239 133.875 -80.7841 135.319 -80.7841 137.099C-80.7841 137.471 -80.8468 137.828 -80.9621 138.16L-27.0929 169.344L-80.9621 200.527C-80.8468 200.86 -80.7841 201.216 -80.7841 201.588C-80.7841 203.369 -82.2239 204.812 -84 204.812C-84.0293 204.812 -84.0585 204.812 -84.0876 204.811C-84.1167 204.812 -84.1459 204.812 -84.1752 204.812C-85.9513 204.812 -87.3911 203.369 -87.3911 201.588C-87.3911 201.216 -87.3285 200.86 -87.2132 200.527L-141.082 169.344L-87.2132 138.16ZM-86.6095 139.207L-138.67 169.344L-86.6095 199.481C-86.0198 198.797 -85.1479 198.364 -84.1752 198.364C-84.1459 198.364 -84.1167 198.364 -84.0876 198.365C-84.0585 198.364 -84.0293 198.364 -84 198.364C-83.0273 198.364 -82.1555 198.797 -81.5658 199.481L-29.5048 169.344L-81.5658 139.207C-82.1555 139.891 -83.0273 140.324 -84 140.324C-84.0293 140.324 -84.0585 140.323 -84.0876 140.323C-84.1167 140.323 -84.1459 140.324 -84.1752 140.324C-85.1479 140.324 -86.0198 139.891 -86.6095 139.207Z" fill="#FFD28E"/>
<path d="M-24.9077 169.344C-24.9077 171.125 -26.3475 172.568 -28.1236 172.568C-29.8997 172.568 -31.3395 171.125 -31.3395 169.344C-31.3395 167.563 -29.8997 166.119 -28.1236 166.119C-26.3475 166.119 -24.9077 167.563 -24.9077 169.344Z" fill="#FFD28E"/>
<path d="M-80.7841 201.588C-80.7841 203.369 -82.2239 204.812 -84 204.812C-85.7761 204.812 -87.2159 203.369 -87.2159 201.588C-87.2159 199.807 -85.7761 198.364 -84 198.364C-82.2239 198.364 -80.7841 199.807 -80.7841 201.588Z" fill="#FFD28E"/>
<path d="M-136.661 169.344C-136.661 171.125 -138.1 172.568 -139.876 172.568C-141.653 172.568 -143.092 171.125 -143.092 169.344C-143.092 167.563 -141.653 166.119 -139.876 166.119C-138.1 166.119 -136.661 167.563 -136.661 169.344Z" fill="#FFD28E"/>
<path d="M-80.7841 137.099C-80.7841 138.88 -82.2239 140.324 -84 140.324C-85.7761 140.324 -87.2159 138.88 -87.2159 137.099C-87.2159 135.319 -85.7761 133.875 -84 133.875C-82.2239 133.875 -80.7841 135.319 -80.7841 137.099Z" fill="#FFD28E"/>
<path fill-rule="evenodd" clip-rule="evenodd" d="M142.219 7.54151C142.219 9.32109 140.778 10.7637 138.999 10.7637C138.973 10.7637 138.948 10.7634 138.922 10.7628C137.969 10.7913 137.028 10.3941 136.385 9.64757L86.0853 38.704C86.5855 40.1365 86.0151 41.7676 84.6535 42.5542C84.1192 42.8629 83.5332 43.0009 82.9586 42.9852C82.0078 43.0112 81.0705 42.6141 80.4297 41.8697L30.13 70.9261C30.2117 71.161 30.267 71.4083 30.2924 71.6644C30.331 72.0467 30.3017 72.4379 30.1995 72.8192C30.179 72.8958 30.1558 72.9713 30.13 73.0456L80.5483 102.17C81.1389 101.447 82.0372 100.986 83.0433 100.986C84.8219 100.986 86.2638 102.428 86.2638 104.208C86.2638 105.781 85.1371 107.091 83.6472 107.374V165.487C85.1371 165.769 86.2638 167.079 86.2638 168.652C86.2638 170.432 84.8219 171.874 83.0433 171.874C83.0166 171.874 82.99 171.874 82.9634 171.873C82.3853 171.891 81.7953 171.753 81.2576 171.443C79.896 170.656 79.3256 169.025 79.8258 167.593L29.5259 138.536C29.2864 138.814 29.0056 139.044 28.6981 139.221C28.3116 139.445 27.8742 139.591 27.4076 139.637C27.0267 139.675 26.6369 139.646 26.257 139.544C25.8739 139.442 25.5189 139.271 25.2061 139.045C24.8259 138.772 24.5206 138.428 24.298 138.041C24.0747 137.655 23.9292 137.217 23.8831 136.751C23.8445 136.369 23.8737 135.978 23.9758 135.598C24.0779 135.215 24.2487 134.86 24.4743 134.547C24.7468 134.167 25.0903 133.862 25.4758 133.64C25.7832 133.462 26.1229 133.333 26.4839 133.264V75.1796C25.719 75.0763 24.9976 74.7 24.4741 74.0919L-25.8259 103.148C-25.3256 104.581 -25.896 106.212 -27.2576 106.998C-28.7979 107.888 -30.7675 107.36 -31.6568 105.819C-32.2371 104.813 -32.2141 103.625 -31.7001 102.673L-81.1776 74.0919C-82.1674 75.2415 -83.8644 75.5629 -85.226 74.7763C-86.7663 73.8865 -87.2941 71.9159 -86.4048 70.3747C-85.5154 68.8335 -83.5458 68.3055 -82.0055 69.1953C-80.6439 69.9818 -80.0735 71.613 -80.5738 73.0454L-30.9233 101.727C-30.786 101.613 -30.6375 101.51 -30.4781 101.417C-29.1165 100.631 -27.4195 100.952 -26.4297 102.102L23.8703 73.0454C23.626 72.346 23.637 71.5992 23.8708 70.9265L-26.4297 41.8697C-27.4195 43.0194 -29.1165 43.3407 -30.4781 42.5542C-31.8128 41.7832 -32.3872 40.2005 -31.9382 38.7891L-82.3853 9.64757C-83.375 10.7972 -85.0721 11.1186 -86.4337 10.332C-86.9979 10.0061 -87.4263 9.53509 -87.6989 8.99329L-137.737 37.8985C-137.237 39.331 -137.807 40.9621 -139.169 41.7486C-140.709 42.6384 -142.679 42.1104 -143.568 40.5692C-144.457 39.0281 -143.93 37.0574 -142.389 36.1676C-141.028 35.3811 -139.331 35.7024 -138.341 36.8521L-88.0345 7.79185C-88.0839 7.16463 -87.9506 6.51646 -87.6124 5.9304C-86.7231 4.38924 -84.7535 3.8612 -83.2132 4.75099C-81.8516 5.53753 -81.2812 7.16866 -81.7814 8.60113L-31.3632 37.7259C-30.3827 36.5209 -28.6458 36.1712 -27.2576 36.9731C-25.896 37.7597 -25.3256 39.3908 -25.8259 40.8233L24.4738 69.8796C24.7034 69.6136 24.9807 69.3809 25.302 69.1953C25.8373 68.8861 26.4244 68.7481 27.0001 68.7643C27.3057 68.7557 27.6146 68.7906 27.9173 68.8715C28.3013 68.9736 28.6572 69.145 28.9707 69.3715C29.1787 69.5211 29.3643 69.6921 29.5261 69.8796L79.8258 40.8233C79.5816 40.1238 79.5926 39.377 79.8263 38.7043L29.5259 9.64757C28.5361 10.7972 26.8391 11.1186 25.4775 10.332C23.9372 9.44225 23.4094 7.47157 24.2987 5.9304C25.188 4.38924 27.1576 3.8612 28.698 4.75099C30.0596 5.53753 30.6299 7.16866 30.1297 8.60113L80.4294 37.6575C80.659 37.3915 80.9362 37.1588 81.2576 36.9731C81.7919 36.6645 82.3779 36.5264 82.9526 36.5421C83.9034 36.5161 84.8406 36.9133 85.4815 37.6576L135.781 8.60113C135.534 7.89362 135.548 7.13764 135.79 6.45891C135.878 5.44661 136.442 4.49207 137.389 3.94543C137.71 3.7598 138.05 3.63588 138.395 3.57V-53.7371C136.905 -54.0199 135.778 -55.3297 135.778 -56.9028C135.778 -58.6824 137.22 -60.125 138.999 -60.125C140.778 -60.125 142.219 -58.6824 142.219 -56.9028C142.219 -55.3297 141.093 -54.0199 139.603 -53.7371V3.57084C140.302 3.70469 140.954 4.06855 141.437 4.62991L191.737 -24.4266C191.237 -25.859 191.807 -27.4902 193.169 -28.2767C194.709 -29.1665 196.679 -28.6385 197.568 -27.0973C198.457 -25.5561 197.93 -23.5855 196.389 -22.6957C195.028 -21.9091 193.331 -22.2305 192.341 -23.3801L142.041 5.67635C142.208 6.15439 142.256 6.65456 142.194 7.13807C142.211 7.27023 142.219 7.40488 142.219 7.54151ZM28.6979 74.777C28.3909 74.9547 28.0519 75.0831 27.6916 75.1515V133.264C27.7246 133.27 27.7576 133.277 27.7905 133.285L27.809 133.289L27.8292 133.294L27.8431 133.297C27.8789 133.306 27.9146 133.315 27.9503 133.325C28.3219 133.428 28.6665 133.596 28.9711 133.816C29.3499 134.089 29.6542 134.432 29.8763 134.817C30.1003 135.204 30.2462 135.642 30.2924 136.109C30.331 136.491 30.3017 136.882 30.1995 137.263C30.179 137.34 30.1558 137.416 30.13 137.49L80.4297 166.546C80.9532 165.938 81.6745 165.562 82.4395 165.459V107.374C80.9495 107.091 79.8229 105.781 79.8229 104.208C79.8229 103.868 79.8754 103.541 79.9728 103.233L29.5259 74.0919C29.2864 74.3701 29.0055 74.5998 28.6979 74.777Z" fill="#FFA26E"/>
</g>
<defs>
<clipPath id="clip0_108_3174">
<rect y="-0.125" width="1220" height="269" rx="30" fill="white"/>
</clipPath>
</defs>
</svg>
