<svg width="32" height="32" viewBox="0 0 32 32" fill="none" xmlns="http://www.w3.org/2000/svg">
<path fill-rule="evenodd" clip-rule="evenodd" d="M13.334 11.9936C13.334 9.79005 11.54 7.99805 9.33398 7.99805C7.12798 7.99805 5.33398 9.79005 5.33398 11.9936C5.33398 14.1972 7.12798 15.9892 9.33398 15.9892C11.54 15.9892 13.334 14.1972 13.334 11.9936ZM16.0003 11.9932C16.0003 15.6652 13.0097 18.6525 9.33366 18.6525C5.65766 18.6525 2.66699 15.6652 2.66699 11.9932C2.66699 8.32133 5.65766 5.33398 9.33366 5.33398C13.0097 5.33398 16.0003 8.32133 16.0003 11.9932ZM24.0007 10.6621C22.53 10.6621 21.334 11.8568 21.334 13.3258C21.334 14.7948 22.53 15.9895 24.0007 15.9895C25.4713 15.9895 26.6673 14.7948 26.6673 13.3258C26.6673 11.8568 25.4713 10.6621 24.0007 10.6621ZM24.0003 7.99805C26.941 7.99805 29.3337 10.3881 29.3337 13.3255C29.3337 16.2629 26.941 18.6529 24.0003 18.6529C21.0597 18.6529 18.667 16.2629 18.667 13.3255C18.667 10.3881 21.0597 7.99805 24.0003 7.99805Z" fill="url(#paint0_angular_141_20149)"/>
<path fill-rule="evenodd" clip-rule="evenodd" d="M18.0758 24.2282L17.6191 23.9233C12.4324 20.4544 6.23708 20.4524 1.04642 23.9186L0.591749 24.2223C-0.0202507 24.6311 -0.184251 25.4589 0.225749 26.0702C0.634416 26.6802 1.46108 26.8453 2.07508 26.4358L2.52908 26.1328C6.85242 23.2447 11.8118 23.2447 16.1357 26.1361L16.5911 26.4411C16.8191 26.5936 17.0771 26.6669 17.3324 26.6669C17.7618 26.6669 18.1838 26.4598 18.4411 26.0762C18.8511 25.4649 18.6877 24.6378 18.0758 24.2282Z" fill="url(#paint1_linear_141_20149)"/>
<path fill-rule="evenodd" clip-rule="evenodd" d="M31.5031 24.298L31.1231 23.9923C28.2624 21.6969 24.9151 20.8399 21.7018 21.579C20.9838 21.7442 20.5364 22.4587 20.7011 23.1753C20.8664 23.8925 21.5838 24.3406 22.2991 24.1748C24.7391 23.6134 27.2111 24.27 29.4518 26.068L29.8311 26.373C30.0778 26.5715 30.3731 26.6674 30.6664 26.6674C31.0564 26.6674 31.4424 26.4976 31.7064 26.1706C32.1678 25.5972 32.0764 24.7588 31.5031 24.298Z" fill="url(#paint2_linear_141_20149)"/>
<defs>
<radialGradient id="paint0_angular_141_20149" cx="0" cy="0" r="1" gradientUnits="userSpaceOnUse" gradientTransform="translate(19.1824 11.2446) rotate(45.4659) scale(12.9623 17.0406)">
<stop offset="0.106247" stop-color="#5094FF"/>
<stop offset="0.345648" stop-color="#78B4FF"/>
<stop offset="0.66178" stop-color="#BFDFFC"/>
<stop offset="0.856214" stop-color="#BBDBFC"/>
<stop offset="0.997984" stop-color="#5076FF"/>
</radialGradient>
<linearGradient id="paint1_linear_141_20149" x1="5.19728" y1="19.9838" x2="6.78376" y2="29.2995" gradientUnits="userSpaceOnUse">
<stop offset="0.307292" stop-color="#5094FF"/>
<stop offset="0.765625" stop-color="#78DFFF"/>
</linearGradient>
<linearGradient id="paint2_linear_141_20149" x1="23.8225" y1="19.9837" x2="26.3156" y2="28.8711" gradientUnits="userSpaceOnUse">
<stop stop-color="#50CAFF"/>
<stop offset="0.765625" stop-color="#78DFFF"/>
</linearGradient>
</defs>
</svg>
