<svg width="33" height="32" viewBox="0 0 33 32" fill="none" xmlns="http://www.w3.org/2000/svg">
<path fill-rule="evenodd" clip-rule="evenodd" d="M8.50233 5.33335C7.76657 5.33335 7.16822 5.93135 7.16822 6.66669V25.3334C7.16822 26.0687 7.76657 26.6667 8.50233 26.6667H24.4977C25.2334 26.6667 25.8318 26.0687 25.8318 25.3334V6.66669C25.8318 5.93135 25.2334 5.33335 24.4977 5.33335H8.50233ZM24.4977 29.3334H8.50233C6.29505 29.3334 4.5 27.5394 4.5 25.3334V6.66669C4.5 4.46069 6.29505 2.66669 8.50233 2.66669H24.4977C26.705 2.66669 28.5 4.46069 28.5 6.66669V25.3334C28.5 27.5394 26.705 29.3334 24.4977 29.3334ZM9.83645 16.6667C9.83645 17.0347 10.1353 17.3334 10.5035 17.3334H22.5105C22.8787 17.3334 23.1776 17.0347 23.1776 16.6667V14C23.1776 13.6314 22.8787 13.3334 22.5105 13.3334H10.5035C10.1353 13.3334 9.83645 13.6314 9.83645 14V16.6667ZM10.5035 24C10.1353 24 9.83645 23.7014 9.83645 23.3334V20.6667C9.83645 20.298 10.1353 20 10.5035 20H22.5105C22.8787 20 23.1776 20.298 23.1776 20.6667V23.3334C23.1776 23.7014 22.8787 24 22.5105 24H10.5035ZM16.507 10.6667H9.83645V8.00002H16.507V10.6667Z" fill="url(#paint0_linear_330_3484)"/>
<path fill-rule="evenodd" clip-rule="evenodd" d="M8.50233 5.33335C7.76657 5.33335 7.16822 5.93135 7.16822 6.66669V25.3334C7.16822 26.0687 7.76657 26.6667 8.50233 26.6667H24.4977C25.2334 26.6667 25.8318 26.0687 25.8318 25.3334V6.66669C25.8318 5.93135 25.2334 5.33335 24.4977 5.33335H8.50233ZM24.4977 29.3334H8.50233C6.29505 29.3334 4.5 27.5394 4.5 25.3334V6.66669C4.5 4.46069 6.29505 2.66669 8.50233 2.66669H24.4977C26.705 2.66669 28.5 4.46069 28.5 6.66669V25.3334C28.5 27.5394 26.705 29.3334 24.4977 29.3334ZM9.83645 16.6667C9.83645 17.0347 10.1353 17.3334 10.5035 17.3334H22.5105C22.8787 17.3334 23.1776 17.0347 23.1776 16.6667V14C23.1776 13.6314 22.8787 13.3334 22.5105 13.3334H10.5035C10.1353 13.3334 9.83645 13.6314 9.83645 14V16.6667ZM10.5035 24C10.1353 24 9.83645 23.7014 9.83645 23.3334V20.6667C9.83645 20.298 10.1353 20 10.5035 20H22.5105C22.8787 20 23.1776 20.298 23.1776 20.6667V23.3334C23.1776 23.7014 22.8787 24 22.5105 24H10.5035ZM16.507 10.6667H9.83645V8.00002H16.507V10.6667Z" fill="url(#paint1_angular_330_3484)" fill-opacity="0.2"/>
<defs>
<linearGradient id="paint0_linear_330_3484" x1="4.5" y1="11.5001" x2="28.5" y2="22.5001" gradientUnits="userSpaceOnUse">
<stop offset="0.28125" stop-color="#5094FF"/>
<stop offset="0.739583" stop-color="#78DFFF"/>
</linearGradient>
<radialGradient id="paint1_angular_330_3484" cx="0" cy="0" r="1" gradientUnits="userSpaceOnUse" gradientTransform="translate(16.5 16) rotate(60.0184) scale(15.0084 13.5075)">
<stop offset="0.0677083" stop-color="#BFDFFC"/>
<stop offset="0.385417" stop-color="#5094FF"/>
<stop offset="0.682292" stop-color="#78B4FF"/>
<stop offset="0.885417" stop-color="#5076FF"/>
</radialGradient>
</defs>
</svg>
