<svg width="33" height="32" viewBox="0 0 33 32" fill="none" xmlns="http://www.w3.org/2000/svg">
<path fill-rule="evenodd" clip-rule="evenodd" d="M16.071 2.66602L1.83301 12.6338V14.6623H4.49967V26.5667H1.83301V29.2347H4.49967V29.3327H7.16634V29.2347H25.833V29.3327H28.4997V29.2347H31.1663V26.5667H28.4997V14.6623H31.1663V12.6338L16.9323 2.66602H16.071ZM16.5021 5.62109L25.6041 11.9954H7.39746L16.5021 5.62109ZM7.16602 26.5664H25.8327V14.6621H7.16602V26.5664Z" fill="url(#paint0_angular_141_20245)"/>
<path fill-rule="evenodd" clip-rule="evenodd" d="M9.83301 22.335C9.83301 23.0714 10.43 23.6683 11.1663 23.6683C11.9027 23.6683 12.4997 23.0714 12.4997 22.335V18.3333C12.4997 17.597 11.9027 17 11.1663 17C10.43 17 9.83301 17.597 9.83301 18.3333V22.335Z" fill="url(#paint1_linear_141_20245)"/>
<path fill-rule="evenodd" clip-rule="evenodd" d="M15.166 22.335C15.166 23.0714 15.763 23.6683 16.4993 23.6683C17.2357 23.6683 17.8327 23.0714 17.8327 22.335V18.3333C17.8327 17.597 17.2357 17 16.4993 17C15.763 17 15.166 17.597 15.166 18.3333V22.335Z" fill="url(#paint2_linear_141_20245)"/>
<path fill-rule="evenodd" clip-rule="evenodd" d="M20.5 22.335C20.5 23.0714 21.097 23.6683 21.8333 23.6683C22.5697 23.6683 23.1667 23.0714 23.1667 22.335V18.3333C23.1667 17.597 22.5697 17 21.8333 17C21.097 17 20.5 17.597 20.5 18.3333V22.335Z" fill="url(#paint3_linear_141_20245)"/>
<defs>
<radialGradient id="paint0_angular_141_20245" cx="0" cy="0" r="1" gradientUnits="userSpaceOnUse" gradientTransform="translate(20 14.5) rotate(61.607) scale(21.0297 23.1327)">
<stop offset="0.106247" stop-color="#5094FF"/>
<stop offset="0.345648" stop-color="#78B4FF"/>
<stop offset="0.66178" stop-color="#BFDFFC"/>
<stop offset="0.856214" stop-color="#BBDBFC"/>
<stop offset="0.997984" stop-color="#5076FF"/>
</radialGradient>
<linearGradient id="paint1_linear_141_20245" x1="11.1663" y1="17" x2="11.1663" y2="23.6683" gradientUnits="userSpaceOnUse">
<stop stop-color="#238EDB"/>
<stop offset="1" stop-color="#2EBFDF"/>
</linearGradient>
<linearGradient id="paint2_linear_141_20245" x1="16.4993" y1="17" x2="16.4993" y2="23.6683" gradientUnits="userSpaceOnUse">
<stop stop-color="#238EDB"/>
<stop offset="1" stop-color="#2EBFDF"/>
</linearGradient>
<linearGradient id="paint3_linear_141_20245" x1="21.8333" y1="17" x2="21.8333" y2="23.6683" gradientUnits="userSpaceOnUse">
<stop stop-color="#238EDB"/>
<stop offset="1" stop-color="#2EBFDF"/>
</linearGradient>
</defs>
</svg>
