<svg width="275" height="545" viewBox="0 0 275 545" fill="none" xmlns="http://www.w3.org/2000/svg">
<g clip-path="url(#clip0_210_13730)">
<rect width="275" height="545" rx="32" fill="#FFE4E6"/>
<rect width="275" height="545" rx="32" fill="url(#paint0_linear_210_13730)"/>
<g clip-path="url(#clip1_210_13730)">
<path fill-rule="evenodd" clip-rule="evenodd" d="M448.423 403.261C446.885 402.371 446.358 400.399 447.246 398.856C448.134 397.314 450.101 396.786 451.639 397.676C452.999 398.463 453.568 400.096 453.069 401.529L503.298 430.605C504.286 429.455 505.981 429.133 507.34 429.921C508.879 430.811 509.405 432.783 508.517 434.325C507.629 435.867 505.663 436.396 504.124 435.505C502.765 434.718 502.195 433.086 502.695 431.653L452.466 402.576C451.478 403.727 449.783 404.048 448.423 403.261Z" fill="#D5D1FF"/>
<path fill-rule="evenodd" clip-rule="evenodd" d="M451.639 596.324C450.101 597.214 448.134 596.686 447.246 595.144C446.358 593.601 446.885 591.629 448.423 590.739C449.783 589.952 451.478 590.273 452.466 591.424L502.695 562.347C502.195 560.914 502.765 559.282 504.124 558.495C505.663 557.604 507.629 558.133 508.517 559.675C509.405 561.217 508.879 563.189 507.34 564.079C505.981 564.867 504.286 564.545 503.298 563.395L453.069 592.471C453.568 593.904 452.999 595.537 451.639 596.324Z" fill="#D5D1FF"/>
<path fill-rule="evenodd" clip-rule="evenodd" d="M5.43182 529.043C5.43182 530.824 3.99201 532.267 2.21591 532.267C0.439811 532.267 -1 530.824 -1 529.043C-1 527.469 0.125049 526.158 1.61293 525.875V467.722C0.125049 467.439 -1 466.128 -1 464.554C-1 462.773 0.439811 461.33 2.21591 461.33C3.99201 461.33 5.43182 462.773 5.43182 464.554C5.43182 466.128 4.30677 467.439 2.81889 467.722V525.875C4.30677 526.158 5.43182 527.469 5.43182 529.043Z" fill="#D5D1FF"/>
<path fill-rule="evenodd" clip-rule="evenodd" d="M558.568 529.446C558.568 531.227 560.008 532.67 561.784 532.67C563.56 532.67 565 531.227 565 529.446C565 527.872 563.875 526.561 562.387 526.278V468.125C563.875 467.842 565 466.531 565 464.957C565 463.176 563.56 461.733 561.784 461.733C560.008 461.733 558.568 463.176 558.568 464.957C558.568 466.531 559.693 467.842 561.181 468.125V526.278C559.693 526.561 558.568 527.872 558.568 529.446Z" fill="#D5D1FF"/>
<path fill-rule="evenodd" clip-rule="evenodd" d="M390.54 562.348C390.424 562.015 390.362 561.659 390.362 561.287C390.362 559.506 391.802 558.063 393.578 558.063C393.607 558.063 393.636 558.063 393.665 558.064C393.694 558.063 393.724 558.063 393.753 558.063C395.529 558.063 396.969 559.506 396.969 561.287C396.969 561.659 396.906 562.015 396.791 562.348L450.66 593.531L396.791 624.715C396.906 625.047 396.969 625.404 396.969 625.776C396.969 627.556 395.529 629 393.753 629C393.724 629 393.694 629 393.665 628.999C393.636 629 393.607 629 393.578 629C391.802 629 390.362 627.556 390.362 625.776C390.362 625.404 390.424 625.047 390.54 624.715L336.67 593.531L390.54 562.348ZM391.143 563.394L339.082 593.531L391.143 623.668C391.733 622.984 392.605 622.551 393.578 622.551C393.607 622.551 393.636 622.552 393.665 622.552C393.694 622.552 393.724 622.551 393.753 622.551C394.726 622.551 395.597 622.984 396.187 623.668L448.248 593.531L396.187 563.394C395.597 564.078 394.726 564.511 393.753 564.511C393.724 564.511 393.694 564.511 393.665 564.51C393.636 564.511 393.607 564.511 393.578 564.511C392.605 564.511 391.733 564.078 391.143 563.394Z" fill="#D5D1FF"/>
<path d="M452.845 593.531C452.845 595.312 451.405 596.756 449.629 596.756C447.853 596.756 446.413 595.312 446.413 593.531C446.413 591.75 447.853 590.307 449.629 590.307C451.405 590.307 452.845 591.75 452.845 593.531Z" fill="#D5D1FF"/>
<path d="M396.969 625.776C396.969 627.556 395.529 629 393.753 629C391.977 629 390.537 627.556 390.537 625.776C390.537 623.995 391.977 622.551 393.753 622.551C395.529 622.551 396.969 623.995 396.969 625.776Z" fill="#D5D1FF"/>
<path d="M341.092 593.531C341.092 595.312 339.652 596.756 337.876 596.756C336.1 596.756 334.66 595.312 334.66 593.531C334.66 591.75 336.1 590.307 337.876 590.307C339.652 590.307 341.092 591.75 341.092 593.531Z" fill="#D5D1FF"/>
<path d="M396.969 561.287C396.969 563.068 395.529 564.511 393.753 564.511C391.977 564.511 390.537 563.068 390.537 561.287C390.537 559.506 391.977 558.063 393.753 558.063C395.529 558.063 396.969 559.506 396.969 561.287Z" fill="#D5D1FF"/>
<path fill-rule="evenodd" clip-rule="evenodd" d="M390.54 433.773C390.424 433.441 390.362 433.084 390.362 432.713C390.362 430.932 391.802 429.489 393.578 429.489C393.607 429.489 393.636 429.489 393.665 429.49C393.694 429.489 393.724 429.489 393.753 429.489C395.529 429.489 396.969 430.932 396.969 432.713C396.969 433.084 396.906 433.441 396.791 433.773L450.66 464.957L396.791 496.141C396.906 496.473 396.969 496.83 396.969 497.202C396.969 498.982 395.529 500.426 393.753 500.426C393.724 500.426 393.694 500.426 393.665 500.425C393.636 500.426 393.607 500.426 393.578 500.426C391.802 500.426 390.362 498.982 390.362 497.202C390.362 496.83 390.424 496.473 390.54 496.141L336.67 464.957L390.54 433.773ZM391.143 434.82L339.082 464.957L391.143 495.094C391.733 494.41 392.605 493.977 393.578 493.977C393.607 493.977 393.636 493.977 393.665 493.978C393.694 493.977 393.724 493.977 393.753 493.977C394.726 493.977 395.597 494.41 396.187 495.094L448.248 464.957L396.187 434.82C395.597 435.504 394.726 435.937 393.753 435.937C393.724 435.937 393.694 435.937 393.665 435.936C393.636 435.937 393.607 435.937 393.578 435.937C392.605 435.937 391.733 435.504 391.143 434.82Z" fill="#D5D1FF"/>
<path d="M452.845 464.957C452.845 466.738 451.405 468.182 449.629 468.182C447.853 468.182 446.413 466.738 446.413 464.957C446.413 463.176 447.853 461.733 449.629 461.733C451.405 461.733 452.845 463.176 452.845 464.957Z" fill="#D5D1FF"/>
<path d="M396.969 497.202C396.969 498.982 395.529 500.426 393.753 500.426C391.977 500.426 390.537 498.982 390.537 497.202C390.537 495.421 391.977 493.977 393.753 493.977C395.529 493.977 396.969 495.421 396.969 497.202Z" fill="#D5D1FF"/>
<path d="M341.092 464.957C341.092 466.738 339.652 468.182 337.876 468.182C336.1 468.182 334.66 466.738 334.66 464.957C334.66 463.176 336.1 461.733 337.876 461.733C339.652 461.733 341.092 463.176 341.092 464.957Z" fill="#D5D1FF"/>
<path d="M396.969 432.713C396.969 434.494 395.529 435.937 393.753 435.937C391.977 435.937 390.537 434.494 390.537 432.713C390.537 430.932 391.977 429.489 393.753 429.489C395.529 429.489 396.969 430.932 396.969 432.713Z" fill="#D5D1FF"/>
<path fill-rule="evenodd" clip-rule="evenodd" d="M390.54 497.859C390.424 497.527 390.362 497.17 390.362 496.798C390.362 495.018 391.802 493.574 393.578 493.574C393.607 493.574 393.636 493.574 393.665 493.575C393.694 493.574 393.724 493.574 393.753 493.574C395.529 493.574 396.969 495.018 396.969 496.798C396.969 497.17 396.906 497.527 396.791 497.859L450.66 529.043L396.791 560.227C396.906 560.559 396.969 560.915 396.969 561.287C396.969 563.068 395.529 564.511 393.753 564.511C393.724 564.511 393.694 564.511 393.665 564.51C393.636 564.511 393.607 564.511 393.578 564.511C391.802 564.511 390.362 563.068 390.362 561.287C390.362 560.915 390.424 560.559 390.54 560.227L336.67 529.043L390.54 497.859ZM391.143 498.906L339.082 529.043L391.143 559.18C391.733 558.496 392.605 558.063 393.578 558.063C393.607 558.063 393.636 558.063 393.665 558.064C393.694 558.063 393.724 558.063 393.753 558.063C394.726 558.063 395.597 558.496 396.187 559.18L448.248 529.043L396.187 498.906C395.597 499.59 394.726 500.023 393.753 500.023C393.724 500.023 393.694 500.023 393.665 500.022C393.636 500.023 393.607 500.023 393.578 500.023C392.605 500.023 391.733 499.59 391.143 498.906Z" fill="#D5D1FF"/>
<path d="M452.845 529.043C452.845 530.824 451.405 532.267 449.629 532.267C447.853 532.267 446.413 530.824 446.413 529.043C446.413 527.262 447.853 525.818 449.629 525.818C451.405 525.818 452.845 527.262 452.845 529.043Z" fill="#D5D1FF"/>
<path d="M396.969 561.287C396.969 563.068 395.529 564.511 393.753 564.511C391.977 564.511 390.537 563.068 390.537 561.287C390.537 559.506 391.977 558.063 393.753 558.063C395.529 558.063 396.969 559.506 396.969 561.287Z" fill="#D5D1FF"/>
<path d="M341.092 529.043C341.092 530.824 339.652 532.267 337.876 532.267C336.1 532.267 334.66 530.824 334.66 529.043C334.66 527.262 336.1 525.818 337.876 525.818C339.652 525.818 341.092 527.262 341.092 529.043Z" fill="#D5D1FF"/>
<path d="M396.969 496.798C396.969 498.579 395.529 500.023 393.753 500.023C391.977 500.023 390.537 498.579 390.537 496.798C390.537 495.018 391.977 493.574 393.753 493.574C395.529 493.574 396.969 495.018 396.969 496.798Z" fill="#D5D1FF"/>
<path fill-rule="evenodd" clip-rule="evenodd" d="M390.54 369.285C390.424 368.953 390.362 368.596 390.362 368.224C390.362 366.444 391.802 365 393.578 365C393.607 365 393.636 365 393.665 365.001C393.694 365 393.724 365 393.753 365C395.529 365 396.969 366.444 396.969 368.224C396.969 368.596 396.906 368.953 396.791 369.285L450.66 400.469L396.791 431.652C396.906 431.985 396.969 432.341 396.969 432.713C396.969 434.494 395.529 435.937 393.753 435.937C393.724 435.937 393.694 435.937 393.665 435.936C393.636 435.937 393.607 435.937 393.578 435.937C391.802 435.937 390.362 434.494 390.362 432.713C390.362 432.341 390.424 431.985 390.54 431.652L336.67 400.469L390.54 369.285ZM391.143 370.332L339.082 400.469L391.143 430.606C391.733 429.922 392.605 429.489 393.578 429.489C393.607 429.489 393.636 429.489 393.665 429.49C393.694 429.489 393.724 429.489 393.753 429.489C394.726 429.489 395.597 429.922 396.187 430.606L448.248 400.469L396.187 370.332C395.597 371.016 394.726 371.449 393.753 371.449C393.724 371.449 393.694 371.448 393.665 371.448C393.636 371.448 393.607 371.449 393.578 371.449C392.605 371.449 391.733 371.016 391.143 370.332Z" fill="#D5D1FF"/>
<path d="M452.845 400.469C452.845 402.25 451.405 403.693 449.629 403.693C447.853 403.693 446.413 402.25 446.413 400.469C446.413 398.688 447.853 397.244 449.629 397.244C451.405 397.244 452.845 398.688 452.845 400.469Z" fill="#D5D1FF"/>
<path d="M396.969 432.713C396.969 434.494 395.529 435.937 393.753 435.937C391.977 435.937 390.537 434.494 390.537 432.713C390.537 430.932 391.977 429.489 393.753 429.489C395.529 429.489 396.969 430.932 396.969 432.713Z" fill="#D5D1FF"/>
<path d="M341.092 400.469C341.092 402.25 339.652 403.693 337.876 403.693C336.1 403.693 334.66 402.25 334.66 400.469C334.66 398.688 336.1 397.244 337.876 397.244C339.652 397.244 341.092 398.688 341.092 400.469Z" fill="#D5D1FF"/>
<path d="M396.969 368.224C396.969 370.005 395.529 371.449 393.753 371.449C391.977 371.449 390.537 370.005 390.537 368.224C390.537 366.444 391.977 365 393.753 365C395.529 365 396.969 366.444 396.969 368.224Z" fill="#D5D1FF"/>
<path fill-rule="evenodd" clip-rule="evenodd" d="M166.632 562.348C166.517 562.015 166.454 561.659 166.454 561.287C166.454 559.506 167.894 558.063 169.67 558.063C169.699 558.063 169.728 558.063 169.758 558.064C169.787 558.063 169.816 558.063 169.845 558.063C171.621 558.063 173.061 559.506 173.061 561.287C173.061 561.659 172.998 562.015 172.883 562.348L226.752 593.531L172.883 624.715C172.998 625.047 173.061 625.404 173.061 625.776C173.061 627.556 171.621 629 169.845 629C169.816 629 169.787 629 169.758 628.999C169.728 629 169.699 629 169.67 629C167.894 629 166.454 627.556 166.454 625.776C166.454 625.404 166.517 625.047 166.632 624.715L112.763 593.531L166.632 562.348ZM167.236 563.394L115.175 593.531L167.236 623.668C167.825 622.984 168.697 622.551 169.67 622.551C169.699 622.551 169.728 622.552 169.758 622.552C169.787 622.552 169.816 622.551 169.845 622.551C170.818 622.551 171.69 622.984 172.279 623.668L224.34 593.531L172.279 563.394C171.69 564.078 170.818 564.511 169.845 564.511C169.816 564.511 169.787 564.511 169.758 564.51C169.728 564.511 169.699 564.511 169.67 564.511C168.697 564.511 167.825 564.078 167.236 563.394Z" fill="#D5D1FF"/>
<path d="M228.938 593.531C228.938 595.312 227.498 596.756 225.722 596.756C223.945 596.756 222.506 595.312 222.506 593.531C222.506 591.75 223.945 590.307 225.722 590.307C227.498 590.307 228.938 591.75 228.938 593.531Z" fill="#D5D1FF"/>
<path d="M173.061 625.776C173.061 627.556 171.621 629 169.845 629C168.069 629 166.629 627.556 166.629 625.776C166.629 623.995 168.069 622.551 169.845 622.551C171.621 622.551 173.061 623.995 173.061 625.776Z" fill="#D5D1FF"/>
<path d="M117.185 593.531C117.185 595.312 115.745 596.756 113.969 596.756C112.193 596.756 110.753 595.312 110.753 593.531C110.753 591.75 112.193 590.307 113.969 590.307C115.745 590.307 117.185 591.75 117.185 593.531Z" fill="#D5D1FF"/>
<path d="M173.061 561.287C173.061 563.068 171.621 564.511 169.845 564.511C168.069 564.511 166.629 563.068 166.629 561.287C166.629 559.506 168.069 558.063 169.845 558.063C171.621 558.063 173.061 559.506 173.061 561.287Z" fill="#D5D1FF"/>
<path fill-rule="evenodd" clip-rule="evenodd" d="M166.632 433.773C166.517 433.441 166.454 433.084 166.454 432.713C166.454 430.932 167.894 429.489 169.67 429.489C169.699 429.489 169.728 429.489 169.758 429.49C169.787 429.489 169.816 429.489 169.845 429.489C171.621 429.489 173.061 430.932 173.061 432.713C173.061 433.084 172.998 433.441 172.883 433.773L226.752 464.957L172.883 496.141C172.998 496.473 173.061 496.83 173.061 497.202C173.061 498.982 171.621 500.426 169.845 500.426C169.816 500.426 169.787 500.426 169.758 500.425C169.728 500.426 169.699 500.426 169.67 500.426C167.894 500.426 166.454 498.982 166.454 497.202C166.454 496.83 166.517 496.473 166.632 496.141L112.763 464.957L166.632 433.773ZM167.236 434.82L115.175 464.957L167.236 495.094C167.825 494.41 168.697 493.977 169.67 493.977C169.699 493.977 169.728 493.977 169.758 493.978C169.787 493.977 169.816 493.977 169.845 493.977C170.818 493.977 171.69 494.41 172.279 495.094L224.34 464.957L172.279 434.82C171.69 435.504 170.818 435.937 169.845 435.937C169.816 435.937 169.787 435.937 169.758 435.936C169.728 435.937 169.699 435.937 169.67 435.937C168.697 435.937 167.825 435.504 167.236 434.82Z" fill="#D5D1FF"/>
<path d="M228.938 464.957C228.938 466.738 227.498 468.182 225.722 468.182C223.945 468.182 222.506 466.738 222.506 464.957C222.506 463.176 223.945 461.733 225.722 461.733C227.498 461.733 228.938 463.176 228.938 464.957Z" fill="#D5D1FF"/>
<path d="M173.061 497.202C173.061 498.982 171.621 500.426 169.845 500.426C168.069 500.426 166.629 498.982 166.629 497.202C166.629 495.421 168.069 493.977 169.845 493.977C171.621 493.977 173.061 495.421 173.061 497.202Z" fill="#D5D1FF"/>
<path d="M117.185 464.957C117.185 466.738 115.745 468.182 113.969 468.182C112.193 468.182 110.753 466.738 110.753 464.957C110.753 463.176 112.193 461.733 113.969 461.733C115.745 461.733 117.185 463.176 117.185 464.957Z" fill="#D5D1FF"/>
<path d="M173.061 432.713C173.061 434.494 171.621 435.937 169.845 435.937C168.069 435.937 166.629 434.494 166.629 432.713C166.629 430.932 168.069 429.489 169.845 429.489C171.621 429.489 173.061 430.932 173.061 432.713Z" fill="#D5D1FF"/>
<path fill-rule="evenodd" clip-rule="evenodd" d="M110.756 401.529C110.64 401.197 110.578 400.84 110.578 400.469C110.578 398.688 112.017 397.244 113.794 397.244C113.823 397.244 113.852 397.245 113.881 397.245C113.91 397.245 113.939 397.244 113.969 397.244C115.745 397.244 117.185 398.688 117.185 400.469C117.185 400.84 117.122 401.197 117.007 401.529L170.876 432.713L117.007 463.897C117.122 464.229 117.185 464.586 117.185 464.957C117.185 466.738 115.745 468.182 113.969 468.182C113.939 468.182 113.91 468.181 113.881 468.181C113.852 468.181 113.823 468.182 113.794 468.182C112.017 468.182 110.578 466.738 110.578 464.957C110.578 464.586 110.64 464.229 110.756 463.897L56.8864 432.713L110.756 401.529ZM111.359 402.576L59.2983 432.713L111.359 462.85C111.949 462.166 112.821 461.733 113.794 461.733C113.823 461.733 113.852 461.733 113.881 461.734C113.91 461.733 113.939 461.733 113.969 461.733C114.941 461.733 115.813 462.166 116.403 462.85L168.464 432.713L116.403 402.576C115.813 403.26 114.941 403.693 113.969 403.693C113.939 403.693 113.91 403.693 113.881 403.692C113.852 403.693 113.823 403.693 113.794 403.693C112.821 403.693 111.949 403.26 111.359 402.576Z" fill="#D5D1FF"/>
<path d="M173.061 432.713C173.061 434.494 171.621 435.937 169.845 435.937C168.069 435.937 166.629 434.494 166.629 432.713C166.629 430.932 168.069 429.489 169.845 429.489C171.621 429.489 173.061 430.932 173.061 432.713Z" fill="#D5D1FF"/>
<path d="M117.185 464.957C117.185 466.738 115.745 468.182 113.969 468.182C112.193 468.182 110.753 466.738 110.753 464.957C110.753 463.176 112.193 461.733 113.969 461.733C115.745 461.733 117.185 463.176 117.185 464.957Z" fill="#D5D1FF"/>
<path d="M61.3082 432.713C61.3082 434.494 59.8684 435.937 58.0923 435.937C56.3162 435.937 54.8764 434.494 54.8764 432.713C54.8764 430.932 56.3162 429.489 58.0923 429.489C59.8684 429.489 61.3082 430.932 61.3082 432.713Z" fill="#D5D1FF"/>
<path d="M117.185 400.469C117.185 402.25 115.745 403.693 113.969 403.693C112.193 403.693 110.753 402.25 110.753 400.469C110.753 398.688 112.193 397.244 113.969 397.244C115.745 397.244 117.185 398.688 117.185 400.469Z" fill="#D5D1FF"/>
<path fill-rule="evenodd" clip-rule="evenodd" d="M54.8792 433.37C54.7638 433.038 54.7012 432.681 54.7012 432.31C54.7012 430.529 56.141 429.085 57.9171 429.085C57.9464 429.085 57.9756 429.086 58.0047 429.087C58.0338 429.086 58.063 429.085 58.0923 429.085C59.8684 429.085 61.3082 430.529 61.3082 432.31C61.3082 432.681 61.2456 433.038 61.1303 433.37L114.999 464.554L61.1303 495.738C61.2456 496.07 61.3082 496.427 61.3082 496.798C61.3082 498.579 59.8684 500.023 58.0923 500.023C58.063 500.023 58.0338 500.023 58.0047 500.022C57.9756 500.023 57.9464 500.023 57.9171 500.023C56.141 500.023 54.7012 498.579 54.7012 496.798C54.7012 496.427 54.7638 496.07 54.8792 495.738L1.00994 464.554L54.8792 433.37ZM55.4829 434.417L3.42188 464.554L55.4829 494.691C56.0726 494.007 56.9444 493.574 57.9171 493.574C57.9464 493.574 57.9756 493.574 58.0047 493.575C58.0338 493.574 58.063 493.574 58.0923 493.574C59.065 493.574 59.9368 494.007 60.5265 494.691L112.588 464.554L60.5266 434.417C59.9368 435.101 59.065 435.534 58.0923 435.534C58.063 435.534 58.0338 435.534 58.0047 435.533C57.9756 435.534 57.9464 435.534 57.9171 435.534C56.9444 435.534 56.0726 435.101 55.4829 434.417Z" fill="#D5D1FF"/>
<path d="M117.185 464.554C117.185 466.335 115.745 467.779 113.969 467.779C112.193 467.779 110.753 466.335 110.753 464.554C110.753 462.773 112.193 461.33 113.969 461.33C115.745 461.33 117.185 462.773 117.185 464.554Z" fill="#D5D1FF"/>
<path d="M61.3082 496.798C61.3082 498.579 59.8684 500.023 58.0923 500.023C56.3162 500.023 54.8764 498.579 54.8764 496.798C54.8764 495.018 56.3162 493.574 58.0923 493.574C59.8684 493.574 61.3082 495.018 61.3082 496.798Z" fill="#D5D1FF"/>
<path d="M5.43182 464.554C5.43182 466.335 3.99201 467.779 2.21591 467.779C0.439811 467.779 -1 466.335 -1 464.554C-1 462.773 0.439811 461.33 2.21591 461.33C3.99201 461.33 5.43182 462.773 5.43182 464.554Z" fill="#D5D1FF"/>
<path d="M61.3082 432.31C61.3082 434.091 59.8684 435.534 58.0923 435.534C56.3162 435.534 54.8764 434.091 54.8764 432.31C54.8764 430.529 56.3162 429.085 58.0923 429.085C59.8684 429.085 61.3082 430.529 61.3082 432.31Z" fill="#D5D1FF"/>
<path fill-rule="evenodd" clip-rule="evenodd" d="M509.121 433.773C509.236 433.441 509.299 433.084 509.299 432.713C509.299 430.932 507.859 429.489 506.083 429.489C506.054 429.489 506.024 429.489 505.995 429.49C505.966 429.489 505.937 429.489 505.908 429.489C504.132 429.489 502.692 430.932 502.692 432.713C502.692 433.084 502.754 433.441 502.87 433.773L449.001 464.957L502.87 496.141C502.754 496.473 502.692 496.83 502.692 497.202C502.692 498.982 504.132 500.426 505.908 500.426C505.937 500.426 505.966 500.426 505.995 500.425C506.024 500.426 506.054 500.426 506.083 500.426C507.859 500.426 509.299 498.982 509.299 497.202C509.299 496.83 509.236 496.473 509.121 496.141L562.99 464.957L509.121 433.773ZM508.517 434.82L560.578 464.957L508.517 495.094C507.927 494.41 507.056 493.977 506.083 493.977C506.054 493.977 506.024 493.977 505.995 493.978C505.966 493.977 505.937 493.977 505.908 493.977C504.935 493.977 504.063 494.41 503.473 495.094L451.412 464.957L503.473 434.82C504.063 435.504 504.935 435.937 505.908 435.937C505.937 435.937 505.966 435.937 505.995 435.936C506.024 435.937 506.054 435.937 506.083 435.937C507.056 435.937 507.927 435.504 508.517 434.82Z" fill="#D5D1FF"/>
<path d="M446.815 464.957C446.815 466.738 448.255 468.182 450.031 468.182C451.807 468.182 453.247 466.738 453.247 464.957C453.247 463.176 451.807 461.733 450.031 461.733C448.255 461.733 446.815 463.176 446.815 464.957Z" fill="#D5D1FF"/>
<path d="M502.692 497.202C502.692 498.982 504.132 500.426 505.908 500.426C507.684 500.426 509.124 498.982 509.124 497.202C509.124 495.421 507.684 493.977 505.908 493.977C504.132 493.977 502.692 495.421 502.692 497.202Z" fill="#D5D1FF"/>
<path d="M558.568 464.957C558.568 466.738 560.008 468.182 561.784 468.182C563.56 468.182 565 466.738 565 464.957C565 463.176 563.56 461.733 561.784 461.733C560.008 461.733 558.568 463.176 558.568 464.957Z" fill="#D5D1FF"/>
<path d="M502.692 432.713C502.692 434.494 504.132 435.937 505.908 435.937C507.684 435.937 509.124 434.494 509.124 432.713C509.124 430.932 507.684 429.489 505.908 429.489C504.132 429.489 502.692 430.932 502.692 432.713Z" fill="#D5D1FF"/>
<path fill-rule="evenodd" clip-rule="evenodd" d="M54.8792 497.859C54.7638 497.527 54.7012 497.17 54.7012 496.798C54.7012 495.018 56.141 493.574 57.9171 493.574C57.9464 493.574 57.9756 493.574 58.0047 493.575C58.0338 493.574 58.063 493.574 58.0923 493.574C59.8684 493.574 61.3082 495.018 61.3082 496.798C61.3082 497.17 61.2456 497.527 61.1303 497.859L114.999 529.043L61.1303 560.227C61.2456 560.559 61.3082 560.915 61.3082 561.287C61.3082 563.068 59.8684 564.511 58.0923 564.511C58.063 564.511 58.0338 564.511 58.0047 564.51C57.9756 564.511 57.9464 564.511 57.9171 564.511C56.141 564.511 54.7012 563.068 54.7012 561.287C54.7012 560.915 54.7638 560.559 54.8792 560.227L1.00994 529.043L54.8792 497.859ZM55.4829 498.906L3.42188 529.043L55.4829 559.18C56.0726 558.496 56.9444 558.063 57.9171 558.063C57.9464 558.063 57.9756 558.063 58.0047 558.064C58.0338 558.063 58.063 558.063 58.0923 558.063C59.065 558.063 59.9368 558.496 60.5265 559.18L112.588 529.043L60.5266 498.906C59.9368 499.59 59.065 500.023 58.0923 500.023C58.063 500.023 58.0338 500.023 58.0047 500.022C57.9756 500.023 57.9464 500.023 57.9171 500.023C56.9444 500.023 56.0726 499.59 55.4829 498.906Z" fill="#D5D1FF"/>
<path d="M117.185 529.043C117.185 530.824 115.745 532.267 113.969 532.267C112.193 532.267 110.753 530.824 110.753 529.043C110.753 527.262 112.193 525.818 113.969 525.818C115.745 525.818 117.185 527.262 117.185 529.043Z" fill="#D5D1FF"/>
<path d="M61.3082 561.287C61.3082 563.068 59.8684 564.511 58.0923 564.511C56.3162 564.511 54.8764 563.068 54.8764 561.287C54.8764 559.506 56.3162 558.063 58.0923 558.063C59.8684 558.063 61.3082 559.506 61.3082 561.287Z" fill="#D5D1FF"/>
<path d="M5.43182 529.043C5.43182 530.824 3.99201 532.267 2.21591 532.267C0.439811 532.267 -1 530.824 -1 529.043C-1 527.262 0.439811 525.818 2.21591 525.818C3.99201 525.818 5.43182 527.262 5.43182 529.043Z" fill="#D5D1FF"/>
<path d="M61.3082 496.798C61.3082 498.579 59.8684 500.023 58.0923 500.023C56.3162 500.023 54.8764 498.579 54.8764 496.798C54.8764 495.018 56.3162 493.574 58.0923 493.574C59.8684 493.574 61.3082 495.018 61.3082 496.798Z" fill="#D5D1FF"/>
<path fill-rule="evenodd" clip-rule="evenodd" d="M509.121 498.262C509.236 497.93 509.299 497.573 509.299 497.202C509.299 495.421 507.859 493.977 506.083 493.977C506.054 493.977 506.024 493.977 505.995 493.978C505.966 493.977 505.937 493.977 505.908 493.977C504.132 493.977 502.692 495.421 502.692 497.202C502.692 497.573 502.754 497.93 502.87 498.262L449.001 529.446L502.87 560.63C502.754 560.962 502.692 561.319 502.692 561.69C502.692 563.471 504.132 564.915 505.908 564.915C505.937 564.915 505.966 564.914 505.995 564.913C506.024 564.914 506.054 564.915 506.083 564.915C507.859 564.915 509.299 563.471 509.299 561.69C509.299 561.319 509.236 560.962 509.121 560.63L562.99 529.446L509.121 498.262ZM508.517 499.309L560.578 529.446L508.517 559.583C507.927 558.899 507.056 558.466 506.083 558.466C506.054 558.466 506.024 558.466 505.995 558.467C505.966 558.466 505.937 558.466 505.908 558.466C504.935 558.466 504.063 558.899 503.473 559.583L451.412 529.446L503.473 499.309C504.063 499.993 504.935 500.426 505.908 500.426C505.937 500.426 505.966 500.426 505.995 500.425C506.024 500.426 506.054 500.426 506.083 500.426C507.056 500.426 507.927 499.993 508.517 499.309Z" fill="#D5D1FF"/>
<path d="M446.815 529.446C446.815 531.227 448.255 532.67 450.031 532.67C451.807 532.67 453.247 531.227 453.247 529.446C453.247 527.665 451.807 526.221 450.031 526.221C448.255 526.221 446.815 527.665 446.815 529.446Z" fill="#D5D1FF"/>
<path d="M502.692 561.69C502.692 563.471 504.132 564.915 505.908 564.915C507.684 564.915 509.124 563.471 509.124 561.69C509.124 559.909 507.684 558.466 505.908 558.466C504.132 558.466 502.692 559.909 502.692 561.69Z" fill="#D5D1FF"/>
<path d="M558.568 529.446C558.568 531.227 560.008 532.67 561.784 532.67C563.56 532.67 565 531.227 565 529.446C565 527.665 563.56 526.221 561.784 526.221C560.008 526.221 558.568 527.665 558.568 529.446Z" fill="#D5D1FF"/>
<path d="M502.692 497.202C502.692 498.982 504.132 500.426 505.908 500.426C507.684 500.426 509.124 498.982 509.124 497.202C509.124 495.421 507.684 493.977 505.908 493.977C504.132 493.977 502.692 495.421 502.692 497.202Z" fill="#D5D1FF"/>
<path fill-rule="evenodd" clip-rule="evenodd" d="M110.756 465.615C110.64 465.283 110.578 464.926 110.578 464.554C110.578 462.773 112.017 461.33 113.794 461.33C113.823 461.33 113.852 461.33 113.881 461.331C113.91 461.33 113.939 461.33 113.969 461.33C115.745 461.33 117.185 462.773 117.185 464.554C117.185 464.926 117.122 465.283 117.007 465.615L170.876 496.798L117.007 527.982C117.122 528.314 117.185 528.671 117.185 529.043C117.185 530.824 115.745 532.267 113.969 532.267C113.939 532.267 113.91 532.267 113.881 532.266C113.852 532.267 113.823 532.267 113.794 532.267C112.017 532.267 110.578 530.824 110.578 529.043C110.578 528.671 110.64 528.314 110.756 527.982L56.8864 496.798L110.756 465.615ZM111.359 466.661L59.2983 496.798L111.359 526.936C111.949 526.251 112.821 525.818 113.794 525.818C113.823 525.818 113.852 525.819 113.881 525.82C113.91 525.819 113.939 525.818 113.969 525.818C114.941 525.818 115.813 526.251 116.403 526.936L168.464 496.798L116.403 466.661C115.813 467.346 114.941 467.779 113.969 467.779C113.939 467.779 113.91 467.778 113.881 467.777C113.852 467.778 113.823 467.779 113.794 467.779C112.821 467.779 111.949 467.346 111.359 466.661Z" fill="#D5D1FF"/>
<path d="M173.061 496.798C173.061 498.579 171.621 500.023 169.845 500.023C168.069 500.023 166.629 498.579 166.629 496.798C166.629 495.018 168.069 493.574 169.845 493.574C171.621 493.574 173.061 495.018 173.061 496.798Z" fill="#D5D1FF"/>
<path d="M117.185 529.043C117.185 530.824 115.745 532.267 113.969 532.267C112.193 532.267 110.753 530.824 110.753 529.043C110.753 527.262 112.193 525.818 113.969 525.818C115.745 525.818 117.185 527.262 117.185 529.043Z" fill="#D5D1FF"/>
<path d="M61.3082 496.798C61.3082 498.579 59.8684 500.023 58.0923 500.023C56.3162 500.023 54.8764 498.579 54.8764 496.798C54.8764 495.018 56.3162 493.574 58.0923 493.574C59.8684 493.574 61.3082 495.018 61.3082 496.798Z" fill="#D5D1FF"/>
<path d="M117.185 464.554C117.185 466.335 115.745 467.779 113.969 467.779C112.193 467.779 110.753 466.335 110.753 464.554C110.753 462.773 112.193 461.33 113.969 461.33C115.745 461.33 117.185 462.773 117.185 464.554Z" fill="#D5D1FF"/>
<path fill-rule="evenodd" clip-rule="evenodd" d="M110.756 530.103C110.64 529.771 110.578 529.414 110.578 529.043C110.578 527.262 112.017 525.818 113.794 525.818C113.823 525.818 113.852 525.819 113.881 525.82C113.91 525.819 113.939 525.818 113.969 525.818C115.745 525.818 117.185 527.262 117.185 529.043C117.185 529.414 117.122 529.771 117.007 530.103L170.876 561.287L117.007 592.471C117.122 592.803 117.185 593.16 117.185 593.531C117.185 595.312 115.745 596.756 113.969 596.756C113.939 596.756 113.91 596.755 113.881 596.755C113.852 596.755 113.823 596.756 113.794 596.756C112.017 596.756 110.578 595.312 110.578 593.531C110.578 593.16 110.64 592.803 110.756 592.471L56.8864 561.287L110.756 530.103ZM111.359 531.15L59.2983 561.287L111.359 591.424C111.949 590.74 112.821 590.307 113.794 590.307C113.823 590.307 113.852 590.307 113.881 590.308C113.91 590.307 113.939 590.307 113.969 590.307C114.941 590.307 115.813 590.74 116.403 591.424L168.464 561.287L116.403 531.15C115.813 531.834 114.941 532.267 113.969 532.267C113.939 532.267 113.91 532.267 113.881 532.266C113.852 532.267 113.823 532.267 113.794 532.267C112.821 532.267 111.949 531.834 111.359 531.15Z" fill="#D5D1FF"/>
<path d="M173.061 561.287C173.061 563.068 171.621 564.511 169.845 564.511C168.069 564.511 166.629 563.068 166.629 561.287C166.629 559.506 168.069 558.063 169.845 558.063C171.621 558.063 173.061 559.506 173.061 561.287Z" fill="#D5D1FF"/>
<path d="M117.185 593.531C117.185 595.312 115.745 596.756 113.969 596.756C112.193 596.756 110.753 595.312 110.753 593.531C110.753 591.75 112.193 590.307 113.969 590.307C115.745 590.307 117.185 591.75 117.185 593.531Z" fill="#D5D1FF"/>
<path d="M61.3082 561.287C61.3082 563.068 59.8684 564.511 58.0923 564.511C56.3162 564.511 54.8764 563.068 54.8764 561.287C54.8764 559.506 56.3162 558.063 58.0923 558.063C59.8684 558.063 61.3082 559.506 61.3082 561.287Z" fill="#D5D1FF"/>
<path d="M117.185 529.043C117.185 530.824 115.745 532.267 113.969 532.267C112.193 532.267 110.753 530.824 110.753 529.043C110.753 527.262 112.193 525.818 113.969 525.818C115.745 525.818 117.185 527.262 117.185 529.043Z" fill="#D5D1FF"/>
<path fill-rule="evenodd" clip-rule="evenodd" d="M166.632 497.859C166.517 497.527 166.454 497.17 166.454 496.798C166.454 495.018 167.894 493.574 169.67 493.574C169.699 493.574 169.728 493.574 169.758 493.575C169.787 493.574 169.816 493.574 169.845 493.574C171.621 493.574 173.061 495.018 173.061 496.798C173.061 497.17 172.998 497.527 172.883 497.859L226.752 529.043L172.883 560.227C172.998 560.559 173.061 560.915 173.061 561.287C173.061 563.068 171.621 564.511 169.845 564.511C169.816 564.511 169.787 564.511 169.758 564.51C169.728 564.511 169.699 564.511 169.67 564.511C167.894 564.511 166.454 563.068 166.454 561.287C166.454 560.915 166.517 560.559 166.632 560.227L112.763 529.043L166.632 497.859ZM167.236 498.906L115.175 529.043L167.236 559.18C167.825 558.496 168.697 558.063 169.67 558.063C169.699 558.063 169.728 558.063 169.758 558.064C169.787 558.063 169.816 558.063 169.845 558.063C170.818 558.063 171.69 558.496 172.279 559.18L224.34 529.043L172.279 498.906C171.69 499.59 170.818 500.023 169.845 500.023C169.816 500.023 169.787 500.023 169.758 500.022C169.728 500.023 169.699 500.023 169.67 500.023C168.697 500.023 167.825 499.59 167.236 498.906Z" fill="#D5D1FF"/>
<path d="M228.938 529.043C228.938 530.824 227.498 532.267 225.722 532.267C223.945 532.267 222.506 530.824 222.506 529.043C222.506 527.262 223.945 525.818 225.722 525.818C227.498 525.818 228.938 527.262 228.938 529.043Z" fill="#D5D1FF"/>
<path d="M173.061 561.287C173.061 563.068 171.621 564.511 169.845 564.511C168.069 564.511 166.629 563.068 166.629 561.287C166.629 559.506 168.069 558.063 169.845 558.063C171.621 558.063 173.061 559.506 173.061 561.287Z" fill="#D5D1FF"/>
<path d="M117.185 529.043C117.185 530.824 115.745 532.267 113.969 532.267C112.193 532.267 110.753 530.824 110.753 529.043C110.753 527.262 112.193 525.818 113.969 525.818C115.745 525.818 117.185 527.262 117.185 529.043Z" fill="#D5D1FF"/>
<path d="M173.061 496.798C173.061 498.579 171.621 500.023 169.845 500.023C168.069 500.023 166.629 498.579 166.629 496.798C166.629 495.018 168.069 493.574 169.845 493.574C171.621 493.574 173.061 495.018 173.061 496.798Z" fill="#D5D1FF"/>
<path fill-rule="evenodd" clip-rule="evenodd" d="M166.632 369.285C166.517 368.953 166.454 368.596 166.454 368.224C166.454 366.444 167.894 365 169.67 365C169.699 365 169.728 365 169.758 365.001C169.787 365 169.816 365 169.845 365C171.621 365 173.061 366.444 173.061 368.224C173.061 368.596 172.998 368.953 172.883 369.285L226.752 400.469L172.883 431.652C172.998 431.985 173.061 432.341 173.061 432.713C173.061 434.494 171.621 435.937 169.845 435.937C169.816 435.937 169.787 435.937 169.758 435.936C169.728 435.937 169.699 435.937 169.67 435.937C167.894 435.937 166.454 434.494 166.454 432.713C166.454 432.341 166.517 431.985 166.632 431.652L112.763 400.469L166.632 369.285ZM167.236 370.332L115.175 400.469L167.236 430.606C167.825 429.922 168.697 429.489 169.67 429.489C169.699 429.489 169.728 429.489 169.758 429.49C169.787 429.489 169.816 429.489 169.845 429.489C170.818 429.489 171.69 429.922 172.279 430.606L224.34 400.469L172.279 370.332C171.69 371.016 170.818 371.449 169.845 371.449C169.816 371.449 169.787 371.448 169.758 371.448C169.728 371.448 169.699 371.449 169.67 371.449C168.697 371.449 167.825 371.016 167.236 370.332Z" fill="#D5D1FF"/>
<path d="M228.938 400.469C228.938 402.25 227.498 403.693 225.722 403.693C223.945 403.693 222.506 402.25 222.506 400.469C222.506 398.688 223.945 397.244 225.722 397.244C227.498 397.244 228.938 398.688 228.938 400.469Z" fill="#D5D1FF"/>
<path d="M173.061 432.713C173.061 434.494 171.621 435.937 169.845 435.937C168.069 435.937 166.629 434.494 166.629 432.713C166.629 430.932 168.069 429.489 169.845 429.489C171.621 429.489 173.061 430.932 173.061 432.713Z" fill="#D5D1FF"/>
<path d="M117.185 400.469C117.185 402.25 115.745 403.693 113.969 403.693C112.193 403.693 110.753 402.25 110.753 400.469C110.753 398.688 112.193 397.244 113.969 397.244C115.745 397.244 117.185 398.688 117.185 400.469Z" fill="#D5D1FF"/>
<path d="M173.061 368.224C173.061 370.005 171.621 371.449 169.845 371.449C168.069 371.449 166.629 370.005 166.629 368.224C166.629 366.444 168.069 365 169.845 365C171.621 365 173.061 366.444 173.061 368.224Z" fill="#D5D1FF"/>
<path fill-rule="evenodd" clip-rule="evenodd" d="M278.787 562.348C278.672 562.015 278.609 561.659 278.609 561.287C278.609 559.506 280.049 558.063 281.825 558.063C281.854 558.063 281.883 558.063 281.912 558.064C281.941 558.063 281.971 558.063 282 558.063C283.776 558.063 285.216 559.506 285.216 561.287C285.216 561.659 285.153 562.015 285.038 562.348L338.907 593.531L285.038 624.715C285.153 625.047 285.216 625.404 285.216 625.776C285.216 627.556 283.776 629 282 629C281.971 629 281.941 629 281.912 628.999C281.883 629 281.854 629 281.825 629C280.049 629 278.609 627.556 278.609 625.776C278.609 625.404 278.672 625.047 278.787 624.715L224.918 593.531L278.787 562.348ZM279.391 563.394L227.33 593.531L279.391 623.668C279.98 622.984 280.852 622.551 281.825 622.551C281.854 622.551 281.883 622.552 281.912 622.552C281.941 622.552 281.971 622.551 282 622.551C282.973 622.551 283.844 622.984 284.434 623.668L336.495 593.531L284.434 563.394C283.844 564.078 282.973 564.511 282 564.511C281.971 564.511 281.941 564.511 281.912 564.51C281.883 564.511 281.854 564.511 281.825 564.511C280.852 564.511 279.98 564.078 279.391 563.394Z" fill="#D5D1FF"/>
<path d="M341.092 593.531C341.092 595.312 339.652 596.756 337.876 596.756C336.1 596.756 334.66 595.312 334.66 593.531C334.66 591.75 336.1 590.307 337.876 590.307C339.652 590.307 341.092 591.75 341.092 593.531Z" fill="#D5D1FF"/>
<path d="M285.216 625.776C285.216 627.556 283.776 629 282 629C280.224 629 278.784 627.556 278.784 625.776C278.784 623.995 280.224 622.551 282 622.551C283.776 622.551 285.216 623.995 285.216 625.776Z" fill="#D5D1FF"/>
<path d="M229.339 593.531C229.339 595.312 227.9 596.756 226.124 596.756C224.347 596.756 222.908 595.312 222.908 593.531C222.908 591.75 224.347 590.307 226.124 590.307C227.9 590.307 229.339 591.75 229.339 593.531Z" fill="#D5D1FF"/>
<path d="M285.216 561.287C285.216 563.068 283.776 564.511 282 564.511C280.224 564.511 278.784 563.068 278.784 561.287C278.784 559.506 280.224 558.063 282 558.063C283.776 558.063 285.216 559.506 285.216 561.287Z" fill="#D5D1FF"/>
<path fill-rule="evenodd" clip-rule="evenodd" d="M278.787 433.773C278.672 433.441 278.609 433.084 278.609 432.713C278.609 430.932 280.049 429.489 281.825 429.489C281.854 429.489 281.883 429.489 281.912 429.49C281.941 429.489 281.971 429.489 282 429.489C283.776 429.489 285.216 430.932 285.216 432.713C285.216 433.084 285.153 433.441 285.038 433.773L338.907 464.957L285.038 496.141C285.153 496.473 285.216 496.83 285.216 497.202C285.216 498.982 283.776 500.426 282 500.426C281.971 500.426 281.941 500.426 281.912 500.425C281.883 500.426 281.854 500.426 281.825 500.426C280.049 500.426 278.609 498.982 278.609 497.202C278.609 496.83 278.672 496.473 278.787 496.141L224.918 464.957L278.787 433.773ZM279.391 434.82L227.33 464.957L279.391 495.094C279.98 494.41 280.852 493.977 281.825 493.977C281.854 493.977 281.883 493.977 281.912 493.978C281.941 493.977 281.971 493.977 282 493.977C282.973 493.977 283.844 494.41 284.434 495.094L336.495 464.957L284.434 434.82C283.844 435.504 282.973 435.937 282 435.937C281.971 435.937 281.941 435.937 281.912 435.936C281.883 435.937 281.854 435.937 281.825 435.937C280.852 435.937 279.98 435.504 279.391 434.82Z" fill="#D5D1FF"/>
<path d="M341.092 464.957C341.092 466.738 339.652 468.182 337.876 468.182C336.1 468.182 334.66 466.738 334.66 464.957C334.66 463.176 336.1 461.733 337.876 461.733C339.652 461.733 341.092 463.176 341.092 464.957Z" fill="#D5D1FF"/>
<path d="M285.216 497.202C285.216 498.982 283.776 500.426 282 500.426C280.224 500.426 278.784 498.982 278.784 497.202C278.784 495.421 280.224 493.977 282 493.977C283.776 493.977 285.216 495.421 285.216 497.202Z" fill="#D5D1FF"/>
<path d="M229.339 464.957C229.339 466.738 227.9 468.182 226.124 468.182C224.347 468.182 222.908 466.738 222.908 464.957C222.908 463.176 224.347 461.733 226.124 461.733C227.9 461.733 229.339 463.176 229.339 464.957Z" fill="#D5D1FF"/>
<path d="M285.216 432.713C285.216 434.494 283.776 435.937 282 435.937C280.224 435.937 278.784 434.494 278.784 432.713C278.784 430.932 280.224 429.489 282 429.489C283.776 429.489 285.216 430.932 285.216 432.713Z" fill="#D5D1FF"/>
<path fill-rule="evenodd" clip-rule="evenodd" d="M278.787 497.859C278.672 497.527 278.609 497.17 278.609 496.798C278.609 495.018 280.049 493.574 281.825 493.574C281.854 493.574 281.883 493.574 281.912 493.575C281.941 493.574 281.971 493.574 282 493.574C283.776 493.574 285.216 495.018 285.216 496.798C285.216 497.17 285.153 497.527 285.038 497.859L338.907 529.043L285.038 560.227C285.153 560.559 285.216 560.915 285.216 561.287C285.216 563.068 283.776 564.511 282 564.511C281.971 564.511 281.941 564.511 281.912 564.51C281.883 564.511 281.854 564.511 281.825 564.511C280.049 564.511 278.609 563.068 278.609 561.287C278.609 560.915 278.672 560.559 278.787 560.227L224.918 529.043L278.787 497.859ZM279.391 498.906L227.33 529.043L279.391 559.18C279.98 558.496 280.852 558.063 281.825 558.063C281.854 558.063 281.883 558.063 281.912 558.064C281.941 558.063 281.971 558.063 282 558.063C282.973 558.063 283.844 558.496 284.434 559.18L336.495 529.043L284.434 498.906C283.844 499.59 282.973 500.023 282 500.023C281.971 500.023 281.941 500.023 281.912 500.022C281.883 500.023 281.854 500.023 281.825 500.023C280.852 500.023 279.98 499.59 279.391 498.906Z" fill="#D5D1FF"/>
<path d="M341.092 529.043C341.092 530.824 339.652 532.267 337.876 532.267C336.1 532.267 334.66 530.824 334.66 529.043C334.66 527.262 336.1 525.818 337.876 525.818C339.652 525.818 341.092 527.262 341.092 529.043Z" fill="#D5D1FF"/>
<path d="M285.216 561.287C285.216 563.068 283.776 564.511 282 564.511C280.224 564.511 278.784 563.068 278.784 561.287C278.784 559.506 280.224 558.063 282 558.063C283.776 558.063 285.216 559.506 285.216 561.287Z" fill="#D5D1FF"/>
<path d="M229.339 529.043C229.339 530.824 227.9 532.267 226.124 532.267C224.347 532.267 222.908 530.824 222.908 529.043C222.908 527.262 224.347 525.818 226.124 525.818C227.9 525.818 229.339 527.262 229.339 529.043Z" fill="#D5D1FF"/>
<path d="M285.216 496.798C285.216 498.579 283.776 500.023 282 500.023C280.224 500.023 278.784 498.579 278.784 496.798C278.784 495.018 280.224 493.574 282 493.574C283.776 493.574 285.216 495.018 285.216 496.798Z" fill="#D5D1FF"/>
<path fill-rule="evenodd" clip-rule="evenodd" d="M278.787 369.285C278.672 368.953 278.609 368.596 278.609 368.224C278.609 366.444 280.049 365 281.825 365C281.854 365 281.883 365 281.912 365.001C281.941 365 281.971 365 282 365C283.776 365 285.216 366.444 285.216 368.224C285.216 368.596 285.153 368.953 285.038 369.285L338.907 400.469L285.038 431.652C285.153 431.985 285.216 432.341 285.216 432.713C285.216 434.494 283.776 435.937 282 435.937C281.971 435.937 281.941 435.937 281.912 435.936C281.883 435.937 281.854 435.937 281.825 435.937C280.049 435.937 278.609 434.494 278.609 432.713C278.609 432.341 278.672 431.985 278.787 431.652L224.918 400.469L278.787 369.285ZM279.391 370.332L227.33 400.469L279.391 430.606C279.98 429.922 280.852 429.489 281.825 429.489C281.854 429.489 281.883 429.489 281.912 429.49C281.941 429.489 281.971 429.489 282 429.489C282.973 429.489 283.844 429.922 284.434 430.606L336.495 400.469L284.434 370.332C283.844 371.016 282.973 371.449 282 371.449C281.971 371.449 281.941 371.448 281.912 371.448C281.883 371.448 281.854 371.449 281.825 371.449C280.852 371.449 279.98 371.016 279.391 370.332Z" fill="#D5D1FF"/>
<path d="M341.092 400.469C341.092 402.25 339.652 403.693 337.876 403.693C336.1 403.693 334.66 402.25 334.66 400.469C334.66 398.688 336.1 397.244 337.876 397.244C339.652 397.244 341.092 398.688 341.092 400.469Z" fill="#D5D1FF"/>
<path d="M285.216 432.713C285.216 434.494 283.776 435.937 282 435.937C280.224 435.937 278.784 434.494 278.784 432.713C278.784 430.932 280.224 429.489 282 429.489C283.776 429.489 285.216 430.932 285.216 432.713Z" fill="#D5D1FF"/>
<path d="M229.339 400.469C229.339 402.25 227.9 403.693 226.124 403.693C224.347 403.693 222.908 402.25 222.908 400.469C222.908 398.688 224.347 397.244 226.124 397.244C227.9 397.244 229.339 398.688 229.339 400.469Z" fill="#D5D1FF"/>
<path d="M285.216 368.224C285.216 370.005 283.776 371.449 282 371.449C280.224 371.449 278.784 370.005 278.784 368.224C278.784 366.444 280.224 365 282 365C283.776 365 285.216 366.444 285.216 368.224Z" fill="#D5D1FF"/>
<path fill-rule="evenodd" clip-rule="evenodd" d="M229.219 400.667C229.219 402.446 227.778 403.889 225.999 403.889C225.973 403.889 225.948 403.888 225.922 403.888C224.969 403.916 224.028 403.519 223.385 402.773L173.085 431.829C173.586 433.262 173.015 434.893 171.654 435.679C171.119 435.988 170.533 436.126 169.959 436.11C169.008 436.136 168.07 435.739 167.43 434.995L117.13 464.051C117.212 464.286 117.267 464.533 117.292 464.789C117.331 465.172 117.302 465.563 117.199 465.944C117.179 466.021 117.156 466.096 117.13 466.171L167.548 495.295C168.139 494.572 169.037 494.111 170.043 494.111C171.822 494.111 173.264 495.553 173.264 497.333C173.264 498.906 172.137 500.216 170.647 500.499V558.612C172.137 558.894 173.264 560.204 173.264 561.777C173.264 563.557 171.822 564.999 170.043 564.999C170.017 564.999 169.99 564.999 169.963 564.998C169.385 565.016 168.795 564.878 168.258 564.568C166.896 563.781 166.326 562.15 166.826 560.718L116.526 531.661C116.286 531.939 116.006 532.169 115.698 532.346C115.312 532.57 114.874 532.716 114.408 532.762C114.027 532.8 113.637 532.771 113.257 532.669C112.874 532.567 112.519 532.396 112.206 532.17C111.826 531.897 111.521 531.553 111.298 531.166C111.075 530.78 110.929 530.342 110.883 529.876C110.845 529.494 110.874 529.103 110.976 528.723C111.078 528.34 111.249 527.985 111.474 527.672C111.747 527.292 112.09 526.987 112.476 526.765C112.783 526.587 113.123 526.458 113.484 526.389V468.305C112.719 468.201 111.998 467.825 111.474 467.217L61.1741 496.273C61.6744 497.706 61.104 499.337 59.7424 500.123C58.2021 501.013 56.2325 500.485 55.3432 498.944C54.7629 497.938 54.7859 496.75 55.2999 495.798L5.82239 467.217C4.83263 468.367 3.13561 468.688 1.77402 467.901C0.233696 467.012 -0.29406 465.041 0.595245 463.5C1.48455 461.959 3.45416 461.431 4.99448 462.32C6.35607 463.107 6.92645 464.738 6.42623 466.17L56.0767 494.852C56.214 494.738 56.3625 494.635 56.5219 494.542C57.8835 493.756 59.5805 494.077 60.5703 495.227L110.87 466.17C110.626 465.471 110.637 464.724 110.871 464.051L60.5703 434.995C59.5805 436.144 57.8835 436.466 56.5219 435.679C55.1872 434.908 54.6128 433.326 55.0618 431.914L4.61472 402.773C3.62495 403.922 1.92793 404.244 0.566345 403.457C0.00208282 403.131 -0.426296 402.66 -0.69891 402.118L-50.737 431.023C-50.2368 432.456 -50.8072 434.087 -52.1688 434.874C-53.7091 435.763 -55.6787 435.235 -56.568 433.694C-57.4573 432.153 -56.9296 430.182 -55.3892 429.293C-54.0276 428.506 -52.3306 428.827 -51.3409 429.977L-1.03446 400.917C-1.08387 400.29 -0.950603 399.641 -0.612427 399.055C0.276878 397.514 2.24649 396.986 3.78681 397.876C5.1484 398.663 5.71878 400.294 5.21855 401.726L55.6368 430.851C56.6173 429.646 58.3542 429.296 59.7424 430.098C61.104 430.885 61.6744 432.516 61.1741 433.948L111.474 463.005C111.703 462.739 111.981 462.506 112.302 462.32C112.837 462.011 113.424 461.873 114 461.889C114.306 461.881 114.615 461.916 114.917 461.996C115.301 462.099 115.657 462.27 115.971 462.496C116.179 462.646 116.364 462.817 116.526 463.005L166.826 433.948C166.582 433.249 166.593 432.502 166.826 431.829L116.526 402.773C115.536 403.922 113.839 404.244 112.478 403.457C110.937 402.567 110.409 400.597 111.299 399.055C112.188 397.514 114.158 396.986 115.698 397.876C117.06 398.663 117.63 400.294 117.13 401.726L167.429 430.782C167.659 430.516 167.936 430.284 168.258 430.098C168.792 429.789 169.378 429.651 169.953 429.667C170.903 429.641 171.841 430.038 172.481 430.783L222.781 401.726C222.534 401.019 222.548 400.263 222.79 399.584C222.878 398.572 223.442 397.617 224.389 397.07C224.71 396.885 225.05 396.761 225.395 396.695V339.388C223.905 339.105 222.778 337.795 222.778 336.222C222.778 334.443 224.22 333 225.999 333C227.778 333 229.219 334.443 229.219 336.222C229.219 337.795 228.093 339.105 226.603 339.388V396.696C227.302 396.83 227.954 397.194 228.437 397.755L278.737 368.698C278.237 367.266 278.807 365.635 280.169 364.848C281.709 363.959 283.679 364.487 284.568 366.028C285.457 367.569 284.93 369.54 283.389 370.429C282.028 371.216 280.331 370.895 279.341 369.745L229.041 398.801C229.208 399.279 229.256 399.78 229.194 400.263C229.211 400.395 229.219 400.53 229.219 400.667ZM115.698 467.902C115.391 468.08 115.052 468.208 114.692 468.276V526.389C114.725 526.395 114.758 526.402 114.791 526.41L114.809 526.414L114.829 526.419L114.843 526.422C114.879 526.431 114.915 526.44 114.95 526.45C115.322 526.553 115.667 526.721 115.971 526.941C116.35 527.214 116.654 527.557 116.876 527.942C117.1 528.329 117.246 528.767 117.292 529.234C117.331 529.616 117.302 530.007 117.199 530.388C117.179 530.465 117.156 530.541 117.13 530.615L167.43 559.671C167.953 559.063 168.675 558.687 169.439 558.584V500.499C167.949 500.216 166.823 498.906 166.823 497.333C166.823 496.993 166.875 496.666 166.973 496.358L116.526 467.217C116.286 467.495 116.005 467.725 115.698 467.902Z" fill="#A9B1FF"/>
</g>
</g>
<defs>
<linearGradient id="paint0_linear_210_13730" x1="238.484" y1="-44.2069" x2="-30.3702" y2="-18.6851" gradientUnits="userSpaceOnUse">
<stop stop-color="#ECE3FF"/>
<stop offset="0.986762" stop-color="#E9EEFF"/>
</linearGradient>
<clipPath id="clip0_210_13730">
<rect width="275" height="545" rx="32" fill="white"/>
</clipPath>
<clipPath id="clip1_210_13730">
<rect width="275" height="545" fill="white" transform="matrix(-1 0 0 1 275 0)"/>
</clipPath>
</defs>
</svg>
